SplineFontDB: 3.2
FontName: Y.F.M
FullName: Y.F.M
FamilyName: Y.F.M
Weight: Regular
Copyright: Copyright (c) 2026, naymert
UComments: "2026-2-28: Created with FontForge (http://fontforge.org)"
Version: 002.200
ItalicAngle: 0
UnderlinePosition: -100
UnderlineWidth: 50
Ascent: 800
Descent: 200
InvalidEm: 0
LayerCount: 2
Layer: 0 0 "Back" 1
Layer: 1 0 "Fore" 0
XUID: [1021 538 1897717818 15865126]
StyleMap: 0x0000
FSType: 0
OS2Version: 0
OS2_WeightWidthSlopeOnly: 0
OS2_UseTypoMetrics: 1
CreationTime: 1772300544
ModificationTime: 1772530027
OS2TypoAscent: 0
OS2TypoAOffset: 1
OS2TypoDescent: 0
OS2TypoDOffset: 1
OS2TypoLinegap: 90
OS2WinAscent: 0
OS2WinAOffset: 1
OS2WinDescent: 0
OS2WinDOffset: 1
HheadAscent: 0
HheadAOffset: 1
HheadDescent: 0
HheadDOffset: 1
Lookup: 258 0 0 "'kern' Horizontal Kerning lookup 0" { "NUMBER" [150,15,2] "big LETTER" [150,15,2] "eng LETTER" [150,15,2] "ENG letter" [150,15,2] "SMALL letter" [150,15,2] } ['kern' ('DFLT' <'dflt' > 'cyrl' <'dflt' > 'grek' <'dflt' > 'latn' <'dflt' > ) ]
MarkAttachClasses: 1
DEI: 91125
Encoding: UnicodeFull
UnicodeInterp: none
NameList: AGL For New Fonts
DisplaySize: -48
AntiAlias: 1
FitToEm: 0
WinInfo: 0 38 14
BeginPrivate: 0
EndPrivate
BeginChars: 1114121 186

StartChar: uni0404
Encoding: 1028 1028 0
Width: 598
Flags: HW
LayerCount: 2
Fore
SplineSet
453.436523438 550.629882812 m 0
 453.436523438 510.451171875 427.51171875 514.125976562 427.51171875 487.06640625 c 0
 427.51171875 473.75390625 435.514648438 462.294921875 446.967773438 457.243164062 c 2
 500.163085938 433.782226562 l 2
 514.244140625 427.572265625 531.03125 432.073242188 540.046875 445.036132812 c 0
 553.130859375 463.84765625 557.84375 470.625976562 564.599609375 496.186523438 c 0
 564.806640625 496.970703125 570.533203125 526.088867188 566.81640625 554.388671875 c 0
 563.595703125 578.915039062 552.368164062 615.821289062 515.825195312 642.557617188 c 0
 505.622070312 650.022460938 493.953125 658.021484375 465.357421875 670.0234375 c 0
 446.858398438 677.788085938 438.147460938 681.66796875 432.73046875 684.078125 c 0
 420.387695312 689.569335938 389.95703125 701.499023438 362.979492188 699.19140625 c 0
 334.989257812 696.797851562 323.827148438 695.842773438 318.978515625 694.948242188 c 0
 287.014648438 689.051757812 255.203125 673.310546875 227.921875 655.823242188 c 0
 186.708007812 629.407226562 171.772460938 613.563476562 142.844726562 578.546875 c 0
 117.834960938 548.2734375 98.81640625 515.55078125 81.3525390625 484.053710938 c 0
 74.06640625 471.888671875 19.6630859375 376.73046875 25.615234375 257.354492188 c 0
 28.7568359375 194.34375 33.5888671875 170.586914062 45.5 138.747070312 c 0
 55.5810546875 111.798828125 75.5595703125 64.9296875 142.810546875 36.8876953125 c 0
 189.411132812 17.458984375 189.411132812 17.458984375 215.278320312 9.6083984375 c 0
 292.663085938 -14.021484375 325.565429688 -1.37890625 376 18 c 0
 376.46484375 18.1787109375 405.875 30.3994140625 421.18359375 39.0185546875 c 0
 421.7890625 39.359375 461.173828125 62.7470703125 478.950195312 77.6015625 c 0
 494.450195312 90.5537109375 502.009765625 99.0595703125 528.725585938 129.119140625 c 0
 531.265625 131.9765625 546.309570312 149.599609375 546.5 149.795898438 c 0
 552.278320312 155.762695312 562.268554688 166.080078125 562.268554688 185.956054688 c 0
 562.268554688 198.479492188 560.338867188 203.61328125 554.8671875 218.16796875 c 0
 548.579101562 234.893554688 530.668945312 242.099609375 516.583984375 239.306640625 c 0
 475.876953125 231.237304688 470.798828125 227.67578125 455.817382812 206.870117188 c 0
 429.192382812 173.418945312 413.926757812 157.122070312 387.935546875 137.870117188 c 0
 365.341796875 121.134765625 342.233398438 106.564453125 317.9375 96.25390625 c 0
 267.073242188 76.4765625 247.752929688 76.87890625 190.16796875 95.369140625 c 0
 188.485351562 95.935546875 160.610351562 105.831054688 143.1171875 145.224609375 c 0
 135.68359375 163.25 119.857421875 201.626953125 121.301757812 275.485351562 c 1
 137.3515625 278.872070312 140.546875 292.111328125 170.556640625 302.7734375 c 0
 180.29296875 306.233398438 188.10546875 307.763671875 194.813476562 307.763671875 c 0
 219.962890625 307.763671875 241.752929688 273.704101562 292.768554688 273.704101562 c 0
 313.817382812 273.704101562 365.15625 283.267578125 382.483398438 299.9140625 c 0
 386.71484375 303.98046875 395.497070312 312.418945312 399.98046875 320.370117188 c 0
 415.361328125 332.287109375 419.712890625 359.204101562 396.505859375 374.294921875 c 0
 376.079101562 387.579101562 358.704101562 371.927734375 356.145507812 371.927734375 c 0
 352.685546875 371.927734375 347.729492188 372.401367188 341.916992188 372.401367188 c 0
 318.240234375 372.401367188 302.521484375 362.30859375 294.69140625 362.208984375 c 0
 289.659179688 362.145507812 277.197265625 359.994140625 270.973632812 359.994140625 c 0
 231.469726562 359.994140625 212.71484375 405.71484375 141.793945312 384.56640625 c 1
 142.3984375 386.123046875 178.627929688 478.189453125 223.231445312 530.329101562 c 0
 237.626953125 547.157226562 253.358398438 565.547851562 288.952148438 587.1953125 c 0
 322.500976562 607.079101562 361.305664062 627.723632812 416.700195312 611.970703125 c 0
 426.541015625 606.676757812 446.963867188 593.436523438 452.0546875 572.588867188 c 0
 452.095703125 572.373046875 453.436523438 559.823242188 453.436523438 550.629882812 c 0
EndSplineSet
EndChar

StartChar: uni0406
Encoding: 1030 1030 1
Width: 244
Flags: HW
LayerCount: 2
Fore
SplineSet
156.008789062 430.435546875 m 0
 156.008789062 468.76171875 153.393554688 472.814453125 155.626953125 497.166015625 c 0
 157.74609375 520.275390625 160.833007812 519.831054688 161.1171875 543.374023438 c 0
 161.252929688 554.552734375 160.887695312 573.38671875 161.561523438 585.942382812 c 0
 163.647460938 586.165039062 165.671875 586.595703125 167.614257812 587.211914062 c 0
 197.37890625 578.571289062 222.719726562 616.0625 196.323242188 640.650390625 c 0
 193.079101562 643.672851562 189.481445312 645.576171875 185.000976562 647.84765625 c 0
 171.600585938 655.112304688 145.650390625 671.489257812 136.763671875 674.532226562 c 0
 121.80078125 679.65625 121.80078125 679.65625 85.923828125 689.82421875 c 0
 59.9853515625 697.169921875 58.447265625 697.60546875 53.0947265625 697.60546875 c 0
 24.76953125 697.60546875 11.265625 662.268554688 32.548828125 643.405273438 c 2
 55.01171875 623.497070312 l 2
 55.033203125 622.426757812 58.474609375 538.294921875 66.1650390625 517.030273438 c 1
 70.7763671875 482.393554688 71.177734375 456.806640625 71.2392578125 456.19921875 c 0
 73.10546875 437.677734375 73.6943359375 418.708984375 73.6943359375 399.299804688 c 0
 73.6943359375 398.602539062 73.6875 353.716796875 71.9990234375 329.631835938 c 0
 70.7998046875 312.53515625 70.625 307.291992188 70.5185546875 286.177734375 c 0
 70.5146484375 285.331054688 69.42578125 214.453125 68.185546875 201.547851562 c 0
 68.0068359375 199.690429688 66.3564453125 188.591796875 63.185546875 164.700195312 c 0
 63.08203125 163.916992188 56.5859375 105.681640625 58.23828125 85.8671875 c 0
 59.13671875 75.06640625 59.49609375 70.7548828125 68.3369140625 46.474609375 c 0
 71.7744140625 37.033203125 82.12890625 28.255859375 83.1318359375 25.9423828125 c 0
 88.0849609375 14.517578125 91.4033203125 10.1806640625 101.52734375 5.3701171875 c 0
 114.140625 -0.6220703125 129.530273438 2.5390625 138.720703125 13.677734375 c 1
 152.030273438 18.837890625 155.534179688 28.5458984375 158.104492188 35.6689453125 c 0
 164.340820312 52.9521484375 163.935546875 58.154296875 160.647460938 100.311523438 c 0
 159.560546875 114.24609375 157.241210938 159.98046875 155.181640625 177.958984375 c 0
 153.614257812 191.639648438 153.614257812 191.639648438 153.614257812 230.7421875 c 0
 153.614257812 231.354492188 152 282.01953125 152 292 c 0
 152 342.141601562 156.008789062 346.94140625 156.008789062 430.435546875 c 0
EndSplineSet
EndChar

StartChar: uni0407
Encoding: 1031 1031 2
Width: 250
Flags: HW
LayerCount: 2
Fore
SplineSet
163.345703125 422.438476562 m 0
 163.345703125 460.73046875 160.731445312 464.826171875 162.96484375 489.173828125 c 0
 165.084960938 512.349609375 168.168945312 511.759765625 168.454101562 535.376953125 c 0
 168.58984375 546.555664062 168.224609375 565.389648438 168.8984375 577.9453125 c 0
 170.984375 578.16796875 173.008789062 578.598632812 174.951171875 579.21484375 c 0
 204.715820312 570.57421875 230.056640625 608.065429688 203.66015625 632.653320312 c 0
 200.416015625 635.67578125 196.818359375 637.579101562 192.337890625 639.850585938 c 0
 178.9375 647.115234375 152.987304688 663.493164062 144.100585938 666.536132812 c 0
 129.137695312 671.659179688 129.137695312 671.659179688 93.265625 681.826171875 c 0
 67.4111328125 689.15234375 65.7998046875 689.608398438 60.431640625 689.608398438 c 0
 32.1064453125 689.608398438 18.6025390625 654.271484375 39.8857421875 635.408203125 c 2
 62.3486328125 615.500976562 l 2
 62.3701171875 614.430664062 65.814453125 530.268554688 73.501953125 509.03125 c 1
 78.1123046875 474.405273438 78.5146484375 448.809570312 78.5751953125 448.202148438 c 0
 80.4423828125 429.681640625 81.03125 410.711914062 81.03125 391.302734375 c 0
 81.03125 390.60546875 81.0234375 345.719726562 79.3359375 321.635742188 c 0
 78.13671875 304.538085938 77.9619140625 299.294921875 77.85546875 278.180664062 c 0
 77.8515625 277.333984375 76.7626953125 206.456054688 75.5224609375 193.55078125 c 0
 75.34375 191.694335938 73.693359375 180.594726562 70.5224609375 156.703125 c 0
 70.4189453125 155.919921875 63.9228515625 97.6865234375 65.5751953125 77.8701171875 c 0
 66.4736328125 67.0732421875 66.8330078125 62.75390625 75.673828125 38.4765625 c 0
 79.1123046875 29.0361328125 89.4658203125 20.2587890625 90.46875 17.9453125 c 0
 95.421875 6.5205078125 98.740234375 2.18359375 108.864257812 -2.6259765625 c 0
 121.477539062 -8.619140625 136.8671875 -5.45703125 146.057617188 5.6806640625 c 1
 159.3671875 10.8408203125 162.87109375 20.548828125 165.44140625 27.671875 c 0
 171.677734375 44.955078125 171.272460938 50.1552734375 167.983398438 92.318359375 c 0
 166.896484375 106.254882812 164.578125 151.987304688 162.518554688 169.961914062 c 0
 160.951171875 183.643554688 160.951171875 183.643554688 160.951171875 222.745117188 c 0
 160.951171875 247.97265625 159.336914062 249.408203125 159.336914062 284.00390625 c 0
 159.336914062 334.14453125 163.345703125 338.944335938 163.345703125 422.438476562 c 0
177.188476562 740.038085938 m 0
 216.53125 716.697265625 251.6640625 745.576171875 251.6640625 775.86328125 c 0
 251.6640625 777.625976562 251.4140625 787.412109375 246.16015625 797.903320312 c 0
 243.868164062 802.48046875 239.737304688 810.727539062 223.182617188 824.853515625 c 0
 213.48046875 833.950195312 198.625976562 837.416992188 185.749023438 830.614257812 c 1
 154.08203125 830.555664062 142.79296875 784.76171875 153 765 c 0
 158.90625 753.564453125 167.5 745.786132812 177.188476562 740.038085938 c 0
14.1630859375 820.595703125 m 0
 7.5693359375 814.904296875 -8.9609375 800.635742188 -5.3544921875 777.250976562 c 0
 -3.7958984375 767.145507812 2.6513671875 758.643554688 11.4912109375 754.241210938 c 0
 13.5419921875 753.219726562 15.89453125 751.947265625 18.5732421875 750.489257812 c 0
 40.8662109375 738.357421875 52.8408203125 733.364257812 74.3349609375 744.72265625 c 0
 91.9697265625 754.041992188 111.754882812 776.369140625 94.4775390625 805.821289062 c 0
 89.83203125 815.299804688 74.1689453125 827.498046875 58.21875 831.875 c 0
 57.9501953125 832.026367188 44.2021484375 839.422851562 27.43359375 830.252929688 c 0
 22.18359375 828.270507812 17.611328125 824.90234375 14.1630859375 820.595703125 c 0
EndSplineSet
EndChar

StartChar: uni0410
Encoding: 1040 1040 3
Width: 659
Flags: HW
LayerCount: 2
Fore
SplineSet
196.879882812 301.39453125 m 1
 201.79296875 314.837890625 201.79296875 314.837890625 219.73046875 355.752929688 c 0
 234.364257812 385.810546875 236.762695312 390.124023438 291.543945312 478.345703125 c 0
 313.811523438 514.20703125 334.94140625 547.484375 352.241210938 572.586914062 c 1
 352.645507812 571.483398438 380.209960938 494.779296875 392.653320312 462.165039062 c 0
 393.037109375 461.161132812 395.9375 449.857421875 430.860351562 361.766601562 c 1
 430.141601562 361.5859375 400.670898438 351.809570312 359.458984375 341.883789062 c 0
 304.314453125 328.602539062 234.255859375 311.54296875 196.879882812 301.39453125 c 1
586.795898438 -4.640625 m 2
 587.155273438 -4.82421875 609.4921875 -16.1787109375 626.546875 2.708984375 c 0
 649.577148438 22.4482421875 639.21875 57.66015625 616.680664062 134.2734375 c 0
 605.95703125 170.727539062 572.768554688 253.625 546.5546875 313.3203125 c 0
 539.119140625 330.251953125 539.119140625 330.251953125 520.49609375 374.784179688 c 0
 506.405273438 413.124023438 499.576171875 424.83984375 480.643554688 476.87890625 c 0
 480.232421875 478.009765625 440.517578125 585.692382812 438.478515625 589.5390625 c 0
 427.924804688 609.443359375 422.946289062 636.645507812 401.401367188 661.393554688 c 0
 395.891601562 667.721679688 390.69140625 671.80859375 387.063476562 674.798828125 c 0
 385.083984375 676.428710938 382.615234375 678.557617188 375.274414062 685.197265625 c 0
 356.79296875 701.912109375 326.55078125 694.735351562 319.580078125 670.23828125 c 0
 318.322265625 669.119140625 317.1484375 667.905273438 316.072265625 666.609375 c 0
 292.934570312 658.268554688 290.536132812 654.072265625 253.494140625 589.262695312 c 0
 233.708007812 554.64453125 225.159179688 540.104492188 206.369140625 509.153320312 c 0
 205.68359375 508.022460938 162.5546875 434.919921875 142.805664062 393.176757812 c 0
 141.209960938 389.833007812 139.499023438 386.37109375 137.71875 382.771484375 c 0
 126.23828125 359.5546875 124.114257812 353.689453125 117.64453125 335.6796875 c 0
 117.35546875 334.875976562 165.590820312 469.30859375 88.521484375 255.389648438 c 0
 71.0234375 206.822265625 71.0234375 206.822265625 63.44140625 183.9765625 c 0
 59.0625 172.461914062 41.9306640625 126.994140625 41.693359375 126.426757812 c 0
 41.544921875 126.0703125 32.8515625 108.6484375 25.9560546875 91.216796875 c 0
 22.853515625 83.3720703125 20.193359375 76.8779296875 17.447265625 71.875 c 0
 8.6494140625 55.8447265625 14.525390625 35.564453125 30.7275390625 26.7333984375 c 2
 83.8095703125 -2.1982421875 l 2
 102.395507812 -12.328125 125.642578125 -2.5732421875 131.564453125 17.6552734375 c 0
 133.091796875 22.8740234375 141.296875 51.671875 144.470703125 76.31640625 c 0
 144.6640625 77.8173828125 144.6640625 77.8173828125 157 150 c 0
 159.224609375 158.534179688 159.224609375 158.534179688 169.52734375 205.8046875 c 0
 171.251953125 206.588867188 176.423828125 209.248046875 176.494140625 209.280273438 c 0
 235.299804688 235.489257812 324.307617188 254.893554688 464.080078125 278.029296875 c 0
 464.227539062 277.66796875 476.263671875 248.861328125 479.013671875 241.9140625 c 0
 500.732421875 187.034179688 509.237304688 156.064453125 516.977539062 123.666992188 c 0
 522.930664062 98.7490234375 523.934570312 91.9326171875 526.1640625 75.2060546875 c 0
 525.547851562 69.5400390625 524.854492188 53.705078125 532.564453125 32.9267578125 c 0
 535.47265625 25.087890625 541.2578125 18.6396484375 548.633789062 14.869140625 c 2
 586.795898438 -4.640625 l 2
EndSplineSet
EndChar

StartChar: uni0411
Encoding: 1041 1041 4
Width: 580
Flags: HW
LayerCount: 2
Fore
SplineSet
284.435546875 709.74609375 m 0
 258.80859375 709.74609375 260.930664062 707.778320312 214.298828125 707.778320312 c 0
 197.700195312 707.778320312 164.999023438 708.137695312 164.500976562 708.1328125 c 0
 135.459960938 707.877929688 53.4495601809 707.942213598 37.9033203125 705.711914062 c 0
 19 703 13.4598569441 653.919810939 22.609375 647.543945312 c 2
 32.97265625 640.322265625 l 1
 32.97265625 628.8671875 33.806640625 598.6015625 41.9609375 555.008789062 c 0
 42.3857421875 552.740234375 62.328125 415.75390625 62.328125 325.083007812 c 0
 62.328125 241.506835938 43.759765625 85.369140625 43.759765625 82.9404296875 c 0
 43.759765625 81.94921875 43.8046875 80.9677734375 43.8935546875 79.9990234375 c 0
 40.86328125 76.4189453125 35.0849609375 67.8115234375 36.5478515625 55.515625 c 0
 33.8310546875 35.76171875 48.7421875 23.5244140625 59.0068359375 19.9658203125 c 0
 67.029296875 17.185546875 67.029296875 17.185546875 80.958984375 11.2880859375 c 0
 88.173828125 8.2333984375 90.4091796875 9.6123046875 100.034179688 6.619140625 c 0
 115.27734375 1.87890625 116.44140625 1.5166015625 128.23046875 1.0439453125 c 0
 128.580078125 1.029296875 147.66796875 -0.9736328125 163.189453125 -0.9736328125 c 0
 165.086914062 -0.9736328125 280.893554688 -0.720703125 352.241210938 16.2353515625 c 0
 385.044921875 24.0322265625 385.044921875 24.0322265625 402.083007812 31.1650390625 c 0
 431.826171875 43.6162109375 458.3828125 61.6328125 481.293945312 83.224609375 c 0
 504.87109375 105.444335938 534.965820312 140.939453125 531.858398438 208.190429688 c 0
 530.611328125 235.188476562 516.655273438 291.46484375 487.954101562 327.54296875 c 0
 483.381835938 333.291992188 479.022460938 337.346679688 475.797851562 340.443359375 c 0
 468.833007812 347.130859375 468.833007812 347.130859375 454.8203125 356.6796875 c 0
 453.079101562 358.455078125 450.166015625 361.359375 443.698242188 364.168945312 c 0
 402.787109375 391.295898438 376.029296875 399.62890625 308.856445312 408.120117188 c 0
 255.361328125 414.883789062 204.705078125 412.592773438 150.436523438 403.21484375 c 1
 150.291992188 405.158203125 135.838867188 569.071289062 135.314453125 597.5234375 c 0
 135.099609375 609.186523438 134.887695312 620.677734375 137.0234375 630.5 c 1
 210.05078125 634.194335938 247.822265625 631.258789062 285.444335938 626.51953125 c 0
 309.111328125 623.5390625 349.3515625 619.861328125 349.99609375 619.788085938 c 0
 350.912109375 619.684570312 402.583984375 612.870117188 441.424804688 608.245117188 c 0
 462.6953125 605.711914062 474.596679688 603.93359375 486.96875 601.401367188 c 0
 494.098632812 599.942382812 494.098632812 599.942382812 503.3671875 597.754882812 c 0
 539.797851562 589.153320312 563.120117188 630.563476562 529.912109375 662.787109375 c 0
 522.770507812 674.012695312 510.998046875 677.013671875 509.770507812 677.96484375 c 0
 503.102539062 683.129882812 494.801757812 687.958007812 478.564453125 696.137695312 c 0
 464.564453125 703.190429688 447.891601562 704.383789062 387.017578125 708.743164062 c 0
 380.83984375 709.185546875 380.83984375 709.185546875 328.174804688 709.185546875 c 0
 315.51171875 709.185546875 284.873046875 709.74609375 284.435546875 709.74609375 c 0
279.373046875 709.7109375 m 1
 279.294921875 709.7109375 279.217773438 709.708984375 279.139648438 709.708984375 c 1
 279.217773438 709.708984375 279.294921875 709.7109375 279.373046875 709.7109375 c 1
153.467773438 330.854492188 m 1
 155.430664062 331.373046875 209.608398438 345.396484375 305.407226562 336.411132812 c 0
 331.341796875 333.978515625 368.999023438 328.109375 397.754882812 313.979492188 c 0
 399.353515625 313.193359375 400.893554688 312.46484375 402.364257812 311.791992188 c 0
 405.900390625 306.737304688 413.428710938 300.509765625 415.491210938 297.702148438 c 0
 416.926757812 295.74609375 433.440429688 272.458007812 433.440429688 235.603515625 c 0
 433.440429688 214.694335938 432.32421875 210.899414062 428.935546875 199.381835938 c 0
 427.4375 194.287109375 426.270507812 190.741210938 425.377929688 188.82421875 c 0
 423.541992188 184.877929688 413.78515625 170.296875 410.21875 166.234375 c 0
 410.059570312 166.052734375 410.059570312 166.052734375 398.01171875 154.270507812 c 0
 366.498046875 127.012695312 330.287109375 116.219726562 296 106 c 0
 239.4609375 91.888671875 172.505859375 92.0009765625 149.486328125 92.515625 c 1
 149.5390625 186.5546875 155.94140625 221.7734375 153.467773438 330.854492188 c 1
EndSplineSet
EndChar

StartChar: uni0412
Encoding: 1042 1042 5
Width: 543
Flags: HW
LayerCount: 2
Fore
SplineSet
99.8330078125 7.0244140625 m 0
 102.629882812 6.6123046875 102.629882812 6.6123046875 112.97265625 7.2412109375 c 0
 117.529296875 6.1953125 121.057617188 5.298828125 123.588867188 4.6201171875 c 0
 130.95703125 -0.9072265625 136.186523438 -1.529296875 144.84375 -1.7958984375 c 0
 184.1328125 -3.0078125 184.1328125 -3.0078125 241 4 c 0
 279.84765625 8.7880859375 303.02734375 12.2861328125 328.541015625 17.5546875 c 0
 372.1640625 26.5625 421.89453125 35.927734375 465.3515625 70.2890625 c 0
 465.712890625 70.57421875 484.869140625 86.63671875 495.596679688 104.951171875 c 0
 509.514648438 128.7109375 521.182617188 183.434570312 518.169921875 214.59765625 c 0
 515.255859375 244.763671875 502.155273438 270.366210938 487.203125 291.514648438 c 0
 473.701171875 310.612304688 443.787109375 346.20703125 386.217773438 386.5 c 0
 385.98046875 386.666015625 370.454101562 396.62109375 370.294921875 396.723632812 c 1
 385.862304688 403.05859375 399.126953125 408.45703125 426.916992188 434.643554688 c 0
 427.155273438 434.868164062 439.609375 447.443359375 446.336914062 461.030273438 c 0
 464.974609375 498.680664062 445.541992188 536.739257812 445.178710938 537.411132812 c 0
 436.266601562 553.88671875 432.462890625 560.91796875 421.249023438 572.998046875 c 0
 397.251953125 598.845703125 356.736328125 624.674804688 299.584960938 658.346679688 c 0
 299.310546875 658.5078125 280.7734375 668.40234375 270.96875 672.416992188 c 0
 227.645507812 690.15625 183.392578125 689.83984375 145.375976562 689.849609375 c 0
 121.765625 689.849609375 80.1962890625 683.256835938 60.5625 678.786132812 c 0
 56.984375 677.970703125 53.6318359375 676.560546875 50.615234375 674.665039062 c 0
 29.21484375 672.237304688 16.09765625 649.666015625 24.6494140625 629.8515625 c 0
 26.57421875 625.392578125 28.0439453125 618.32421875 29.6806640625 608.4140625 c 0
 29.701171875 608.291015625 34.478515625 580.692382812 36.6728515625 573.232421875 c 0
 46.1982421875 517.447265625 47.1552734375 495.939453125 48.3857421875 388.505859375 c 0
 48.3935546875 387.846679688 49.6484375 335.020507812 49.6484375 322.57421875 c 0
 49.6484375 268.188476562 48.71875 255.592773438 43.6298828125 195.916015625 c 0
 36.1708984375 133.732421875 35.833984375 99.703125 38.2080078125 70.478515625 c 0
 38.4814453125 49.13671875 49.8486328125 37.59765625 49.8486328125 35.556640625 c 0
 49.8486328125 10.1484375 78.4970703125 -5.6201171875 99.8330078125 7.0244140625 c 0
141.029296875 95.3525390625 m 1
 142.434570312 121.408203125 141.337890625 131.499023438 140.075195312 175.923828125 c 0
 135.950195312 321.0078125 138.157226562 360.7421875 138.129882812 362.608398438 c 1
 142.237304688 362.19921875 148.94140625 360.864257812 156.696289062 360.2265625 c 0
 191.5625 357.360351562 270.194335938 369.296875 271.330078125 369.473632812 c 0
 283.759765625 365.623046875 295.857421875 360.190429688 308.279296875 353.1953125 c 0
 314.735351562 346.170898438 353.04296875 322.473632812 383.069335938 280.791992188 c 0
 390.434570312 270.569335938 406.143554688 248.76171875 399.719726562 212.284179688 c 0
 396.443359375 193.682617188 392.99609375 178.362304688 387.315429688 168.944335938 c 0
 387.138671875 168.65234375 379.118164062 155.764648438 362.643554688 145.348632812 c 0
 327.453125 123.100585938 265.619140625 109.369140625 175.274414062 99.5107421875 c 0
 164.208007812 98.302734375 151.059570312 96.947265625 141.029296875 95.3525390625 c 1
135.229492188 603.682617188 m 1
 171.780273438 608.62890625 199.279296875 607.85546875 237.48828125 599.770507812 c 0
 257.625976562 595.509765625 260.025390625 595.001953125 298.991210938 574.893554688 c 1
 304.840820312 567.254882812 308.159179688 565.373046875 320.390625 558.435546875 c 0
 332.130859375 548.438476562 335.080078125 545.928710938 342.80859375 530.80078125 c 0
 346.758789062 519.533203125 345.255859375 517.766601562 337.060546875 508.127929688 c 0
 328.159179688 498.880859375 320.76171875 491.197265625 283.345703125 476.6484375 c 0
 242.673828125 462.584960938 210.858398438 458.588867188 173.219726562 454.974609375 c 0
 162.358398438 453.930664062 135.923828125 453.198242188 135.547851562 453.168945312 c 1
 135.533203125 453.690429688 134.749023438 501.767578125 134.618164062 505.291015625 c 0
 134.189453125 516.799804688 134.189453125 516.799804688 135.685546875 542.142578125 c 0
 135.973632812 547.0078125 137.111328125 579.112304688 137.111328125 579.486328125 c 0
 137.111328125 583.192382812 137.111328125 583.192382812 135.229492188 603.682617188 c 1
EndSplineSet
EndChar

StartChar: uni0413
Encoding: 1043 1043 6
Width: 557
Flags: HW
LayerCount: 2
Fore
SplineSet
406.46484375 677.920898438 m 0
 366.404296875 680.08984375 360.015625 672.423828125 340.348632812 672.423828125 c 0
 337.54296875 672.423828125 336.936523438 672.662109375 334.500976562 672.662109375 c 0
 324.491210938 672.662109375 249.379882812 665.517578125 201.283203125 665.517578125 c 0
 199.974609375 665.517578125 80.3623046875 666.993164062 70.4599609375 666.444335938 c 1
 53.3125 675.3359375 51.7724609375 676.133789062 43.99609375 676.133789062 c 0
 41.1640625 676.133789062 9.443359375 675.268554688 12.4609375 636.400390625 c 0
 12.763671875 632.487304688 8.1875 694.158203125 18.6875 561.724609375 c 0
 21.3349609375 528.333007812 24.75390625 514.055664062 29.01953125 444.110351562 c 0
 32.7880859375 382.336914062 32.7880859375 382.336914062 33.7705078125 342.571289062 c 0
 33.794921875 341.59765625 36.8603515625 253.490234375 37.4912109375 245.21875 c 0
 39.619140625 217.297851562 41.2197265625 189.762695312 41.2197265625 162.647460938 c 0
 41.2197265625 162.41015625 40.763671875 140.728515625 40.771484375 138.9296875 c 0
 40.865234375 118.732421875 43.9365234375 68.90625 48.5556640625 54.6943359375 c 0
 55.5322265625 33.208984375 68.17578125 22.1328125 82.3720703125 9.6982421875 c 0
 86.6689453125 5.9345703125 96.2578125 0 114 0 c 0
 136.26171875 0 156.721679688 16.888671875 156.721679688 43.083984375 c 0
 156.721679688 62.6728515625 139.631835938 135.619140625 139.411132812 136.543945312 c 0
 124.885742188 197.34375 124.885742188 260.771484375 124.885742188 357.814453125 c 0
 124.885742188 387.986328125 124.400390625 400.694335938 124.400390625 434.772460938 c 0
 124.400390625 435.350585938 124.611328125 481.603515625 126.002929688 492.520507812 c 0
 127.4921875 504.20703125 128.576171875 527.66015625 128.576171875 562.186523438 c 0
 128.576171875 562.443359375 128.07421875 570.498046875 128.2890625 587.88671875 c 1
 161.694335938 589.271484375 208.328125 590.931640625 288.379882812 587.845703125 c 0
 308.431640625 587.072265625 336.893554688 585.967773438 397.208984375 583.01171875 c 0
 404.825195312 581.413085938 443.875976562 576.844726562 458.745117188 576.360351562 c 0
 471.470703125 575.946289062 495.90234375 570.001953125 509.690429688 570.001953125 c 0
 537.747070312 570.001953125 549.50390625 603.009765625 537.896484375 622.40625 c 0
 536.98828125 626.453125 533.856445312 640.403320312 513.080078125 647.484375 c 0
 507.431640625 650.545898438 503.294921875 652.849609375 500.5234375 654.41796875 c 0
 498.547851562 656.28515625 477.155273438 670.01953125 451.553710938 674.528320312 c 0
 443.749023438 675.90234375 443.749023438 675.90234375 406.46484375 677.920898438 c 0
EndSplineSet
EndChar

StartChar: uni0414
Encoding: 1044 1044 7
Width: 663
Flags: HW
LayerCount: 2
Fore
SplineSet
395.506835938 691.3125 m 0
 343.297851562 691.3125 304.815429688 696.206054688 303.8984375 696.206054688 c 0
 294.217773438 696.206054688 285.510742188 692.002929688 279.504882812 685.323242188 c 1
 260.982421875 688.33203125 243.923828125 675.256835938 241.665039062 657.012695312 c 0
 237.684570312 624.854492188 236.282226562 620.287109375 213.633789062 550.768554688 c 0
 185.452148438 464.264648438 179.990234375 449.725585938 159.889648438 408.606445312 c 0
 147.811523438 383.903320312 139.219726562 367.45703125 124.133789062 342.954101562 c 0
 98.685546875 301.622070312 85.439453125 282.390625 46.314453125 243.348632812 c 0
 40.490234375 237.537109375 34.5595703125 231.5390625 27.46484375 222.443359375 c 0
 20.5361328125 214.397460938 14.212890625 206.43359375 14.212890625 191.313476562 c 0
 9.4365234375 172.9296875 24.7099609375 155.11328125 24.7099609375 124.0234375 c 0
 24.7099609375 106.547851562 20.8095703125 86.87890625 20.8095703125 71.3134765625 c 0
 20.8095703125 64.2578125 21.521484375 61.5361328125 24.48828125 50.1982421875 c 0
 22.7958984375 44.8447265625 21.728515625 40.8837890625 21.728515625 35.9345703125 c 0
 21.728515625 2.2177734375 68.392578125 -10.6796875 84.7529296875 19.6435546875 c 0
 89.419921875 23.8134765625 94.703125 30.8583984375 101.529296875 41.0380859375 c 0
 109.845703125 53.439453125 110.953125 60.6123046875 115.405273438 89.45703125 c 0
 115.47265625 89.888671875 118.192382812 110.489257812 115.967773438 133.110351562 c 1
 179.999023438 133.302734375 217.384765625 132.986328125 218.409179688 132.986328125 c 0
 223.017578125 132.986328125 345.44140625 134.395507812 369.102539062 134.395507812 c 0
 384.166015625 134.395507812 494.02734375 132.61328125 495.290039062 132.61328125 c 0
 515.73828125 132.61328125 515.73828125 132.61328125 551.286132812 125.173828125 c 1
 550.577148438 94.294921875 551.1484375 86.111328125 558.185546875 64.966796875 c 0
 565.912109375 41.7529296875 569.271484375 44.4609375 571.713867188 34.052734375 c 0
 575.684570312 17.1328125 578.650390625 10.0654296875 592.646484375 3.2509765625 c 0
 614.270507812 -7.2783203125 639.772460938 8.5283203125 639.772460938 32.7578125 c 0
 639.772460938 36.9697265625 639.129882812 39.71484375 637.521484375 45.650390625 c 0
 642.754882812 60.1435546875 642.754882812 71.240234375 642.754882812 93.0458984375 c 0
 642.754882812 120.166992188 647.80859375 142.543945312 647.80859375 147.349609375 c 0
 647.80859375 155.946289062 644.494140625 163.775390625 639.07421875 169.625976562 c 0
 636.204101562 180.551757812 634.677734375 178.59765625 622.63671875 205.563476562 c 0
 599.424804688 257.544921875 585.360351562 299.038085938 572.813476562 343.831054688 c 0
 555.591796875 405.30859375 553.025390625 414.470703125 544.390625 492.7109375 c 0
 538.258789062 548.27734375 530.954101562 607.287109375 525.40625 627.961914062 c 0
 523.594726562 634.713867188 522.923828125 636.2890625 517.005859375 650.1796875 c 0
 513.80859375 657.685546875 507.892578125 663.758789062 500.497070312 667.161132812 c 2
 468.157226562 682.040039062 l 2
 464.180664062 683.870117188 456.599609375 686.314453125 447.305664062 684.237304688 c 1
 432.344726562 689.883789062 426.387695312 691.3125 395.506835938 691.3125 c 0
483.760742188 217.010742188 m 0
 469.612304688 217.010742188 458.123046875 216.8046875 457.86328125 216.8046875 c 0
 442.630859375 216.8046875 365.666992188 219.078125 337.500976562 218.510742188 c 0
 297.693359375 219.071289062 257.536132812 221.0234375 217 223 c 0
 186.200195312 224.501953125 186.200195312 224.501953125 154.975585938 225.852539062 c 1
 175.82421875 251.346679688 192.134765625 276.700195312 204.444335938 302.448242188 c 0
 230.088867188 356.090820312 258.776367188 412.650390625 259.30078125 413.775390625 c 0
 286.490234375 472.103515625 299.174804688 530.415039062 328.220703125 609.764648438 c 0
 329.483398438 609.631835938 383.498046875 606.2734375 388.930664062 606.211914062 c 0
 389.453125 606.206054688 428.197265625 604.677734375 428.59375 604.671875 c 0
 430.095703125 590.455078125 434.5703125 539.811523438 434.640625 539.157226562 c 0
 435.940429688 527.0859375 437.111328125 514.865234375 438.294921875 502.513671875 c 0
 443.592773438 447.198242188 447.446289062 406.971679688 463.650390625 343.311523438 c 0
 473.965820312 302.788085938 485.774414062 262.311523438 500.400390625 222.448242188 c 1
 495.090820312 220.403320312 495.090820312 220.403320312 483.760742188 217.010742188 c 0
EndSplineSet
EndChar

StartChar: uni0415
Encoding: 1045 1045 8
Width: 542
Flags: HW
LayerCount: 2
Fore
SplineSet
77.876953125 695.077148438 m 0
 73.41796875 695.077148438 61.1240234375 695.077148438 52.1396484375 691.3984375 c 1
 29.18359375 694.987304688 10.359375 673.385742188 16.845703125 651.237304688 c 0
 26.4013671875 618.60546875 31 616.020507812 33.8720703125 602.145507812 c 0
 45.705078125 544.967773438 42.1416015625 551.076171875 56.13671875 465.450195312 c 0
 56.390625 463.538085938 71.96484375 334.678710938 71.96484375 273.196289062 c 0
 71.96484375 238.451171875 69.9130859375 217.544921875 65.8193359375 181.102539062 c 0
 63.6982421875 162.227539062 62.0615234375 168.346679688 57.2333984375 151.920898438 c 0
 47.6298828125 119.25 48.1259765625 73.7587890625 48.9443359375 68.8837890625 c 0
 42.3427734375 41.2890625 59.935546875 26.3076171875 69.5595703125 18.111328125 c 0
 79.0654296875 10.0166015625 79.0654296875 10.0166015625 81.267578125 8.4326171875 c 0
 82.7080078125 6.6123046875 92.7578125 -5.244140625 109.469726562 -4.185546875 c 1
 127.641601562 -8.4052734375 146.3203125 -7.5244140625 157.624023438 7.455078125 c 1
 174.088867188 10.38671875 174.088867188 10.38671875 279 24 c 0
 310.72265625 28.1201171875 329.251953125 26.5791015625 368.711914062 23.298828125 c 0
 369.28125 23.251953125 354.872070312 24.5673828125 425.692382812 20.1474609375 c 0
 429.245117188 19.92578125 435.88671875 18.0634765625 445.166015625 18.0634765625 c 0
 460.345703125 18.0634765625 471.724609375 23.3994140625 479.321289062 34.06640625 c 1
 505.094726562 37.79296875 518.395507812 72.154296875 492.563476562 91.5859375 c 0
 483.500976562 98.40234375 475.3984375 98.0732421875 467.393554688 97.748046875 c 0
 463.786132812 98.5166015625 460.911132812 99.171875 458.68359375 99.703125 c 0
 450.318359375 106.889648438 438.374023438 110.131835938 412.248046875 116.090820312 c 0
 390.453125 121.061523438 329.662109375 116.9296875 322.390625 115.50390625 c 0
 266.686523438 104.578125 266.456054688 104.04296875 265.888671875 103.940429688 c 0
 252.065429688 101.454101562 235.859375 100.236328125 219.5 97.0322265625 c 0
 200.07421875 94.0537109375 180.743164062 91.1611328125 161.39453125 88.3984375 c 1
 157.9296875 137.509765625 152.053710938 143.548828125 152.053710938 157.0625 c 0
 152.053710938 188.57421875 159.038085938 275.8203125 154.275390625 321.9765625 c 1
 186.79296875 332.405273438 187.741210938 332.500976562 225.434570312 336.322265625 c 0
 254.794921875 339.298828125 266.39453125 340.475585938 281.638671875 340.475585938 c 0
 294.919921875 340.475585938 300.826171875 337.53125 320.235351562 337.53125 c 0
 475.767578125 337.53125 354.411132812 337.46484375 354.756835938 337.46484375 c 0
 364.8046875 337.46484375 377.974609375 337.46484375 384.44140625 339.896484375 c 0
 421.327148438 338.514648438 430.745117188 366.974609375 425.7890625 386.83984375 c 1
 425.7890625 405.930664062 409.922851562 417.130859375 397.850585938 419.010742188 c 0
 395.543945312 420.381835938 376.6171875 431.271484375 353.068359375 433.921875 c 0
 327.909179688 436.751953125 309.282226562 435.010742188 287.521484375 432.166992188 c 0
 264.513671875 429.1640625 264.0625 429.10546875 253.161132812 424.016601562 c 0
 244.809570312 420.118164062 185.82421875 414.616210938 170.361328125 404.868164062 c 0
 166.383789062 403.524414062 161.999023438 402.25390625 145.682617188 398.379882812 c 1
 140.037109375 447.50390625 136.0234375 488.151367188 135.9140625 489.056640625 c 0
 135.811523438 489.91015625 126.559570312 555.306640625 125.028320312 574.310546875 c 0
 124.431640625 581.716796875 124.678710938 588.017578125 123.751953125 598.0078125 c 0
 123.364257812 602.186523438 123.352539062 602.310546875 123.625 603.479492188 c 0
 125.330078125 610.80859375 125.484375 614.25 125.560546875 617.834960938 c 0
 223.23828125 622.57421875 359.596679688 600.45703125 389.587890625 591.682617188 c 0
 403.44140625 587.630859375 403.715820312 585.661132812 440.051757812 574.310546875 c 0
 455.974609375 569.337890625 458.118164062 568.66796875 461.20703125 566.887695312 c 0
 493.0546875 548.533203125 525.373046875 588.1484375 502.758789062 615.633789062 c 0
 498.206054688 621.16796875 495.428710938 622.672851562 494.197265625 623.245117188 c 0
 444.000976562 665.764648438 435.140625 670.405273438 425.315429688 671.892578125 c 0
 395.952148438 679.5078125 383.173828125 679.051757812 368.630859375 674.14453125 c 1
 323.763671875 675.34765625 184.518554688 695.077148438 77.876953125 695.077148438 c 0
EndSplineSet
EndChar

StartChar: uni0416
Encoding: 1046 1046 9
Width: 734
Flags: HW
LayerCount: 2
Fore
SplineSet
311.990234375 660.3203125 m 0
 311.990234375 641.49609375 316.59765625 667.42578125 316.59765625 593.29296875 c 0
 316.59765625 564.8046875 311.536132812 512.771484375 310.384765625 472.165039062 c 0
 310.369140625 471.60546875 308.41796875 431.296875 308.58203125 416.22265625 c 1
 274.33203125 441.228515625 244.458007812 466.895507812 196.569335938 530.196289062 c 0
 195.822265625 531.184570312 150.611328125 591.03515625 131.689453125 635.745117188 c 0
 132.12890625 639.736328125 132.576171875 653.204101562 120.526367188 663.055664062 c 0
 90.8037109375 687.357421875 84.7744140625 692.287109375 69.4345703125 697.005859375 c 0
 41.2744140625 705.66796875 22.06640625 680.197265625 24.6240234375 657.215820312 c 0
 26.244140625 642.705078125 38.6416015625 620.831054688 49.548828125 601.5859375 c 0
 74.3251953125 557.87109375 104.470703125 519.463867188 133.96875 482.971679688 c 0
 158.171875 453.294921875 194.1640625 412.342773438 239.061523438 380.369140625 c 1
 230.662109375 370.041015625 222.206054688 359.7578125 213.66015625 349.458007812 c 0
 212.693359375 348.307617188 169.780273438 296.981445312 121.237304688 230.982421875 c 0
 100.349609375 202.5859375 99.4697265625 201.390625 82.61328125 160.323242188 c 0
 81.9140625 158.619140625 63.9267578125 114.436523438 63.138671875 111.940429688 c 0
 58.32421875 96.6796875 44.0927734375 75.3544921875 44.0927734375 53.291015625 c 0
 44.0927734375 36.1611328125 51.0869140625 24.318359375 54.3349609375 17.9794921875 c 0
 59.5078125 7.8876953125 61.583984375 5.0966796875 69.8310546875 0.3642578125 c 0
 77.5888671875 -4.087890625 84.0732421875 -5.837890625 106.532226562 0.6806640625 c 0
 108.21875 1.1708984375 107.87890625 0.3056640625 114.071289062 3.7001953125 c 0
 133.043945312 14.1044921875 138.641601562 28.580078125 146.344726562 57.185546875 c 0
 147.912109375 63.0068359375 156.87109375 93.73046875 174.125976562 132.329101562 c 0
 176.107421875 136.758789062 196.22265625 184.2578125 196.481445312 184.765625 c 0
 197.024414062 185.829101562 197.024414062 185.829101562 206.149414062 201.129882812 c 0
 207.102539062 202.424804688 270.678710938 288.551757812 308.162109375 325.46875 c 1
 308.826171875 246.0625 308.826171875 246.0625 308.826171875 243.020507812 c 0
 308.826171875 223.008789062 310.255859375 203.825195312 310.255859375 185.4765625 c 0
 310.255859375 161.842773438 307.717773438 143.618164062 307.717773438 138.026367188 c 0
 307.717773438 119.405273438 309.432617188 94.853515625 309.432617188 85.0888671875 c 0
 309.432617188 66.6796875 314.151367188 49.1962890625 325.576171875 33.86328125 c 0
 329.233398438 28.955078125 329.233398438 28.955078125 329.737304688 24.9619140625 c 0
 332.038085938 6.7421875 348.633789062 -2.65625 361.640625 -2.65625 c 0
 376.280273438 -2.65625 388.552734375 7.5576171875 391.715820312 21.2421875 c 1
 397.290039062 26.3203125 408.875976562 41.2158203125 403.950195312 74.595703125 c 0
 402.006835938 87.76171875 402.3828125 109.533203125 399 134 c 0
 395.536132812 159.055664062 395.536132812 164.571289062 395.536132812 203.0234375 c 0
 395.536132812 227.611328125 393.299804688 218.791015625 394.443359375 303.354492188 c 0
 394.469726562 305.333984375 394.497070312 307.31640625 394.5234375 309.302734375 c 0
 397.68359375 310.127929688 397.68359375 310.127929688 402.44140625 311.076171875 c 0
 403.745117188 309.87890625 478.891601562 240.077148438 513.171875 172.952148438 c 0
 543.754882812 113.075195312 548.283203125 72.9853515625 570.081054688 40.421875 c 0
 574.236328125 34.2158203125 574.236328125 34.2158203125 577.021484375 31.4169921875 c 0
 578.66796875 29.763671875 583.4375 24.8544921875 586.8515625 21.2744140625 c 0
 594.418945312 1.919921875 620.108398438 -5.9541015625 636.892578125 8.3544921875 c 1
 655.704101562 14.8974609375 662.137695312 33.279296875 662.137695312 47.1357421875 c 0
 662.137695312 70.587890625 651.311523438 95.8232421875 638.426757812 124.311523438 c 0
 624.979492188 154.04296875 601.532226562 205.883789062 541.241210938 269.018554688 c 0
 486.055664062 329.703125 486.055664062 329.703125 469.0546875 345.842773438 c 1
 485.286132812 356.712890625 498.759765625 367.225585938 512.634765625 379.180664062 c 0
 552.814453125 413.801757812 566.041015625 426.451171875 614.357421875 491.01171875 c 0
 615.243164062 492.1953125 649.86328125 540.72265625 650.234375 541.215820312 c 0
 659.31640625 553.254882812 659.31640625 553.254882812 672.26171875 574.700195312 c 0
 674.46875 578.357421875 678.166992188 584.483398438 688.287109375 604.479492188 c 1
 701.98828125 622.018554688 693.947265625 640.91015625 685.385742188 648.862304688 c 0
 653.3515625 678.60546875 640.342773438 693.2890625 639.880859375 693.731445312 c 0
 615.918945312 716.657226562 577.6015625 691.326171875 589.48828125 660.295898438 c 1
 587.254882812 653.099609375 589.869140625 656.879882812 586.541015625 646.23828125 c 0
 583.279296875 636.158203125 580.728515625 631.013671875 568.93359375 607.223632812 c 0
 568.83203125 607.018554688 560.9296875 590.3203125 558.944335938 586.641601562 c 0
 558.58984375 585.984375 536.186523438 547.509765625 519.15234375 523.430664062 c 0
 509.481445312 509.760742188 479.025390625 470.080078125 459.498046875 451.547851562 c 0
 459.201171875 451.266601562 442.466796875 436.501953125 427.668945312 425.928710938 c 0
 422.885742188 422.51171875 422.885742188 422.51171875 396.643554688 405.611328125 c 1
 397.33984375 412.923828125 398.497070312 432.799804688 401.350585938 455.96484375 c 0
 401.578125 457.809570312 418.748046875 611.892578125 417.350585938 641.138671875 c 0
 416.868164062 651.240234375 411.51953125 660.076171875 403.599609375 665.3515625 c 0
 399.3671875 668.170898438 394.991210938 671.233398438 390.41796875 674.438476562 c 0
 360.360351562 695.499023438 354.28515625 698.40625 344.4921875 698.40625 c 0
 343.109375 698.40625 315.5234375 698.017578125 312.737304688 667.091796875 c 0
 312.248046875 664.913085938 311.990234375 662.646484375 311.990234375 660.3203125 c 0
EndSplineSet
EndChar

StartChar: uni0417
Encoding: 1047 1047 10
Width: 583
Flags: HW
LayerCount: 2
Fore
SplineSet
347.275390625 326.732421875 m 0
 347.594726562 326.732421875 365.317382812 328.34765625 379.125976562 328.34765625 c 0
 395.3125 328.34765625 413.010742188 327.333984375 436.940429688 320.196289062 c 1
 445.173828125 313.205078125 439.912109375 320.329101562 448.19140625 310.703125 c 0
 454.171875 302.138671875 454.171875 302.138671875 455.65234375 298.700195312 c 0
 463.108398438 281.379882812 463.381835938 265.337890625 463.72265625 245.301757812 c 0
 463.465820312 235.92578125 461.62109375 207.650390625 448.96875 188.198242188 c 0
 445.466796875 182.815429688 418.541015625 151.125976562 407.004882812 142.432617188 c 0
 406.227539062 141.846679688 378.557617188 121.116210938 337.513671875 108.204101562 c 0
 315.54296875 101.291015625 263.028320312 89.560546875 234.88671875 92.9970703125 c 0
 219.11328125 94.923828125 194.323242188 104.248046875 192.416015625 105.7890625 c 0
 170.852539062 123.211914062 156.982421875 149.345703125 147.358398438 169.061523438 c 0
 136.76171875 190.76953125 133.938476562 195.904296875 122.005859375 210.854492188 c 0
 115.068359375 219.545898438 115.068359375 219.545898438 112.426757812 221.659179688 c 0
 105.5390625 227.168945312 100.04296875 231.067382812 96.0859375 233.716796875 c 0
 87.869140625 255.9921875 57.5966796875 263.448242188 40.6025390625 245.204101562 c 1
 15.4462890625 236.790039062 16.3974609375 206.350585938 18.1943359375 197.038085938 c 0
 23.205078125 171.063476562 57.3740234375 113.615234375 100.639648438 75.0185546875 c 0
 102.307617188 73.53125 102.307617188 73.53125 128 58 c 0
 166.134765625 34.94921875 224.928710938 -0.58984375 281.220703125 -0.58984375 c 0
 283.35546875 -0.58984375 401.416992188 0.390625 481.478515625 73.4052734375 c 0
 487.204101562 78.6279296875 491.625976562 83.630859375 495.342773438 87.7705078125 c 0
 530.411132812 126.827148438 549.422851562 172.569335938 552.532226562 225.095703125 c 0
 553.174804688 235.940429688 554.901367188 279.203125 544.129882812 310.036132812 c 0
 537.552734375 328.858398438 517.908203125 353.977539062 503.485351562 363.41015625 c 0
 488.602539062 373.141601562 474.111328125 381.923828125 458.173828125 389.114257812 c 1
 458.5546875 389.36328125 487.388671875 408.825195312 494.352539062 416.805664062 c 0
 495.32421875 417.919921875 496.580078125 419.274414062 498.084960938 420.888671875 c 0
 514.521484375 438.510742188 539.411132812 472.598632812 530.833984375 542.201171875 c 0
 530.774414062 542.678710938 527.479492188 568.124023438 517.180664062 588.330078125 c 0
 512.84375 596.83984375 498.44140625 621.209960938 464.994140625 646.727539062 c 0
 451.4609375 657.053710938 451.4609375 657.053710938 412.203125 679.727539062 c 0
 403.357421875 684.8359375 370.36328125 703.006835938 343.436523438 706.206054688 c 0
 318.243164062 709.198242188 317.28515625 709.146484375 303.17578125 708.379882812 c 0
 293.3984375 707.848632812 223.198242188 702.317382812 164.848632812 651.388671875 c 0
 148.849609375 637.426757812 138.721679688 623.765625 125.856445312 610.3125 c 0
 124.337890625 608.725585938 115.928710938 597.767578125 112.072265625 593.411132812 c 0
 101.826171875 581.836914062 100.986328125 579.284179688 96.53515625 565.743164062 c 0
 94.8740234375 560.690429688 91.0673828125 549.108398438 91.0673828125 537.637695312 c 0
 91.0673828125 524.201171875 99.26953125 512.6640625 110.936523438 507.765625 c 2
 155.666015625 488.985351562 l 2
 180.65234375 478.495117188 206.921875 501.908203125 199.252929688 527.995117188 c 1
 203.8515625 547.552734375 203.8515625 547.552734375 204.25 548.428710938 c 0
 209.484375 559.94921875 211.991210938 564.301757812 214.171875 567.461914062 c 0
 240.65625 605.833984375 295.262695312 628.766601562 333.35546875 628.766601562 c 0
 338.168945312 628.766601562 338.168945312 628.766601562 355.583984375 626.206054688 c 0
 367.931640625 623.5234375 383.153320312 616.942382812 388.32421875 613.333984375 c 0
 403.575195312 602.69140625 416.313476562 593.801757812 428.016601562 578.59765625 c 0
 437.561523438 566.196289062 437.561523438 566.196289062 442.661132812 544.030273438 c 0
 444.598632812 526.8046875 443.975585938 504.099609375 431.354492188 489.1484375 c 0
 429.481445312 486.928710938 423.484375 481.776367188 420.01953125 478.465820312 c 0
 403.694335938 463.798828125 382.9453125 450.500976562 356.6328125 437.03125 c 0
 345.981445312 431.579101562 326.62109375 421.224609375 320.090820312 414.857421875 c 2
 315.2890625 410.174804688 l 1
 285.952148438 406.506835938 276.48046875 367.970703125 301.20703125 351.215820312 c 2
 329.142578125 332.287109375 l 2
 334.317382812 328.78125 340.559570312 326.732421875 347.275390625 326.732421875 c 0
EndSplineSet
EndChar

StartChar: uni0418
Encoding: 1048 1048 11
Width: 612
Flags: HW
LayerCount: 2
Fore
SplineSet
459.922851562 658.452148438 m 0
 459.922851562 653.622070312 463.9296875 598.5546875 463.786132812 554.634765625 c 0
 463.732421875 538.096679688 463.732421875 538.096679688 465.977539062 491.780273438 c 0
 466.004882812 490.747070312 466.6875 407.299804688 467.416015625 388.419921875 c 0
 470.237304688 315.266601562 462.499023438 243.9921875 465.499023438 187.302734375 c 1
 455.4453125 181.833984375 450.213867188 177.260742188 444.534179688 171.967773438 c 0
 435.750976562 163.782226562 341.126953125 78.65625 213.072265625 86.96875 c 0
 209.458984375 87.3984375 192.806640625 89.4013671875 185.28515625 90.306640625 c 1
 168.885742188 116.416015625 138 190.391601562 138 376 c 0
 138 535.600585938 149.018554688 595.80078125 149.018554688 614.450195312 c 0
 149.018554688 619.515625 148.32421875 632.575195312 136.715820312 642.939453125 c 0
 87.0634765625 687.255859375 87.0634765625 687.255859375 81.4091796875 690.111328125 c 0
 54.3251953125 703.793945312 23.490234375 675.936523438 38.5146484375 645.934570312 c 1
 37.74609375 642.348632812 22.75 510.232421875 37.171875 279.192382812 c 0
 43.130859375 183.73828125 56.6513671875 144.822265625 66.16015625 118.0546875 c 0
 77.6572265625 85.6826171875 86.267578125 73.66796875 95.603515625 62.3125 c 0
 100.514648438 56.3388671875 100.514648438 56.3388671875 101.161132812 55.6875 c 0
 162.9765625 -6.6328125 217.280273438 -2.7158203125 244.2265625 -0.7724609375 c 0
 280.516601562 0.568359375 307.821289062 1.5771484375 356.173828125 13.91796875 c 0
 397.564453125 24.0712890625 431.936523438 44.7578125 463.196289062 63.2890625 c 1
 465.02734375 54.123046875 465.02734375 54.123046875 466.689453125 50.6796875 c 0
 476.141601562 31.087890625 476.141601562 31.087890625 479.833007812 25.0234375 c 0
 483.686523438 18.6904296875 483.686523438 18.6904296875 487.127929688 10.013671875 c 0
 497.505859375 -16.1513671875 536.129882812 -18.2958984375 547.456054688 8.8369140625 c 1
 564.740234375 20.9912109375 567.122070312 33.3388671875 569.010742188 43.126953125 c 0
 571.59765625 56.5302734375 571.494140625 58.1279296875 570.204101562 78.009765625 c 0
 567.033203125 126.8359375 558.178710938 144.637695312 555.48046875 167.30859375 c 0
 548.247070312 228.038085938 549.90234375 339.36328125 550.87890625 355.26953125 c 0
 550.953125 356.465820312 554.28125 383.732421875 561.091796875 474.73046875 c 0
 565.423828125 518.677734375 565.423828125 518.677734375 565.749023438 536.65625 c 0
 566.178710938 560.428710938 567.795898438 599.303710938 573.40625 627.624023438 c 0
 574.236328125 631.818359375 575.666992188 644.591796875 565.454101562 655.530273438 c 0
 561.307617188 661.801757812 554.3984375 665.790039062 549.594726562 667.544921875 c 0
 510.993164062 695.200195312 505.064453125 699.434570312 492.1875 698.734375 c 0
 490.2421875 698.623046875 464.90234375 696.6328125 461.546875 668.505859375 c 0
 460.493164062 665.345703125 459.922851562 661.96484375 459.922851562 658.452148438 c 0
EndSplineSet
EndChar

StartChar: uni0419
Encoding: 1049 1049 12
Width: 604
Flags: HW
LayerCount: 2
Fore
SplineSet
454.952148438 654.506835938 m 0
 454.952148438 653.405273438 458.801757812 599.646484375 458.801757812 544.384765625 c 0
 458.801757812 533.322265625 458.801757812 533.322265625 461.006835938 487.8359375 c 0
 461.034179688 486.802734375 461.716796875 403.35546875 462.4453125 384.4765625 c 0
 465.266601562 311.318359375 457.528320312 240.049804688 460.528320312 183.359375 c 1
 450.489257812 177.899414062 445.249023438 173.323242188 439.561523438 168.021484375 c 0
 430.795898438 159.8515625 336.166992188 74.7099609375 208.08984375 83.025390625 c 0
 204.596679688 83.435546875 187.856445312 85.451171875 180.315429688 86.3603515625 c 1
 163.915039062 112.47265625 133.029296875 186.448242188 133.029296875 372.055664062 c 0
 133.029296875 531.655273438 144.047851562 591.856445312 144.047851562 610.506835938 c 0
 144.047851562 615.571289062 143.358398438 628.629882812 131.745117188 638.995117188 c 0
 82.091796875 683.311523438 82.091796875 683.311523438 76.4384765625 686.16796875 c 0
 49.35546875 699.850585938 18.51953125 671.993164062 33.5439453125 641.990234375 c 1
 32.775390625 638.404296875 17.779296875 506.28125 32.201171875 275.25 c 0
 38.16015625 179.79296875 51.6806640625 140.87890625 61.189453125 114.109375 c 0
 72.685546875 81.7412109375 81.298828125 69.72265625 90.626953125 58.375 c 0
 95.544921875 52.3935546875 95.544921875 52.3935546875 96.19140625 51.7421875 c 0
 157.994140625 -10.5625 212.270507812 -6.658203125 239.252929688 -4.716796875 c 0
 275.616210938 -3.3720703125 302.818359375 -2.3662109375 351.201171875 9.97265625 c 0
 392.592773438 20.126953125 426.965820312 40.814453125 458.225585938 59.3447265625 c 1
 460.056640625 50.1787109375 460.056640625 50.1787109375 461.71875 46.734375 c 0
 471.171875 27.142578125 471.171875 27.142578125 474.862304688 21.078125 c 0
 478.717773438 14.7421875 478.717773438 14.7421875 482.15625 6.072265625 c 0
 492.53125 -20.095703125 531.159179688 -22.2421875 542.485351562 4.892578125 c 1
 559.76953125 17.0478515625 562.151367188 29.3935546875 564.040039062 39.181640625 c 0
 566.626953125 52.5869140625 566.5234375 54.1875 565.233398438 74.0654296875 c 0
 562.05859375 122.951171875 553.219726562 140.598632812 550.509765625 163.36328125 c 0
 543.274414062 224.11328125 544.932617188 335.436523438 545.908203125 351.32421875 c 0
 545.982421875 352.521484375 549.311523438 379.795898438 556.12109375 470.78515625 c 0
 560.453125 514.737304688 560.453125 514.737304688 560.778320312 532.7109375 c 0
 561.208007812 556.485351562 562.825195312 595.360351562 568.435546875 623.678710938 c 0
 569.267578125 627.879882812 570.688476562 640.618164062 560.520507812 651.546875 c 0
 556.216796875 658.120117188 548.96484375 662.014648438 544.625 663.599609375 c 0
 506.118164062 691.189453125 500.096679688 695.490234375 487.259765625 694.791992188 c 0
 485.34765625 694.685546875 459.936523438 692.734375 456.576171875 664.560546875 c 0
 455.522460938 661.400390625 454.952148438 658.01953125 454.952148438 654.506835938 c 0
289 731 m 4
 313.34375 726.90625 333.447265625 727.260742188 353.840820312 730.528320312 c 4
 365.763671875 732.438476562 405.313476562 741.795898438 422.885742188 751.502929688 c 4
 443.204101562 762.729492188 446.208007812 777.1328125 446.208007812 786.658203125 c 4
 446.208007812 796.262695312 442.3515625 807.375 430.08203125 818.431640625 c 4
 424.639648438 825.975585938 420.291015625 827.953125 404.512695312 835.125976562 c 4
 376.91015625 847.674804688 363.220703125 841.064453125 344.283203125 831.920898438 c 4
 325.80078125 822.998046875 325.80078125 822.998046875 325.717773438 822.965820312 c 4
 294.685546875 810.954101562 290.8828125 811.266601562 273.130859375 812.727539062 c 4
 238.819335938 817.327148438 229.303710938 820.122070312 215.250976562 825.233398438 c 4
 212.5546875 827.116210938 212.5546875 827.116210938 183 839.741210938 c 4
 162.163085938 848.642578125 138.7109375 833.30859375 138.7109375 810.469726562 c 4
 138.7109375 801.311523438 142.58984375 793.05078125 148.791992188 787.244140625 c 4
 191.329101562 747.421875 252.256835938 737.177734375 289 731 c 4
EndSplineSet
EndChar

StartChar: uni041A
Encoding: 1050 1050 13
Width: 583
Flags: HW
LayerCount: 2
Fore
SplineSet
122.919921875 619.030273438 m 0
 122.919921875 637.50390625 124.182617188 653.725585938 124.182617188 654.076171875 c 0
 124.182617188 666.455078125 117.099609375 677.193359375 106.768554688 682.455078125 c 2
 73.5927734375 699.3515625 l 2
 53.37890625 709.646484375 29.025390625 695.872070312 27.43359375 673.232421875 c 0
 26.2919921875 656.989257812 26.7978515625 652.631835938 31.1669921875 614.947265625 c 0
 31.376953125 613.133789062 42.4169921875 514.775390625 45.744140625 432.9921875 c 0
 45.8056640625 431.4921875 48.9931640625 292.842773438 48.9931640625 282.825195312 c 0
 48.9931640625 194.901367188 41.4443359375 111.383789062 41.4443359375 90.2216796875 c 0
 41.4443359375 80.779296875 42.16015625 74.52734375 43.5673828125 64.029296875 c 0
 46.2373046875 44.1083984375 46.98828125 40.4814453125 58.890625 25.310546875 c 1
 63.6669921875 14.2197265625 67.11328125 9.8525390625 77.0205078125 4.9599609375 c 0
 78.568359375 4.1953125 97.4736328125 -4.6591796875 113.266601562 10.7021484375 c 0
 115.844726562 11.8935546875 123.744140625 15.6630859375 129.498046875 24.2607421875 c 0
 136.025390625 34.015625 136.174804688 38.4619140625 136.571289062 50.2861328125 c 0
 137.583007812 59.056640625 138.150390625 64.96875 138.150390625 73.328125 c 0
 138.150390625 78.294921875 137.177734375 105.556640625 137.177734375 121.337890625 c 0
 137.177734375 182.450195312 140.076171875 203.401367188 137.77734375 281.001953125 c 1
 147.915039062 290.301757812 148.130859375 289.034179688 154.3359375 295.752929688 c 0
 156.98828125 298.625976562 156.98828125 298.625976562 164.633789062 309.288085938 c 0
 164.81640625 309.216796875 177.069335938 302.26171875 181.747070312 299.81640625 c 0
 183.041015625 299.139648438 224.010742188 276.573242188 300 214 c 0
 364.495117188 160.890625 399.932617188 120.8671875 429.1796875 79.09765625 c 0
 429.34375 78.86328125 443.208984375 57.744140625 445.145507812 55.3291015625 c 0
 455.41015625 42.5234375 470.2734375 29.87109375 490.807617188 14.4658203125 c 0
 501.732421875 6.26953125 516.966796875 -5.16015625 537.327148438 8.2724609375 c 0
 537.892578125 8.6455078125 575.303710938 34.63671875 551.885742188 74.3779296875 c 0
 547.461914062 81.884765625 542.854492188 86.88671875 539.998046875 90.181640625 c 0
 539.602539062 90.63671875 520.375 114.584960938 500.666015625 135.8125 c 0
 444.754882812 196.03515625 384.46484375 247.954101562 314.826171875 298.3515625 c 0
 261.264648438 337.112304688 235.381835938 351.569335938 204.508789062 365.559570312 c 1
 225.52734375 394.610351562 231.104492188 401.916015625 283.640625 458.91796875 c 0
 310.674804688 485.915039062 310.674804688 485.915039062 325.65625 498.454101562 c 0
 335.685546875 506.848632812 351.706054688 520.2578125 401.299804688 554.59765625 c 0
 402.212890625 555.229492188 453.19921875 592.913085938 469.274414062 603.739257812 c 0
 478.594726562 610.015625 496.677734375 622.193359375 496.677734375 642.52734375 c 0
 496.677734375 654.217773438 490.360351562 664.4453125 480.956054688 669.978515625 c 2
 437.798828125 695.370117188 l 2
 415.920898438 708.2421875 398.598632812 690.607421875 391.729492188 683.615234375 c 0
 378.666015625 670.31640625 361.802734375 656.310546875 339.733398438 638.249023438 c 0
 327.411132812 628.165039062 324.46875 625.560546875 314.1640625 616.364257812 c 0
 295.451171875 599.665039062 264.499023438 574.79296875 209.013671875 522.608398438 c 0
 192.05859375 506.662109375 164.067382812 472.796875 132.10546875 433.461914062 c 1
 129.927734375 535.833984375 122.919921875 559.197265625 122.919921875 619.030273438 c 0
EndSplineSet
EndChar

StartChar: uni041B
Encoding: 1051 1051 14
Width: 639
Flags: HW
LayerCount: 2
Fore
SplineSet
330.940429688 555.155273438 m 1
 377.458007812 449.92578125 377.458007812 449.92578125 452.158203125 254.331054688 c 0
 467.90234375 213.107421875 476.901367188 185.477539062 482.474609375 163.560546875 c 0
 491.435546875 128.317382812 505.493164062 88.853515625 509.114257812 77.0703125 c 0
 511.72265625 68.5791015625 519.278320312 43.9912109375 555.161132812 15.251953125 c 0
 571.202148438 2.404296875 578.5078125 3.0615234375 589.913085938 5.6591796875 c 0
 618.791992188 12.2353515625 628.736328125 39.0009765625 625.778320312 58.4423828125 c 0
 624.354492188 67.80078125 621.1875 73.9072265625 619.666992188 77.2734375 c 0
 619.119140625 78.48828125 607.23046875 109.040039062 568.5 200.39453125 c 0
 500.506835938 360.775390625 479.495117188 413.284179688 438.067382812 519.703125 c 0
 427.36328125 547.201171875 424.329101562 554.325195312 412.760742188 580.866210938 c 0
 403.948242188 601.083984375 395.453125 620.635742188 388.551757812 640.067382812 c 0
 387.278320312 643.651367188 385.375976562 646.938476562 382.977539062 649.794921875 c 0
 380.08203125 662.049804688 372.14453125 667.303710938 365.291015625 671.83984375 c 0
 346.368164062 688.740234375 335.581054688 692.979492188 324.69140625 692.979492188 c 0
 318.513671875 692.979492188 308.298828125 690.592773438 300.70703125 682.854492188 c 0
 298.21484375 680.8125 292.01953125 675.736328125 289.258789062 663.54296875 c 0
 268.458984375 624.938476562 268.458984375 624.938476562 245.283203125 577.145507812 c 0
 220.573242188 526.189453125 193.168945312 471.856445312 150.5234375 393.715820312 c 0
 124.731445312 346.45703125 124.731445312 346.45703125 111.747070312 320.374023438 c 0
 85.6962890625 268.043945312 76.3505859375 249.271484375 58.1787109375 201.741210938 c 0
 42.2353515625 160.040039062 42.0390625 159.658203125 36.998046875 149.857421875 c 0
 28.8359375 133.990234375 27.791015625 131.95703125 18.73828125 89.375 c 0
 16.1455078125 81.6279296875 13.388671875 73.392578125 16.6650390625 61.4345703125 c 0
 21.1728515625 44.9853515625 29.1982421875 36.865234375 40.5068359375 25.4228515625 c 1
 45.0693359375 6.6533203125 65.662109375 -3.6640625 82.916015625 2.3623046875 c 1
 122.9609375 0.78515625 139.631835938 16.9462890625 140.93359375 43.51953125 c 0
 141.41015625 53.2275390625 145.185546875 72.73828125 146.083984375 80.021484375 c 0
 147.162109375 88.775390625 147.322265625 90.09765625 149.512695312 123.337890625 c 0
 149.692382812 124.686523438 165.854492188 214.243164062 180 256 c 0
 188.551757812 281.250976562 210.841796875 327.319335938 211.185546875 328.025390625 c 0
 241.435546875 390.205078125 282.483398438 460.737304688 285.15625 465.947265625 c 0
 330.309570312 553.966796875 330.309570312 553.966796875 330.940429688 555.155273438 c 1
373.356445312 664.352539062 m 1
 373.356445312 664.352539062 373.359375 664.349609375 373.356445312 664.352539062 c 1
EndSplineSet
EndChar

StartChar: uni041C
Encoding: 1052 1052 15
Width: 685
Flags: HW
LayerCount: 2
Fore
SplineSet
650.194335938 42.3544921875 m 0
 652.258789062 50.7568359375 652.258789062 50.7568359375 652.258789062 73.2265625 c 0
 652.258789062 86.421875 644.458984375 203.07421875 632.444335938 279.688476562 c 0
 619.903320312 359.657226562 619.560546875 361.467773438 614.418945312 388.555664062 c 0
 614.133789062 390.0546875 600.219726562 463.568359375 588.706054688 538.962890625 c 0
 588.497070312 540.19921875 568.205078125 661.149414062 567.884765625 662.537109375 c 0
 565.642578125 672.272460938 562.041015625 687.489257812 532.567382812 696.780273438 c 1
 515.146484375 704.510742188 509.8984375 706.83984375 498.590820312 703.124023438 c 0
 477.875976562 700.223632812 468.6171875 679.869140625 472.53125 664.666015625 c 0
 471.978515625 662.3828125 441.892578125 567.416015625 428.990234375 530.694335938 c 0
 406.822265625 467.602539062 386.877929688 404.071289062 367.032226562 340.873046875 c 0
 341.961914062 261.0390625 341.961914062 261.0390625 336.942382812 243.650390625 c 1
 329.166015625 267.084960938 329.166015625 267.084960938 314.791992188 307.026367188 c 0
 286.793945312 384.823242188 259.092773438 461.796875 241.72265625 556.3203125 c 0
 238.141601562 575.806640625 235.192382812 594.111328125 235.192382812 610.740234375 c 0
 235.192382812 614.014648438 235.418945312 619.469726562 235.418945312 619.55859375 c 0
 235.418945312 640.6484375 217.909179688 647.522460938 212.231445312 649.750976562 c 1
 215.041992188 669.532226562 198.989257812 685.513671875 180.170898438 685.513671875 c 0
 166.348632812 685.513671875 154.631835938 676.42578125 150.673828125 663.904296875 c 0
 147.715820312 654.545898438 147.715820312 654.545898438 146.255859375 652.577148438 c 0
 118.0703125 614.577148438 115.258789062 607.322265625 101.971679688 565.083007812 c 0
 83.84375 507.446289062 73.2587890625 455.400390625 61.2685546875 391.326171875 c 0
 48.7265625 324.303710938 40.9755859375 265.40234375 31.3681640625 134.506835938 c 0
 27.3740234375 80.1015625 31.9892578125 78.4970703125 31.9892578125 35.779296875 c 0
 31.9892578125 21.65234375 41.48046875 9.7255859375 54.4287109375 6.0322265625 c 0
 88.837890625 -3.7822265625 88.837890625 -3.7822265625 93.1845703125 -3.7822265625 c 0
 110.803710938 -3.7822265625 124.940429688 10.966796875 124.075195312 28.677734375 c 0
 122.5234375 60.4208984375 120.817382812 43.1376953125 118.455078125 125.389648438 c 0
 118.541992188 172.870117188 121.479492188 197.204101562 133.844726562 299.616210938 c 0
 137.556640625 330.354492188 137.556640625 330.354492188 148.021484375 391.221679688 c 0
 163.569335938 458.747070312 163.569335938 458.747070312 172.265625 487.66796875 c 1
 185.518554688 438.216796875 185.518554688 438.216796875 215.805664062 348.206054688 c 0
 241.819335938 270.89453125 244.220703125 263.7578125 259.635742188 212.28125 c 0
 287.393554688 119.588867188 293.393554688 105.234375 293.692382812 104.140625 c 0
 284.426757812 87.0927734375 281.474609375 50.1796875 322.275390625 44.50390625 c 1
 331.755859375 36.9423828125 338.193359375 34.3505859375 347.815429688 34.3505859375 c 0
 351.947265625 34.3505859375 371.331054688 35.5654296875 380.0703125 57.802734375 c 0
 381.791015625 60.4306640625 384.211914062 64.2119140625 385.33984375 72.1640625 c 0
 388.856445312 81.037109375 388.956054688 87.8720703125 388.956054688 91.53125 c 0
 417.354492188 218.681640625 417.354492188 218.681640625 423 242 c 0
 444.248046875 329.345703125 475.653320312 414.627929688 507.537109375 500.715820312 c 0
 507.9453125 501.765625 507.9453125 501.765625 512.608398438 513.784179688 c 1
 529.8828125 422.870117188 534.509765625 391.116210938 538.44921875 274.326171875 c 0
 542.686523438 148.756835938 543.651367188 90.3486328125 543.727539062 88.4912109375 c 0
 544.153320312 78.2021484375 544.255859375 62.2890625 552.653320312 45.193359375 c 0
 557.625976562 35.068359375 560.900390625 29.07421875 565.135742188 23.5341796875 c 0
 569.134765625 0.4580078125 597.547851562 -10.8544921875 616.16015625 3.919921875 c 0
 621.953125 6.494140625 628.654296875 11.2548828125 636.373046875 18.2177734375 c 0
 645.53125 26.478515625 648.578125 35.775390625 650.194335938 42.3544921875 c 0
EndSplineSet
EndChar

StartChar: uni041D
Encoding: 1053 1053 16
Width: 583
Flags: HW
LayerCount: 2
Fore
SplineSet
445.399414062 463.768554688 m 2
 446.03515625 453.46875 447.915039062 441.721679688 448.598632812 424.71875 c 1
 419.454101562 420.962890625 223.03515625 387.755859375 204.736328125 383.70703125 c 0
 188.181640625 380.043945312 180.005859375 378.23828125 139.311523438 370.002929688 c 1
 140.265625 422.301757812 140.265625 422.301757812 141.733398438 434.119140625 c 0
 143.314453125 446.848632812 143.688476562 450.682617188 144.137695312 466.28125 c 0
 144.797851562 489.197265625 147.015625 506.65625 147.028320312 507.064453125 c 0
 148.51171875 554.646484375 148.544921875 555.693359375 147.7265625 582.67578125 c 0
 147.712890625 583.129882812 146.98828125 623.654296875 146.615234375 628.067382812 c 0
 145.163085938 645.213867188 138.811523438 654.508789062 128.505859375 659.729492188 c 2
 74.642578125 687.013671875 l 2
 52.3203125 698.321289062 26.1005859375 679.79296875 29.5810546875 654.766601562 c 0
 32.5595703125 633.349609375 34.3349609375 611.251953125 36.1416015625 588.529296875 c 0
 40.669921875 531.588867188 45.4052734375 497.436523438 45.4931640625 496.515625 c 0
 45.537109375 496.059570312 46.9052734375 471.1796875 49.5791015625 450.80859375 c 0
 52.0693359375 431.841796875 52.0830078125 431.734375 52.4501953125 376.624023438 c 0
 52.6572265625 345.666015625 52.6572265625 345.666015625 51.2626953125 312.432617188 c 0
 49.3642578125 267.168945312 49.564453125 261.124023438 50.4990234375 232.963867188 c 0
 50.05859375 214.764648438 50.05859375 214.764648438 48.6962890625 207.869140625 c 0
 46.5712890625 197.120117188 46.171875 193.458984375 45.4443359375 180.229492188 c 0
 43.5625 146.013671875 36.591796875 102.33984375 36.591796875 84.80078125 c 0
 36.591796875 68.7041015625 40.150390625 47.2490234375 54.7900390625 27.099609375 c 1
 60.3388671875 4.1669921875 89.8818359375 -5.873046875 107.850585938 10.91015625 c 1
 141.8828125 24.9228515625 143.287109375 56.5595703125 143.994140625 72.482421875 c 0
 144.001953125 72.646484375 144.555664062 80.7783203125 144.950195312 88.896484375 c 0
 145.721679688 104.770507812 146.530273438 121.146484375 146.530273438 138.075195312 c 0
 146.530273438 211.465820312 137.49609375 167.536132812 137.008789062 279.328125 c 1
 179.356445312 296.916015625 223.883789062 306.45703125 278 318 c 0
 333.475585938 328.685546875 389.638671875 335.580078125 446.223632812 340.390625 c 1
 437.134765625 233.80078125 438.942382812 166.734375 443.102539062 93.3251953125 c 0
 445.819335938 45.3876953125 449.708007812 38.5341796875 459.892578125 24.486328125 c 0
 461.678710938 22.0224609375 461.678710938 22.0224609375 465.704101562 13.9541015625 c 0
 477.811523438 -10.314453125 514.693359375 -10.1201171875 524.446289062 16.4853515625 c 1
 536.118164062 27.3193359375 536.118164062 36.568359375 536.118164062 53.564453125 c 0
 536.118164062 71.9384765625 529.392578125 126.939453125 529.392578125 189.405273438 c 0
 529.392578125 253.922851562 535.64453125 320.03125 535.64453125 393.83984375 c 0
 535.64453125 428.586914062 537.09375 451.208007812 537.09375 451.787109375 c 0
 537.09375 471.954101562 533.05078125 532.0390625 533.05078125 578.88671875 c 0
 533.05078125 597.157226562 534.223632812 616.603515625 533.205078125 636.731445312 c 0
 532.616210938 648.3984375 530.767578125 664.663085938 513.913085938 672.296875 c 2
 475.38671875 689.748046875 l 2
 452.455078125 700.135742188 426.998046875 680.198242188 431.818359375 655.288085938 c 0
 434.0859375 643.568359375 435.357421875 635.598632812 441.3984375 528.577148438 c 1
 441.388671875 528.744140625 445.399414062 463.768554688 445.399414062 463.768554688 c 2
70.0341796875 13.4404296875 m 1
 70.0341796875 13.4404296875 69.2197265625 13.876953125 69.1708984375 13.955078125 c 1
 69.5009765625 13.75 69.7919921875 13.576171875 70.0341796875 13.4404296875 c 1
EndSplineSet
EndChar

StartChar: uni041E
Encoding: 1054 1054 17
Width: 616
Flags: HW
LayerCount: 2
Fore
SplineSet
276.649414062 687.4453125 m 0
 242.9140625 678.501953125 215.224609375 665.462890625 189.263671875 647.907226562 c 0
 170.450195312 635.154296875 155.569335938 620.393554688 142.077148438 607.180664062 c 0
 126.036132812 592.646484375 118.461914062 581.926757812 97.9326171875 552.872070312 c 0
 75.0654296875 521.46484375 46.7734375 468.810546875 33.9501953125 434.565429688 c 0
 23.13671875 405.685546875 16.248046875 366.013671875 23.32421875 286.4375 c 0
 24.2802734375 275.676757812 29.955078125 221.826171875 52.1484375 164.921875 c 0
 52.41796875 164.229492188 52.7109375 163.547851562 53.0263671875 162.879882812 c 0
 58.3056640625 151.68359375 62.4140625 138.533203125 66.7080078125 123.838867188 c 0
 66.8330078125 123.408203125 75.015625 97.9794921875 85.8369140625 83.314453125 c 0
 91.560546875 75.5576171875 91.78125 75.2587890625 109.57421875 59.068359375 c 0
 124.704101562 44.6982421875 140.661132812 35.9462890625 154.05859375 28.333984375 c 0
 189.615234375 8.1298828125 226.732421875 -7.9130859375 287.690429688 2.9951171875 c 0
 293.936523438 4.11328125 293.936523438 4.11328125 336.216796875 16.3779296875 c 0
 349.372070312 20.28125 356.083007812 23.09765625 379.802734375 33.0517578125 c 0
 390.272460938 37.044921875 432.057617188 54.5517578125 474 94 c 0
 509.060546875 126.514648438 536.790039062 177.643554688 544.9765625 194.90625 c 0
 561.263671875 229.254882812 563.958007812 234.9375 565.484375 239.640625 c 0
 565.733398438 240.407226562 579.571289062 286.717773438 581.013671875 318.697265625 c 0
 582.451171875 350.541015625 582.353515625 351.4609375 577.466796875 397.653320312 c 0
 575.16796875 419.926757812 573.780273438 433.368164062 565.389648438 463.458984375 c 0
 557.767578125 490.791992188 558.393554688 495.208984375 548.83984375 525.758789062 c 0
 548.702148438 526.243164062 539.206054688 558.229492188 530.786132812 572.798828125 c 0
 529.518554688 574.991210938 528.190429688 577.387695312 526.765625 579.959960938 c 0
 504.329101562 620.485351562 485.892578125 635.373046875 446.431640625 657.572265625 c 0
 427.629882812 668.149414062 422.973632812 670.76953125 390.036132812 680.044921875 c 0
 337.50390625 697.1015625 277.748046875 687.736328125 276.649414062 687.4453125 c 0
315.354492188 605.133789062 m 0
 357.083007812 609.228515625 376.83984375 603.655273438 396.190429688 598.197265625 c 0
 404.91796875 595.735351562 412.71484375 593.4140625 419.47265625 590.828125 c 0
 431.384765625 579.784179688 435.255859375 572.930664062 445.77734375 554.298828125 c 0
 447.266601562 551.322265625 461.587890625 522.009765625 469.822265625 479.259765625 c 0
 473.950195312 457.827148438 477.505859375 458.130859375 485.6640625 403.959960938 c 0
 485.762695312 403.029296875 491.758789062 343.345703125 484.404296875 310.345703125 c 0
 484.287109375 309.817382812 484.181640625 309.283203125 484.08984375 308.745117188 c 0
 478.67578125 276.98046875 472.049804688 257.849609375 450.59765625 223.348632812 c 0
 447.583984375 218.5 444.375 213.353515625 441.153320312 207.755859375 c 0
 427.28125 183.682617188 408.681640625 156.387695312 357.219726562 124.068359375 c 0
 348.264648438 119.01171875 308.83203125 100.447265625 293.290039062 95.755859375 c 0
 248.890625 82.19921875 234.559570312 82.14453125 220.313476562 83.5654296875 c 0
 219.920898438 83.6044921875 191.321289062 86.8037109375 182.493164062 94.853515625 c 0
 168.689453125 107.439453125 168.689453125 107.439453125 166.049804688 110.44140625 c 0
 153.701171875 126.62890625 151.455078125 150.263671875 137.771484375 178.44921875 c 0
 134.631835938 185.247070312 106.50390625 248.385742188 106.50390625 329.504882812 c 0
 106.50390625 330.225585938 106.891601562 373.553710938 116.09375 400.89453125 c 0
 121.09375 415.751953125 137.830078125 460.826171875 169.717773438 504.65234375 c 0
 181.883789062 521.372070312 190.822265625 533.657226562 208.5703125 551.240234375 c 0
 217.025390625 559.6171875 222.973632812 565.509765625 245.513671875 581.211914062 c 0
 256.537109375 588.735351562 267.799804688 596.422851562 290.116210938 603.548828125 c 0
 295.504882812 603.573242188 299.634765625 603.590820312 315.354492188 605.133789062 c 0
EndSplineSet
EndChar

StartChar: uni041F
Encoding: 1055 1055 18
Width: 588
Flags: HW
LayerCount: 2
Fore
SplineSet
451.333007812 131.591796875 m 0
 451.147460938 126.703125 448.840820312 82.9404296875 448.840820312 74.94921875 c 0
 448.840820312 70.248046875 448.840820312 65.2861328125 452.59375 53.9638671875 c 0
 455.86328125 44.099609375 452.786132812 49.2177734375 458.186523438 35.8017578125 c 0
 462.159179688 25.93359375 464.913085938 21.9345703125 473.52734375 13.4892578125 c 0
 477.059570312 10.0263671875 479.391601562 7.806640625 482.208984375 5.6171875 c 0
 484.05078125 3.5654296875 494.073242188 -6.6826171875 509.563476562 -5.5771484375 c 1
 525.662109375 -9.849609375 549.9140625 -3.2060546875 557.939453125 23.80859375 c 0
 558.817382812 26.7626953125 558.83984375 26.837890625 559.181640625 27.6328125 c 0
 564.94140625 41.009765625 564.94140625 41.009765625 557.65625 112.29296875 c 0
 557.0703125 121.490234375 547.864257812 255.922851562 547.770507812 257.374023438 c 0
 543.9921875 320.965820312 541.0625 364.796875 534.381835938 417.44921875 c 0
 526.525390625 479.366210938 525.327148438 490.833984375 529.0234375 539.352539062 c 0
 529.047851562 539.674804688 529.067382812 539.999023438 529.08203125 540.32421875 c 0
 529.954101562 559.366210938 531.134765625 577.296875 534.03125 594.0546875 c 1
 551.5078125 596.80078125 566.202148438 609.501953125 566.202148438 631.135742188 c 0
 566.202148438 651.131835938 555.350585938 662.755859375 547.755859375 670.892578125 c 0
 540.215820312 678.96875 509.630859375 701.434570312 484.473632812 701.434570312 c 0
 480.254882812 701.434570312 480.254882812 701.434570312 465.60546875 698.987304688 c 0
 458.2734375 700.052734375 386.79296875 695.913085938 355.537109375 680.395507812 c 1
 326.060546875 675.250976562 180.149414062 671.577148438 178.375 671.577148438 c 0
 177.247070312 671.577148438 97.046875 670.169921875 65.666015625 666.430664062 c 0
 55.6455078125 665.236328125 47.046875 663.208984375 40.69921875 662.09765625 c 0
 23 659 15.25390625 614.012695312 22.8916015625 606.993164062 c 2
 50.5693359375 581.555664062 l 1
 58.0263671875 535.045898438 59.7685546875 513.081054688 56.55078125 394.391601562 c 0
 56.521484375 393.307617188 54.630859375 296.655273438 54 286 c 0
 51.171875 238.186523438 46.447265625 212.732421875 46.4150390625 211.989257812 c 0
 45.4794921875 190.133789062 37.5888671875 186.99609375 37.2607421875 140.848632812 c 0
 36.912109375 91.68359375 37.1982421875 84.37109375 43.345703125 62.4599609375 c 0
 46.87890625 49.8681640625 47.005859375 49.4150390625 50.4853515625 44.7939453125 c 0
 55.310546875 38.3876953125 59.4033203125 33.5244140625 62.5107421875 30.0185546875 c 0
 61.580078125 -6.09375 108.2734375 -16.6494140625 123.788085938 12.3603515625 c 1
 139.197265625 16.49609375 143.444335938 27.3193359375 147.157226562 36.7783203125 c 0
 152.928710938 51.4873046875 152.928710938 51.4873046875 153.987304688 79.6484375 c 0
 154.275390625 87.3056640625 155.04296875 122.74609375 154.188476562 135.7109375 c 0
 152.862304688 155.846679688 148.553710938 174.65234375 148.4765625 190.518554688 c 0
 148.46875 192.155273438 138.213867188 280.245117188 139.58203125 353.970703125 c 0
 140.245117188 389.759765625 140.84765625 419.8203125 142.469726562 444.708984375 c 0
 143.939453125 467.250976562 145.481445312 545.081054688 146.864257812 558.14453125 c 0
 147.939453125 568.297851562 148.088867188 572.047851562 147.966796875 582.3671875 c 1
 158.798828125 585.033203125 158.798828125 585.033203125 187.787109375 589.171875 c 0
 194.134765625 590.077148438 201.609375 591.505859375 206.76171875 592.067382812 c 0
 207.420898438 592.139648438 237.229492188 594.856445312 272.991210938 596.036132812 c 0
 274.090820312 596.051757812 368.241210938 598.190429688 382.954101562 598.309570312 c 0
 400.071289062 595.176757812 416.23046875 594.61328125 431.043945312 594.352539062 c 1
 429.500976562 557.302734375 433.422851562 529.4921875 438.940429688 496.734375 c 0
 440.454101562 487.74609375 446.307617188 436.568359375 446.384765625 435.9609375 c 0
 446.387695312 431.1015625 451.518554688 408.44921875 451.518554688 359.948242188 c 0
 451.518554688 358.990234375 450.651367188 273.921875 450.614257812 264.13671875 c 0
 450.54296875 245.310546875 450.184570312 217.784179688 450.184570312 217.31640625 c 0
 450.184570312 198.083007812 451.323242188 132.44921875 451.333007812 131.591796875 c 0
EndSplineSet
EndChar

StartChar: uni0420
Encoding: 1056 1056 19
Width: 478
Flags: HW
LayerCount: 2
Fore
SplineSet
130.341796875 614.61328125 m 1
 154.595703125 619.861328125 190.275390625 624.618164062 232.6015625 621.180664062 c 0
 252.61328125 619.555664062 262.447265625 618.583007812 276.373046875 614.043945312 c 0
 296.123046875 602.081054688 312.41015625 592.21484375 337.317382812 569.40234375 c 0
 361.358398438 546.319335938 375.890625 527.515625 352.875976562 474.1484375 c 0
 342.545898438 450.1953125 338.096679688 446.81640625 300.672851562 418.400390625 c 0
 300.3984375 418.19921875 279.080078125 402.086914062 273.307617188 398.063476562 c 0
 228.500976562 366.84375 196.768554688 355.420898438 161.157226562 342.602539062 c 0
 160.271484375 342.284179688 150.537109375 338.009765625 148.671875 337.21484375 c 1
 148.60546875 337.854492188 139.590820312 395.939453125 139.038085938 400.764648438 c 0
 138.297851562 407.243164062 136.221679688 439.03125 135.883789062 489.70703125 c 0
 135.654296875 524.130859375 135.4296875 547.231445312 130.078125 580.432617188 c 0
 128.462890625 590.454101562 132.776367188 586.438476562 130.341796875 614.61328125 c 1
141.849609375 0.10546875 m 0
 158.716796875 -1.58984375 186.734375 14.369140625 186.734375 41.974609375 c 0
 186.734375 53.3681640625 177.380859375 83.693359375 174.827148438 102.096679688 c 0
 174.749023438 102.661132812 167.505859375 142.403320312 162.758789062 157.778320312 c 0
 159.015625 169.90234375 158.9140625 172.243164062 156.611328125 225.12109375 c 0
 156.295898438 231.948242188 155.955078125 238.779296875 155.584960938 245.61328125 c 1
 165.931640625 248.650390625 181.186523438 257.444335938 209.032226562 267.6328125 c 0
 209.338867188 267.74609375 223.904296875 273.702148438 239.651367188 279.237304688 c 0
 259.963867188 286.377929688 259.963867188 286.377929688 300.024414062 307.78125 c 0
 329.80078125 323.688476562 332.73046875 325.25390625 391.884765625 374.15625 c 0
 418.337890625 396.014648438 424.977539062 404.771484375 434.701171875 426.575195312 c 0
 435.313476562 427.946289062 456.4140625 475.489257812 456.4140625 510.079101562 c 0
 456.4140625 557.862304688 429.569335938 585.483398438 410.841796875 604.752929688 c 0
 398.259765625 617.700195312 375.711914062 636.9375 335.248046875 661.651367188 c 0
 329.765625 665 329.765625 665 294.27734375 682.4453125 c 0
 278.631835938 690.13671875 258.807617188 698.125976562 206.743164062 700.143554688 c 0
 186.592773438 700.924804688 145.499023438 699.137695312 133.166015625 696.998046875 c 0
 58.5888671875 684.05859375 48.9853515625 677.850585938 39.9970703125 670.924804688 c 1
 16 670 3 628 22.6318359375 611.749023438 c 0
 25.365234375 609.486328125 37.291015625 587.08984375 37.4140625 586.827148438 c 0
 49.09765625 545.654296875 49.09765625 507.563476562 49.09765625 448.141601562 c 0
 49.09765625 447.2734375 49.185546875 411.337890625 60 362 c 0
 69.05078125 320.71484375 70.8837890625 277.487304688 71.7998046875 232.329101562 c 0
 71.6630859375 138.32421875 71.8798828125 179.109375 71.8798828125 178.571289062 c 0
 71.8798828125 167.06640625 68.6806640625 171.0859375 67.3671875 144.518554688 c 0
 65.578125 108.346679688 54.21875 77.97265625 59.865234375 58.7978515625 c 0
 62.7294921875 49.078125 66.01171875 44.9091796875 77.65234375 30.126953125 c 0
 80.6513671875 26.318359375 96.0546875 14.3623046875 101.986328125 11.7919921875 c 0
 102.502929688 11.46484375 103.100585938 11.083984375 103.778320312 10.6494140625 c 0
 105.634765625 9.005859375 114.090820312 2.1572265625 126.198242188 2.0595703125 c 0
 129.140625 1.3828125 129.140625 1.3828125 141.849609375 0.10546875 c 0
37.4375 586.77734375 m 1
 37.4423828125 586.768554688 37.4375 586.772460938 37.4375 586.77734375 c 1
EndSplineSet
EndChar

StartChar: uni0421
Encoding: 1057 1057 20
Width: 582
Flags: HW
LayerCount: 2
Fore
SplineSet
446.348632812 552.461914062 m 0
 446.348632812 512.274414062 420.424804688 515.95703125 420.424804688 488.89453125 c 0
 420.424804688 475.58203125 428.427734375 464.123046875 439.880859375 459.072265625 c 2
 493.075195312 435.611328125 l 2
 507.155273438 429.401367188 523.94140625 433.901367188 532.95703125 446.862304688 c 0
 546.056640625 465.693359375 550.754882812 472.44921875 557.51171875 498.013671875 c 0
 557.71875 498.797851562 563.4453125 527.91796875 559.729492188 556.216796875 c 0
 556.49609375 580.833984375 545.237304688 617.669921875 508.735351562 644.385742188 c 0
 498.541015625 651.84765625 486.8515625 659.856445312 458.270507812 671.852539062 c 0
 439.776367188 679.615234375 431.064453125 683.494140625 425.646484375 685.904296875 c 0
 413.293945312 691.400390625 382.874023438 703.323242188 355.90234375 701.01953125 c 0
 328.198242188 698.654296875 316.795898438 697.680664062 311.890625 696.775390625 c 0
 279.926757812 690.87890625 248.114257812 675.137695312 220.833984375 657.651367188 c 0
 179.619140625 631.233398438 164.666015625 615.368164062 135.756835938 580.374023438 c 0
 110.748046875 550.1015625 91.7294921875 517.377929688 74.2646484375 485.880859375 c 0
 66.9814453125 473.719726562 12.576171875 378.557617188 18.5283203125 259.181640625 c 0
 21.669921875 196.174804688 26.5009765625 172.41796875 38.4169921875 140.5625 c 0
 66.517578125 65.439453125 109.254882812 48.24609375 183.041015625 19.3466796875 c 0
 183.771484375 19.060546875 226.631835938 3.91015625 259 0 c 0
 303.356445312 -5.3623046875 331.784179688 5.5625 368.912109375 19.8291015625 c 0
 369.376953125 20.0078125 398.780273438 32.22265625 414.095703125 40.8466796875 c 0
 414.701171875 41.1875 454.098632812 64.5849609375 471.861328125 79.4287109375 c 0
 487.352539062 92.37109375 494.8828125 100.84375 521.629882812 130.9375 c 0
 524.171875 133.797851562 539.221679688 151.424804688 539.411132812 151.62109375 c 0
 545.19140625 157.58984375 555.181640625 167.907226562 555.181640625 187.784179688 c 0
 555.181640625 200.310546875 553.249023438 205.450195312 547.77734375 219.999023438 c 0
 541.489257812 236.720703125 523.58203125 243.926757812 509.495117188 241.133789062 c 0
 468.778320312 233.061523438 463.716796875 229.5 448.735351562 208.705078125 c 0
 422.125 175.29296875 406.948242188 159.028320312 380.848632812 139.696289062 c 0
 358.255859375 122.961914062 335.145507812 108.390625 310.8515625 98.08203125 c 0
 260.037109375 78.32421875 240.724609375 78.6904296875 183.0859375 97.193359375 c 0
 181.365234375 97.7734375 153.517578125 107.67578125 136.028320312 147.053710938 c 0
 128.442382812 165.451171875 114.134765625 200.14453125 114.134765625 269.171875 c 0
 114.134765625 348.376953125 134.834960938 390.533203125 160.544921875 442.890625 c 0
 192.095703125 507.0625 224.256835938 553.983398438 281.865234375 589.021484375 c 0
 315.377929688 608.883789062 354.1875 629.548828125 409.579101562 613.80859375 c 0
 419.205078125 608.647460938 439.849609375 595.387695312 444.967773438 574.416992188 c 0
 445.0078125 574.200195312 446.348632812 561.655273438 446.348632812 552.461914062 c 0
EndSplineSet
EndChar

StartChar: uni0422
Encoding: 1058 1058 21
Width: 653
Flags: HW
LayerCount: 2
Fore
SplineSet
373 266 m 0
 373 322.8046875 366.244140625 414.616210938 372.216796875 517.10546875 c 0
 372.264648438 517.865234375 375.09375 561.256835938 378.196289062 593.009765625 c 1
 466.711914062 598.51171875 480.619140625 599.131835938 555.3203125 599.131835938 c 0
 581.991210938 599.131835938 591.295898438 605.763671875 600.524414062 618.868164062 c 1
 621.766601562 627.18359375 630.772460938 657.694335938 606.717773438 675.522460938 c 0
 600.158203125 680.384765625 595.64453125 681.015625 586.215820312 682.334960938 c 0
 528.791992188 699.172851562 528.791992188 699.172851562 497.903320312 698.685546875 c 0
 496.684570312 698.666015625 423.286132812 694.377929688 376.172851562 692.680664062 c 0
 336.036132812 691.233398438 288.083007812 689.39453125 259.1875 682.0625 c 0
 236.791992188 676.379882812 207.243164062 671.118164062 112.719726562 654.784179688 c 0
 109.953125 654.297851562 106.99609375 653.81640625 103.883789062 653.310546875 c 0
 74.685546875 648.5625 30.525390625 641.380859375 30.525390625 608.08984375 c 0
 30.525390625 596.598632812 36.5712890625 586.509765625 45.65234375 580.831054688 c 2
 76.50390625 561.538085938 l 2
 80.150390625 559.2578125 90.548828125 553.997070312 103.540039062 558.272460938 c 0
 140.241210938 570.348632812 152.921875 574.521484375 208.262695312 583.939453125 c 0
 260.778320312 589.837890625 260.778320312 589.837890625 288.641601562 590.705078125 c 1
 290.538085938 529.984375 286.556640625 475.381835938 286.556640625 399.814453125 c 0
 286.556640625 398.469726562 287.395507812 355.245117188 286.676757812 265.296875 c 0
 286.004882812 231.3125 285.708984375 229.512695312 281.145507812 201.7578125 c 0
 281.106445312 201.517578125 283.146484375 213.448242188 277.633789062 177.69140625 c 0
 275.375976562 163.048828125 272.436523438 140.471679688 272.376953125 140.096679688 c 0
 272.293945312 139.573242188 265.821289062 107.6171875 263.3125 87.8349609375 c 0
 262.387695312 80.54296875 260.79296875 67.96875 266.796875 48.154296875 c 0
 268.370117188 42.9638671875 272.856445312 28.1591796875 287.598632812 13.873046875 c 0
 293.764648438 4.3408203125 308.572265625 -5.1533203125 325.24609375 -0.125 c 0
 331.459960938 0.2783203125 352.404296875 1.6416015625 367.025390625 26.4638671875 c 0
 374.845703125 39.73828125 375.662109375 47.5400390625 376.188476562 56.927734375 c 0
 376.845703125 68.666015625 376.981445312 73.55859375 376.981445312 79.8525390625 c 0
 376.981445312 80.4013671875 376.369140625 85.2353515625 376.369140625 134.676757812 c 0
 376.369140625 135.259765625 375.916992188 177.725585938 374.6640625 192.885742188 c 0
 373 213.020507812 373 213.020507812 373 266 c 0
EndSplineSet
EndChar

StartChar: uni0423
Encoding: 1059 1059 22
Width: 559
Flags: HW
LayerCount: 2
Fore
SplineSet
118.721679688 63.9248046875 m 0
 117.28515625 60.4921875 113.615234375 51.189453125 118.493164062 39.0498046875 c 1
 107.31640625 7.77734375 146.540039062 -18.5673828125 171.333984375 3.404296875 c 1
 186.70703125 -1.27734375 197.09765625 6.51953125 201.83984375 10.078125 c 0
 228.724609375 30.2509765625 230.575195312 31.6396484375 248 56 c 0
 251.209960938 60.4873046875 294.301757812 124.276367188 301.99609375 145.575195312 c 1
 316.48046875 169.44921875 329.499023438 189.866210938 341.375976562 209.927734375 c 0
 341.594726562 210.296875 356.927734375 236.9921875 362.998046875 247.056640625 c 0
 374.345703125 265.869140625 374.345703125 265.869140625 398.877929688 314.056640625 c 0
 406.626953125 329.27734375 416.610351562 355.294921875 432.55859375 383.993164062 c 0
 433.2265625 385.194335938 470.76953125 453.989257812 495.600585938 506.170898438 c 0
 504.68359375 525.260742188 515.728515625 548.317382812 524.643554688 566.330078125 c 0
 534.727539062 586.705078125 546.84765625 610.26171875 551.865234375 638.8515625 c 0
 552.142578125 640.4296875 555.5 661.881835938 535.471679688 672.712890625 c 2
 500.911132812 691.40234375 l 2
 484.264648438 700.403320312 463.393554688 693.034179688 456.040039062 675.567382812 c 0
 436.924804688 630.1640625 443.264648438 626.709960938 407.107421875 547.21875 c 0
 364.045898438 452.552734375 346.83203125 408.104492188 346.208984375 406.706054688 c 0
 342.584960938 398.583984375 342.584960938 398.583984375 317.008789062 348.401367188 c 1
 288.953125 357.8203125 295.803710938 357.875976562 283.120117188 362.073242188 c 0
 272.083007812 369.342773438 252.05859375 383.124023438 221.518554688 412.16796875 c 1
 204.060546875 434.556640625 172.788085938 475.325195312 163.109375 509.201171875 c 0
 157.483398438 528.89453125 129.561523438 613.220703125 125.51171875 626.633789062 c 0
 121.206054688 640.889648438 114.854492188 661.331054688 98.4580078125 668.640625 c 2
 50.3447265625 690.087890625 l 2
 26.8798828125 700.546875 -4.4951171875 679.708984375 8.1982421875 646.3671875 c 0
 8.3720703125 645.912109375 8.1865234375 648.28125 25.7724609375 600.944335938 c 0
 34.1025390625 576.702148438 44.60546875 554.612304688 54.5341796875 533.591796875 c 0
 76.2724609375 487.563476562 74.9345703125 491.583007812 75.1396484375 491.158203125 c 0
 83.7294921875 473.38671875 79.2646484375 480.197265625 88.625 461.475585938 c 0
 88.8720703125 460.982421875 101.2109375 436.381835938 117.596679688 414.538085938 c 0
 142.774414062 380.969726562 151.033203125 369.959960938 180.046875 339.475585938 c 0
 180.838867188 338.643554688 211.166992188 308.333007812 269.271484375 267.1015625 c 1
 268.749023438 266.3671875 224.756835938 206.69140625 213.553710938 196.319335938 c 0
 209.478515625 192.546875 198.96484375 180.794921875 185.470703125 165.551757812 c 0
 184.92578125 164.936523438 143.065429688 114.25 134.84375 100.774414062 c 0
 131.084960938 94.6123046875 128.924804688 89.3095703125 127.278320312 85.4765625 c 0
 122.758789062 74.9541015625 118.811523438 64.138671875 118.721679688 63.9248046875 c 0
EndSplineSet
EndChar

StartChar: uni0424
Encoding: 1060 1060 23
Width: 700
Flags: HW
LayerCount: 2
Fore
SplineSet
299.0703125 583.669921875 m 1
 267.004882812 594.653320312 232.5 592.471679688 218.647460938 591.596679688 c 0
 218.55859375 591.590820312 189.34375 589.736328125 164.502929688 577.225585938 c 0
 139.345703125 564.557617188 116.229492188 541.448242188 115.810546875 541.009765625 c 0
 84.2080078125 507.901367188 66.6181640625 486.650390625 51.9697265625 456.283203125 c 0
 34.453125 419.966796875 26.0341796875 382.737304688 26.0341796875 343.704101562 c 0
 26.0341796875 248.048828125 59.1123046875 203.545898438 82.2646484375 180.765625 c 0
 88.5537109375 174.578125 88.5537109375 174.578125 89.0634765625 174.15625 c 0
 163.87890625 112.220703125 216.180664062 109.115234375 292.483398438 131.478515625 c 1
 290.66796875 75.2666015625 292.73046875 69.484375 301.037109375 51.546875 c 0
 305.77734375 41.3125 314.03125 23.4912109375 326.4140625 11.00390625 c 1
 335.745117188 -4.625 358.099609375 -10.9453125 374.231445312 1.1015625 c 0
 390.021484375 8.1083984375 396.249023438 17.08984375 401.404296875 29.6669921875 c 0
 409.509765625 48.7158203125 409.509765625 48.7158203125 401.014648438 94.6572265625 c 0
 400.948242188 95.017578125 398.827148438 101.256835938 393.89453125 130.545898438 c 1
 408.958007812 125.134765625 452.16796875 111 492 111 c 0
 507.658203125 111 547.047851562 113.331054688 584.561523438 134.360351562 c 0
 617.1796875 152.645507812 631.938476562 178.989257812 640.631835938 194.505859375 c 0
 654.405273438 219.092773438 675.7734375 265.318359375 674.231445312 313.305664062 c 0
 672.98828125 351.958984375 672.151367188 377.984375 644.654296875 439.9765625 c 0
 644.545898438 440.21875 644.435546875 440.459960938 644.322265625 440.69921875 c 0
 628.3828125 474.333007812 608.108398438 514.469726562 567.681640625 542.383789062 c 0
 565.96875 543.565429688 536.53125 559.971679688 523.94921875 566.455078125 c 0
 515.920898438 570.591796875 467.561523438 593.822265625 415.618164062 581.879882812 c 1
 416.41015625 600.861328125 416.455078125 631.11328125 416.455078125 631.610351562 c 0
 416.455078125 644.350585938 408.966796875 655.35546875 398.155273438 660.459960938 c 2
 340.110351562 687.866210938 l 2
 317.233398438 698.666992188 291.177734375 679.466796875 295.001953125 654.2109375 c 0
 297.42578125 638.2109375 297.42578125 638.2109375 299.0703125 583.669921875 c 1
496.271484375 207.978515625 m 0
 457.428710938 194.780273438 419.434570312 203.649414062 388.014648438 214.155273438 c 1
 389.041015625 245.8984375 387.6796875 203.704101562 392.9609375 365.774414062 c 0
 395.87890625 377.483398438 392.135742188 399.024414062 399.23046875 466.01171875 c 0
 399.95703125 468.228515625 400.447265625 470.551757812 400.670898438 472.952148438 c 0
 402.677734375 478.048828125 431.590820312 501.366210938 464.155273438 504.416015625 c 0
 473.83203125 505.322265625 488.245117188 504.692382812 505.891601562 497.944335938 c 1
 533.536132812 478.196289062 546.440429688 449.313476562 556.434570312 426.944335938 c 0
 565.8671875 404.12890625 575.357421875 371.956054688 574.336914062 336.313476562 c 0
 573.362304688 302.284179688 562.938476562 275.396484375 545.823242188 248.421875 c 0
 528.197265625 220.64453125 515.950195312 214.665039062 496.271484375 207.978515625 c 0
400.62890625 472.81640625 m 1
 400.62890625 472.81640625 400.629882812 472.821289062 400.62890625 472.81640625 c 1
304.166015625 391.28515625 m 0
 304.166015625 384.956054688 303.689453125 367.771484375 303.689453125 362.255859375 c 0
 303.689453125 331.543945312 303.689453125 331.543945312 298.374023438 234.282226562 c 0
 298.220703125 232.688476562 298.088867188 231.109375 297.973632812 229.545898438 c 0
 296.357421875 227.4453125 294.997070312 225.137695312 293.939453125 222.670898438 c 0
 277.46484375 225.334960938 233.000976562 208.966796875 226.866210938 208.118164062 c 0
 226.741210938 208.100585938 220.631835938 206.900390625 214.401367188 205.880859375 c 0
 213.556640625 205.7421875 188.083984375 201.630859375 170.4765625 205.870117188 c 0
 162.221679688 210.413085938 162.221679688 210.413085938 159.123046875 211.4140625 c 0
 149.5390625 220.49609375 149.5390625 220.49609375 148.588867188 221.598632812 c 0
 132.4765625 240.278320312 117.524414062 272.979492188 117.524414062 330.009765625 c 0
 117.524414062 401.75 157.612304688 447.360351562 188.83984375 477.765625 c 0
 204.30078125 490.75 204.30078125 490.75 210.702148438 494.6484375 c 0
 241.985351562 513.702148438 285.797851562 506.12890625 296.938476562 503.185546875 c 0
 300.38671875 499.772460938 303.03515625 496.478515625 304.983398438 493.223632812 c 0
 305.58203125 463.185546875 303.903320312 419.283203125 303.903320312 418.536132812 c 0
 303.903320312 416.034179688 304.166015625 395.092773438 304.166015625 391.28515625 c 0
EndSplineSet
EndChar

StartChar: uni0425
Encoding: 1061 1061 24
Width: 647
Flags: HW
LayerCount: 2
Fore
SplineSet
570.692382812 -3.076171875 m 0
 613.721679688 -15.91015625 634.953125 16.7705078125 625.806640625 41.0625 c 0
 616.89453125 64.7314453125 604.403320312 78.197265625 584.141601562 100.041015625 c 0
 563.661132812 124.635742188 558.137695312 125.400390625 540.91796875 144.41015625 c 0
 533.245117188 152.879882812 486.848632812 202.663085938 486.306640625 203.254882812 c 0
 461.067382812 231.452148438 444.274414062 250.212890625 382.323242188 331.162109375 c 1
 383.063476562 332.024414062 398.05859375 348.834960938 398.213867188 349.016601562 c 0
 398.466796875 349.313476562 419.40234375 374.860351562 422.563476562 379.484375 c 0
 459.291992188 433.208007812 485.610351562 471.736328125 509.346679688 510.2421875 c 0
 509.619140625 510.684570312 532.814453125 548.254882812 537.8828125 553.672851562 c 0
 556.60546875 573.68359375 560.767578125 578.131835938 565.002929688 581.916992188 c 0
 581.173828125 596.369140625 581.997070312 601.483398438 588.23046875 607.59375 c 0
 604.421875 623.467773438 600.51953125 650.436523438 580.659179688 661.174804688 c 2
 534.510742188 686.12890625 l 2
 517.243164062 695.466796875 495.580078125 687.975585938 487.7265625 669.932617188 c 0
 484.758789062 663.114257812 479.701171875 659.9296875 472.209960938 640.450195312 c 0
 470.525390625 636.068359375 470.098632812 635.192382812 466.8828125 629.00390625 c 0
 463.642578125 622.768554688 463.642578125 622.768554688 455.674804688 605.926757812 c 0
 455.08203125 604.983398438 410.779296875 532.296875 396.833984375 511.327148438 c 0
 348.259765625 440.204101562 348.259765625 440.204101562 342.111328125 431.479492188 c 0
 341.4453125 430.53515625 334.943359375 420.314453125 324.52734375 406.1015625 c 1
 285.25390625 454.104492188 269.041015625 473.920898438 234.326171875 510.418945312 c 0
 233.887695312 510.879882812 198.49609375 548.384765625 193.526367188 559.223632812 c 0
 186.479492188 574.592773438 167.301757812 599.961914062 157.905273438 612.075195312 c 0
 143.576171875 630.544921875 141.635742188 636.662109375 129.014648438 653.977539062 c 0
 125.427734375 658.8984375 120.537109375 662.809570312 114.853515625 665.202148438 c 2
 58.1591796875 689.068359375 l 2
 29.8544921875 700.984375 1.5234375 671.233398438 14.8330078125 643.546875 c 0
 25.1328125 622.120117188 40.103515625 603.82421875 58.7197265625 581.372070312 c 0
 59.1162109375 580.892578125 83.103515625 552.638671875 101.130859375 535.91015625 c 0
 110.193359375 527.500976562 110.717773438 527.014648438 133.458007812 501.881835938 c 0
 134.060546875 501.215820312 174.247070312 458.208984375 194.139648438 435.740234375 c 0
 219.671875 407.221679688 247.517578125 373.87890625 272.698242188 342.25390625 c 1
 247.215820312 312.9375 189.196289062 248.2109375 188.393554688 247.2265625 c 0
 177.2734375 233.592773438 117.896484375 164.37109375 117.64453125 164.0546875 c 0
 76.5693359375 112.357421875 62.0888671875 99.626953125 56.4169921875 92.8291015625 c 0
 51.2431640625 86.626953125 35.7822265625 77.53125 29.78125 62.6845703125 c 0
 22.3955078125 44.4111328125 31.9072265625 28.908203125 38.8759765625 22.6484375 c 0
 43.8505859375 18.1796875 45.65625 17.1044921875 54.693359375 11.7216796875 c 0
 55.8037109375 10.8193359375 60.158203125 7.4853515625 66.3291015625 5.34765625 c 0
 81.228515625 -2.0029296875 99.8779296875 -11.203125 119.481445312 6.7216796875 c 0
 129.34765625 15.75 132.03125 27.984375 138.041015625 36.5966796875 c 0
 150.247070312 54.22265625 195.455078125 109.239257812 196 110 c 0
 216.30078125 138.31640625 237.940429688 165.734375 260.944335938 192.166992188 c 0
 261.076171875 192.319335938 261.208007812 192.47265625 261.337890625 192.627929688 c 0
 273.447265625 207.056640625 291.379882812 227.784179688 309.021484375 246.064453125 c 0
 317.259765625 254.6015625 319.817382812 257.39453125 330.017578125 269.124023438 c 1
 370.264648438 216.98828125 378.9765625 205.814453125 427.416992188 150.079101562 c 0
 452.841796875 120.826171875 464.157226562 107.75 465.909179688 102.66015625 c 0
 468.5625 94.953125 475.970703125 81.0556640625 477.266601562 77.1650390625 c 0
 481.990234375 62.9833984375 486.921875 58.4013671875 491.58203125 49.201171875 c 0
 497.940429688 36.6494140625 509.602539062 22.9482421875 551.170898438 4.34765625 c 0
 551.362304688 4.2626953125 563.443359375 -0.9150390625 570.692382812 -3.076171875 c 0
465.702148438 103.274414062 m 1
 465.701171875 103.280273438 465.702148438 103.274414062 465.702148438 103.274414062 c 1
EndSplineSet
EndChar

StartChar: uni0426
Encoding: 1062 1062 25
Width: 642
Flags: HW
LayerCount: 2
Fore
SplineSet
541.706054688 361.904296875 m 0
 541.732421875 362.71875 543.528320312 373.977539062 545.532226562 443.27734375 c 0
 545.563476562 444.547851562 547.27734375 551.501953125 548.475585938 570.389648438 c 0
 552.87890625 639.828125 550.833007812 659.971679688 514.078125 670.552734375 c 0
 508.456054688 672.170898438 501.627929688 674.071289062 489.430664062 679.28125 c 0
 475.231445312 689.884765625 470.438476562 693.463867188 459.03515625 693.463867188 c 0
 444.447265625 693.463867188 426.514648438 682.340820312 426.514648438 659.432617188 c 0
 426.514648438 649.498046875 428.63671875 642.610351562 430.397460938 622 c 0
 435.063476562 567.38671875 435.063476562 567.38671875 435.766601562 535.202148438 c 0
 437.551757812 453.46875 443.916015625 380.743164062 443.9921875 379.182617188 c 0
 444.732421875 364.028320312 444.732421875 346.073242188 444.732421875 313.545898438 c 0
 444.732421875 278.12109375 444.938476562 271.391601562 446.3359375 225.762695312 c 0
 447.381835938 191.243164062 447.381835938 191.243164062 448.590820312 177.765625 c 0
 448.638671875 177.233398438 450.36328125 151.954101562 452.481445312 124.484375 c 0
 451.525390625 124.076171875 450.8671875 123.81640625 450.432617188 123.653320312 c 0
 447.625976562 124.09765625 442.196289062 124.568359375 435.892578125 122.541992188 c 0
 393.354492188 108.869140625 276.952148438 74.390625 220.864257812 86.984375 c 0
 219.7109375 87.443359375 214.385742188 89.7080078125 214.319335938 89.7353515625 c 0
 208.014648438 94.552734375 192.130859375 106.6875 178.579101562 131.518554688 c 0
 156.94140625 171.18359375 147.90625 210.432617188 141.345703125 357.66015625 c 0
 138.323242188 425.516601562 137.795898438 437.357421875 138.796875 508.641601562 c 0
 139.7109375 573.705078125 145.219726562 609.376953125 145.735351562 624.431640625 c 0
 146.0703125 634.125976562 145.251953125 651.78515625 127.981445312 660.361328125 c 2
 77.5810546875 685.388671875 l 2
 59.56640625 694.334960938 37.8466796875 684.112304688 33.140625 664.651367188 c 0
 30.6953125 655.78125 30.470703125 654.96484375 30.470703125 633.959960938 c 0
 30.470703125 621.86328125 30.8017578125 616.06640625 31.306640625 608.2890625 c 0
 35.4111328125 545.030273438 36.2412109375 440.991210938 39.708984375 373.250976562 c 0
 39.775390625 371.956054688 45.48828125 271.952148438 49.87890625 244.083007812 c 0
 58.2548828125 190.927734375 58.8076171875 189.141601562 67.3447265625 161.536132812 c 0
 77.244140625 129.53515625 82.759765625 119.498046875 90.0849609375 107.56640625 c 0
 100.276367188 90.9638671875 124.40625 58.0546875 166.397460938 35.5185546875 c 0
 181.518554688 27.40234375 191.709960938 20.5615234375 208.428710938 12.650390625 c 0
 227.765625 3.5 239.497070312 0 267 0 c 0
 327.836914062 0 436.141601562 28.3564453125 479.5390625 41.224609375 c 1
 493.936523438 28.927734375 515.854492188 30.4951171875 527.01953125 46.49609375 c 1
 526.9140625 -7.96484375 522.572265625 -2.9296875 522.572265625 -28.5146484375 c 0
 522.572265625 -35.6533203125 526.325195312 -68.111328125 534.34375 -78.7763671875 c 1
 538.552734375 -110.0390625 583.29296875 -117.103515625 596.080078125 -87.5908203125 c 1
 604.0546875 -81.1943359375 606.962890625 -75.54296875 613.938476562 -61.3486328125 c 0
 620.166992188 -48.6767578125 620.166992188 -48.6767578125 625.74609375 26.4716796875 c 0
 628.815429688 67.8212890625 625.538085938 100.39453125 601.583984375 109.2109375 c 0
 597.145507812 110.844726562 592.57421875 112.641601562 587.783203125 114.528320312 c 0
 559.81640625 125.5390625 553.092773438 127.778320312 542.359375 127.288085938 c 0
 541.227539062 128.39453125 540.01171875 129.416992188 538.723632812 130.34375 c 1
 538.723632812 137.959960938 538.723632812 149.25 538.764648438 152.504882812 c 0
 543.27734375 187.825195312 541.5703125 357.756835938 541.706054688 361.904296875 c 0
EndSplineSet
EndChar

StartChar: uni0427
Encoding: 1063 1063 26
Width: 576
Flags: HW
LayerCount: 2
Fore
SplineSet
415.625976562 663.63671875 m 0
 415.625976562 663.423828125 414.866210938 659.325195312 415.586914062 642.356445312 c 0
 415.673828125 640.309570312 419.55078125 489.239257812 415.033203125 437.50390625 c 1
 383.568359375 420.379882812 355.30859375 405.138671875 325.65234375 393.955078125 c 0
 275.543945312 375.493164062 219.3203125 359.874023438 184.549804688 366.129882812 c 0
 184.274414062 366.260742188 183.529296875 366.61328125 182.6015625 367.069335938 c 0
 179.942382812 372.383789062 172.83203125 381.233398438 170.25390625 386.125976562 c 0
 156.856445312 411.541992188 121.009765625 524.174804688 149.934570312 602.177734375 c 0
 156.961914062 617.461914062 159.450195312 622.875 159.450195312 631.361328125 c 0
 159.450195312 644.860351562 151.766601562 656.579101562 140.538085938 662.377929688 c 2
 94.8291015625 685.985351562 l 2
 80.3564453125 693.459960938 62.30859375 689.938476562 51.75 676.920898438 c 0
 22.6162109375 642.82421875 24.900390625 592.841796875 27.9443359375 526.24609375 c 0
 27.9658203125 525.768554688 30.2802734375 475.939453125 45.0703125 422.735351562 c 0
 52.865234375 394.697265625 53.623046875 391.970703125 83.1591796875 347.3515625 c 0
 83.4619140625 346.89453125 101.447265625 321.661132812 123.029296875 309.70703125 c 0
 156.75390625 291.03125 170.078125 283.65234375 197.803710938 279.513671875 c 0
 213.154296875 277.221679688 213.154296875 277.221679688 239.467773438 279.102539062 c 0
 240.799804688 279.197265625 302.880859375 286.83203125 368.984375 311.360351562 c 0
 372.376953125 312.619140625 387.640625 318.282226562 402.116210938 325.224609375 c 1
 396.015625 266.958984375 395 251.427734375 395 144 c 0
 395 117.908203125 397.076171875 87.12890625 397.076171875 86.5537109375 c 0
 397.076171875 61.900390625 397.076171875 61.568359375 423.125976562 23.9716796875 c 0
 423.3515625 23.6328125 423.575195312 23.3017578125 423.795898438 22.9765625 c 0
 429.901367188 -10.5146484375 477.8203125 -17.474609375 491.754882812 14.765625 c 1
 520.409179688 39.1064453125 516.280273438 55.7607421875 511.235351562 76.1083984375 c 0
 494.188476562 180.734375 488.546875 215.364257812 505.649414062 318.103515625 c 0
 509.986328125 344.153320312 518.513671875 415.686523438 518.2265625 420.380859375 c 0
 518.337890625 421.5234375 529.495117188 521.623046875 529.501953125 534.590820312 c 0
 529.544921875 535.32421875 533.380859375 592.358398438 535.956054688 607.860351562 c 0
 538.62109375 623.8984375 542.446289062 626.37109375 542.446289062 636.990234375 c 0
 542.446289062 651.249023438 533.873046875 663.521484375 521.604492188 668.9296875 c 2
 464.524414062 694.08984375 l 2
 442.166992188 703.944335938 416.655273438 688.129882812 415.625976562 663.63671875 c 0
529.04296875 540.150390625 m 1
 529.013671875 540.411132812 529.005859375 540.631835938 528.987304688 540.796875 c 1
 529.04296875 540.150390625 l 1
EndSplineSet
EndChar

StartChar: uni0428
Encoding: 1064 1064 27
Width: 717
Flags: HW
LayerCount: 2
Fore
SplineSet
44.376953125 631.168945312 m 0
 44.376953125 619.767578125 46.96875 627.1796875 44.6875 583.669921875 c 0
 42.58984375 543.654296875 44.5947265625 540.548828125 39.1572265625 473.817382812 c 0
 39.0380859375 472.353515625 37.13671875 452.310546875 36.8583984375 448.741210938 c 0
 36.8154296875 448.200195312 33.828125 403.770507812 33.771484375 394.543945312 c 0
 33.5166015625 353.606445312 30.7060546875 317.83203125 30.7060546875 271.782226562 c 0
 30.7060546875 271.401367188 30.8125 245.426757812 30.8125 233.647460938 c 0
 30.8125 191.950195312 35.14453125 171.067382812 35.14453125 123.872070312 c 0
 35.14453125 122.063476562 35.14453125 122.063476562 36.498046875 91.30859375 c 1
 26.21875 77.6611328125 28.8447265625 58.1845703125 42.5625 47.7451171875 c 2
 49.16015625 42.7236328125 l 1
 54.328125 28.310546875 68.0615234375 22.1689453125 77.158203125 21.416015625 c 1
 93.46484375 9.0068359375 99.5341796875 4.3896484375 113.48828125 7.3134765625 c 0
 117.190429688 8.0888671875 134.845703125 11.48828125 165.541992188 13.3525390625 c 0
 176.895507812 14.0419921875 176.895507812 14.0419921875 195.234375 16.5087890625 c 0
 220.104492188 15.765625 226.676757812 18.076171875 260.534179688 15.8955078125 c 0
 261.146484375 15.85546875 315.334960938 13.1689453125 321.809570312 12.775390625 c 1
 326.20703125 -0.4375 326.8359375 4.3359375 327.09765625 -2.4599609375 c 0
 327.81640625 -21.1708984375 344.350585938 -33.2333984375 359.446289062 -33.2333984375 c 0
 375.995117188 -33.2333984375 389.549804688 -20.3154296875 390.568359375 -4.021484375 c 0
 391.353515625 -2.6806640625 393.516601562 1.2626953125 395.904296875 8.1162109375 c 1
 414.58984375 6.931640625 426.041015625 6.4326171875 450.883789062 6.4326171875 c 0
 457.92578125 6.4326171875 508.631835938 6.8974609375 509.21484375 6.8994140625 c 0
 560.486328125 6.7861328125 580.392578125 0 654 0 c 0
 680.805664062 0 694.33984375 26.869140625 683.120117188 47.279296875 c 0
 677.384765625 57.7216796875 670.240234375 63.2138671875 666.857421875 66.1630859375 c 0
 664.661132812 68.078125 663.793945312 68.9091796875 663.37109375 69.376953125 c 0
 664.716796875 76.515625 669.65625 89.4287109375 669.65625 98.3505859375 c 0
 669.65625 103.560546875 668.938476562 102.708984375 668.938476562 107.943359375 c 0
 668.938476562 143.140625 674.927734375 132.649414062 672.989257812 181.700195312 c 0
 672.958007812 182.486328125 673.127929688 187.092773438 669.885742188 260.307617188 c 0
 669.453125 352.524414062 669.352539062 373.974609375 674.763671875 475.795898438 c 0
 675.141601562 482.907226562 672.68359375 554.747070312 672.68359375 569.865234375 c 0
 672.68359375 592.834960938 674.732421875 595.739257812 674.732421875 600.158203125 c 0
 674.732421875 612.571289062 667.463867188 623.30078125 656.953125 628.317382812 c 2
 615.6953125 648.010742188 l 1
 592.87109375 667.1015625 560.508789062 653.54296875 560.508789062 625.830078125 c 0
 560.508789062 623.208984375 572.6796875 524.182617188 574.829101562 364.166015625 c 0
 573.529296875 358.495117188 573.85546875 341.9921875 575.956054688 276.141601562 c 0
 576.112304688 267.559570312 577.498046875 195.2421875 580.530273438 169.708007812 c 0
 582.715820312 151.303710938 585.775390625 147.48046875 588.609375 115.331054688 c 0
 588.139648438 112.745117188 587.500976562 109.233398438 588.51171875 103.66796875 c 1
 588.000976562 103.614257812 558.4921875 100.163085938 538.217773438 93.404296875 c 0
 537.836914062 93.27734375 512.140625 86.4541015625 498.977539062 85.259765625 c 0
 475.440429688 83.1220703125 454.64453125 81.4443359375 399.990234375 82.7666015625 c 1
 399.979492188 83.76953125 399.649414062 155.122070312 399.267578125 183.049804688 c 0
 398.658203125 227.709960938 398.658203125 227.709960938 399.8984375 272.049804688 c 0
 400.6171875 275.383789062 400.6171875 275.383789062 403.248046875 321.706054688 c 0
 403.908203125 333.338867188 406.819335938 378.709960938 406.846679688 379.286132812 c 0
 406.879882812 379.994140625 408.89453125 440.8984375 409.426757812 450.135742188 c 0
 409.643554688 453.907226562 409.518554688 468.5625 395.627929688 477.874023438 c 2
 348.712890625 509.326171875 l 2
 328.120117188 523.131835938 300.196289062 508.28125 300.196289062 483.40625 c 0
 300.196289062 482.997070312 301.63671875 466.305664062 301.63671875 442.540039062 c 0
 301.63671875 415.9140625 299.201171875 347.6796875 299.69921875 328.89453125 c 0
 299.720703125 328.086914062 301.13671875 316.860351562 302.458007812 248.1015625 c 0
 302.467773438 247.59375 303.692382812 209.81640625 303.966796875 197.328125 c 0
 304.422851562 176.58984375 306.293945312 149.587890625 310.68359375 86.2158203125 c 1
 257.439453125 89.203125 257.439453125 89.203125 199.671875 95.6181640625 c 0
 198.327148438 95.767578125 198.327148438 95.767578125 172.3984375 98.380859375 c 0
 141.32421875 102.965820312 141.32421875 102.965820312 119.450195312 103.715820312 c 1
 117.94140625 172.6796875 122.8359375 164.219726562 123.88671875 215.856445312 c 0
 124.921875 245.75390625 127.982421875 325.537109375 134.458984375 365.196289062 c 0
 134.659179688 366.42578125 138.836914062 415.928710938 152.591796875 488.444335938 c 0
 161.260742188 534.154296875 161.426757812 535.028320312 164.9609375 571.135742188 c 0
 167.291015625 594.936523438 167.291015625 594.936523438 167.291015625 595.408203125 c 0
 167.291015625 606.84375 161.122070312 616.850585938 151.932617188 622.278320312 c 2
 91.3857421875 658.0390625 l 2
 70.740234375 670.232421875 44.376953125 655.274414062 44.376953125 631.168945312 c 0
575.883789062 598.897460938 m 1
 575.883789062 598.897460938 575.881835938 598.8984375 575.883789062 598.897460938 c 1
EndSplineSet
EndChar

StartChar: uni0429
Encoding: 1065 1065 28
Width: 736
Flags: HW
LayerCount: 2
Fore
SplineSet
38.109375 626.120117188 m 0
 38.109375 614.682617188 40.703125 622.151367188 38.4208984375 578.615234375 c 0
 36.3330078125 538.783203125 38.3203125 535.43359375 32.890625 468.768554688 c 0
 32.78515625 467.470703125 30.857421875 447.125976562 30.58984375 443.692382812 c 0
 30.546875 443.151367188 27.5595703125 398.705078125 27.501953125 389.495117188 c 0
 27.2470703125 348.478515625 24.4384765625 312.837890625 24.4384765625 266.725585938 c 0
 24.4384765625 266.34375 24.544921875 240.553710938 24.544921875 228.598632812 c 0
 24.544921875 185.36328125 28.876953125 167.5546875 28.876953125 118.823242188 c 0
 28.876953125 116.993164062 28.876953125 116.993164062 30.2294921875 86.259765625 c 1
 19.9521484375 72.61328125 22.5771484375 53.1376953125 36.2939453125 42.697265625 c 2
 42.8916015625 37.67578125 l 1
 48.056640625 23.2724609375 61.7802734375 17.1201171875 70.8916015625 16.3671875 c 1
 87.1953125 3.958984375 93.265625 -0.66015625 107.220703125 2.2646484375 c 0
 110.938476562 3.0439453125 128.569335938 6.4375 159.258789062 8.3017578125 c 0
 170.625976562 8.9931640625 170.625976562 8.9931640625 188.965820312 11.458984375 c 0
 189.736328125 11.4365234375 210.102539062 12.890625 265.982421875 10.1533203125 c 0
 266.477539062 10.1298828125 291.559570312 9.1845703125 315.541992188 7.7265625 c 1
 319.942382812 -5.4931640625 320.568359375 -0.708984375 320.830078125 -7.5078125 c 0
 321.547851562 -26.21484375 338.077148438 -38.2822265625 353.177734375 -38.2822265625 c 0
 369.725585938 -38.2822265625 383.28125 -25.3642578125 384.299804688 -9.0712890625 c 0
 385.084960938 -7.73046875 387.248046875 -3.787109375 389.63671875 3.0673828125 c 1
 407.208007812 1.9521484375 418.735351562 1.3828125 444.609375 1.3828125 c 0
 451.704101562 1.3828125 502.364257812 1.8486328125 502.947265625 1.8505859375 c 0
 503.688476562 1.8486328125 536.865234375 1.6689453125 576.91796875 -2.357421875 c 0
 591.8359375 -3.8564453125 608.084960938 -4.6220703125 624.766601562 -4.837890625 c 0
 624.767578125 -5.2333984375 624.977539062 -32.529296875 626.482421875 -44.365234375 c 0
 628.150390625 -57.4873046875 632.913085938 -66.90625 635.764648438 -73.1357421875 c 0
 638.24609375 -78.5576171875 639.193359375 -80.6259765625 639.334960938 -82.5673828125 c 0
 640.588867188 -99.853515625 647.569335938 -107.103515625 658.302734375 -112.416015625 c 0
 679.298828125 -122.80859375 706.6484375 -106.922851562 702.881835938 -79.1572265625 c 1
 710.389648438 -66.7548828125 710.520507812 -60.1806640625 710.733398438 -49.55078125 c 0
 711.563476562 -7.9453125 713.037109375 1.509765625 714.517578125 10.42578125 c 0
 716.080078125 19.8330078125 719.756835938 41.9736328125 698.84765625 52.6279296875 c 0
 664.31640625 70.2236328125 664.31640625 70.2236328125 658.749023438 70.859375 c 1
 663.388671875 88.8974609375 663.388671875 88.8974609375 663.388671875 93.302734375 c 0
 663.388671875 98.5166015625 662.670898438 97.65625 662.670898438 102.893554688 c 0
 662.670898438 138.083007812 668.658203125 127.602539062 666.720703125 176.657226562 c 0
 666.689453125 177.443359375 666.85546875 182.146484375 663.618164062 255.259765625 c 0
 663.185546875 347.5078125 663.084960938 368.940429688 668.495117188 470.748046875 c 0
 669.248046875 484.920898438 664.892578125 558.288085938 667.1953125 586.28125 c 0
 671.534179688 600.985351562 664.514648438 616.668945312 650.684570312 623.26953125 c 2
 609.430664062 642.959960938 l 1
 586.163085938 662.431640625 554.25 647.892578125 554.25 620.771484375 c 0
 554.25 618.291015625 566.4140625 518.942382812 568.560546875 359.118164062 c 0
 567.264648438 353.46484375 567.576171875 337.31640625 569.688476562 271.092773438 c 0
 569.845703125 262.435546875 571.231445312 190.17578125 574.263671875 164.66015625 c 0
 576.44140625 146.321289062 579.51171875 142.379882812 582.341796875 110.28125 c 0
 581.874023438 107.704101562 581.232421875 104.1796875 582.244140625 98.619140625 c 1
 581.733398438 98.5654296875 552.211914062 95.1103515625 531.953125 88.3564453125 c 0
 531.572265625 88.2294921875 505.869140625 81.4052734375 492.700195312 80.2099609375 c 0
 469.165039062 78.072265625 448.348632812 76.39453125 393.72265625 77.716796875 c 1
 393.711914062 78.7197265625 393.381835938 150.075195312 393 178 c 0
 392.390625 222.641601562 392.390625 222.641601562 393.630859375 267.001953125 c 0
 394.350585938 270.337890625 394.350585938 270.337890625 396.98046875 316.657226562 c 0
 397.638671875 328.255859375 400.552734375 373.661132812 400.580078125 374.23828125 c 0
 400.61328125 374.946289062 402.626953125 435.856445312 403.159179688 445.086914062 c 0
 403.375976562 448.858398438 403.250976562 463.512695312 389.361328125 472.82421875 c 2
 342.447265625 504.27734375 l 2
 321.854492188 518.083984375 293.9296875 503.233398438 293.9296875 478.358398438 c 0
 293.9296875 477.94921875 295.370117188 461.256835938 295.370117188 437.501953125 c 0
 295.370117188 387.873046875 291.67578125 347.1875 294.442382812 304.107421875 c 0
 294.7890625 298.701171875 298.2421875 173.868164062 298.305664062 172.553710938 c 0
 298.348632812 171.638671875 300.903320312 131.88671875 304.416015625 81.16796875 c 1
 251.096679688 84.158203125 251.096679688 84.158203125 193.403320312 90.5703125 c 0
 192.1328125 90.7119140625 192.1328125 90.7119140625 166.131835938 93.33203125 c 0
 135.073242188 97.9140625 135.073242188 97.9140625 113.182617188 98.66796875 c 1
 111.674804688 167.62109375 116.568359375 159.223632812 117.618164062 210.807617188 c 0
 118.643554688 240.448242188 121.7109375 320.467773438 128.19140625 360.1484375 c 0
 128.391601562 361.377929688 132.564453125 410.850585938 146.328125 483.421875 c 0
 155.0078125 529.189453125 155.161132812 530 158.693359375 566.087890625 c 0
 161.0234375 589.887695312 161.0234375 589.887695312 161.0234375 590.360351562 c 0
 161.0234375 601.795898438 154.853515625 611.802734375 145.6640625 617.23046875 c 2
 85.1171875 652.990234375 l 2
 64.4716796875 665.18359375 38.109375 650.224609375 38.109375 626.120117188 c 0
569.626953125 593.845703125 m 1
 569.626953125 593.845703125 569.625 593.846679688 569.626953125 593.845703125 c 1
EndSplineSet
EndChar

StartChar: uni042C
Encoding: 1068 1068 29
Width: 494
Flags: HW
LayerCount: 2
Fore
SplineSet
33.65234375 674.248046875 m 0
 33.65234375 673.890625 32.1376953125 670.962890625 32.69140625 638.431640625 c 0
 33.0654296875 616.2890625 33.171875 612.118164062 38.5341796875 555.393554688 c 0
 42.125 517.387695312 42.125 517.387695312 46.2060546875 486.3046875 c 0
 47.591796875 475.7421875 51.6630859375 441.791992188 51.7265625 441.342773438 c 0
 66.970703125 334.198242188 70.7509765625 271.5625 68.0361328125 227.549804688 c 0
 67.2607421875 214.983398438 67.2607421875 214.983398438 63.73828125 181.513671875 c 0
 63.6328125 180.514648438 55.8203125 96.876953125 57.66015625 81.265625 c 0
 58.7001953125 72.4296875 60.998046875 65.8701171875 62.4794921875 61.23046875 c 0
 64.2568359375 55.66015625 64.2568359375 55.66015625 67.5244140625 41.7138671875 c 1
 67.3251953125 33.2890625 67.3251953125 33.2890625 67.3251953125 32.908203125 c 0
 67.3251953125 12.59375 85.2412109375 0.6318359375 100.245117188 0.6318359375 c 0
 116.665039062 0.6318359375 130.173828125 13.1923828125 131.680664062 29.220703125 c 1
 147.265625 21.04296875 147.265625 21.04296875 157.15234375 18.02734375 c 0
 220.5234375 -1.2978515625 259.221679688 0.1064453125 308.357421875 2.9140625 c 0
 308.802734375 2.939453125 332.876953125 4.9462890625 352 12 c 0
 389.619140625 25.876953125 423.43359375 64.40625 434.680664062 91.6279296875 c 0
 434.815429688 91.955078125 453.55078125 153.725585938 453.55078125 185.98828125 c 0
 453.55078125 238.678710938 420.004882812 283.2734375 419.375 284.100585938 c 0
 403.524414062 304.912109375 402.149414062 306.71875 389.83984375 318.693359375 c 0
 338.212890625 368.916992188 259.6015625 402.3359375 239.5859375 408.999023438 c 0
 223.958007812 414.202148438 183.78125 425.333007812 140.720703125 419.37890625 c 1
 140.546875 421.544921875 127.676757812 601.271484375 139.400390625 636.614257812 c 0
 144.184570312 651.037109375 137.989257812 666.930664062 124.520507812 674.28515625 c 0
 80.1376953125 698.517578125 80.1376953125 698.517578125 80.1376953125 698.517578125 c 2
 60.478515625 709.250976562 36.0810546875 696.4609375 33.65234375 674.248046875 c 0
142.0703125 97.123046875 m 1
 143.177734375 149.772460938 153.365234375 203.286132812 153.365234375 264.280273438 c 0
 153.365234375 284.928710938 153.163085938 288.0546875 148.637695312 334.14453125 c 1
 163.916015625 343.00390625 210.009765625 351.533203125 265.379882812 323.80859375 c 0
 267.203125 321.303710938 272.267578125 314.346679688 285.006835938 311.170898438 c 1
 285.006835938 311.170898438 284.791992188 312.315429688 292.03125 307.172851562 c 0
 300.975585938 300.819335938 322.201171875 285.741210938 338.615234375 262.559570312 c 0
 362.114257812 229.37109375 359.595703125 207.795898438 357.352539062 188.578125 c 0
 354.935546875 174.41796875 351.790039062 162.337890625 346.868164062 152.981445312 c 0
 336.856445312 137.041992188 334.53515625 133.34765625 324.619140625 122.333007812 c 0
 311.759765625 110.053710938 300.322265625 101.010742188 289.01171875 96.97265625 c 0
 251.298828125 83.5087890625 161.293945312 92.7333984375 160.01953125 92.9365234375 c 0
 155.306640625 93.6865234375 146.671875 96.51953125 142.0703125 97.123046875 c 1
EndSplineSet
EndChar

StartChar: uni042E
Encoding: 1070 1070 30
Width: 724
Flags: HW
LayerCount: 2
Fore
SplineSet
425.461914062 676.3671875 m 0
 408.962890625 683.19140625 403.30078125 683.633789062 381.375 677.447265625 c 0
 379.573242188 676.967773438 377.83203125 676.337890625 376.166992188 675.573242188 c 0
 352.604492188 664.75390625 338.366210938 651.198242188 317.681640625 631.50390625 c 0
 295.924804688 610.790039062 285.463867188 598.107421875 262.600585938 563.716796875 c 0
 253.797851562 550.475585938 253.797851562 550.475585938 253.372070312 549.709960938 c 0
 225.98046875 500.370117188 203.487304688 447.5390625 191.217773438 391.413085938 c 1
 183.765625 394.333007812 179.241210938 394.333007812 171.783203125 394.333007812 c 0
 129.90234375 397.751953125 129.90234375 397.751953125 126.594726562 397.84765625 c 1
 126.651367188 399.22265625 129.711914062 474.522460938 129.711914062 535.361328125 c 0
 129.711914062 536.311523438 128.060546875 610.384765625 128.758789062 630.390625 c 0
 130.1015625 634.252929688 130.673828125 640.655273438 129.9140625 645.880859375 c 0
 129.856445312 654.640625 126.36328125 662.58984375 120.71484375 668.44921875 c 0
 118.688476562 670.57421875 115.547851562 673.8671875 108.362304688 676.610351562 c 0
 88.859375 686.0078125 82.6513671875 691.923828125 73.7236328125 693.907226562 c 0
 58.5087890625 697.2890625 33.43359375 689.41015625 33.43359375 657.818359375 c 0
 33.43359375 655.040039062 33.43359375 651.270507812 35.96875 644.168945312 c 0
 36.150390625 642.640625 47.38671875 544.333007812 47.38671875 490.6953125 c 0
 47.38671875 461.763671875 47.32421875 450.11328125 37.080078125 292.33203125 c 0
 37.0166015625 291.470703125 30.67578125 211.732421875 30.32421875 206.267578125 c 0
 25.6796875 134.004882812 25.8134765625 115.70703125 26.1953125 79.04296875 c 0
 26.384765625 60.8515625 26.568359375 48.619140625 42.5078125 28.796875 c 0
 42.7421875 28.5048828125 57.927734375 9.7177734375 70.0087890625 3.37109375 c 0
 76.0107421875 0.2177734375 77.34375 0.119140625 94.9111328125 -1.1884765625 c 0
 95.5556640625 -1.236328125 140.262695312 -3.1943359375 140.262695312 44.9453125 c 0
 140.262695312 57.75390625 134.209960938 117.625976562 134.122070312 118.357421875 c 0
 122.870117188 211.704101562 121.036132812 244.37890625 122.697265625 309.677734375 c 1
 131.153320312 311.690429688 131.153320312 311.690429688 135.10546875 311.690429688 c 0
 147.893554688 311.690429688 156.413085938 308.419921875 181.186523438 305.815429688 c 0
 181.1328125 304.943359375 182.3125 260.766601562 191.711914062 219.119140625 c 0
 191.888671875 218.3359375 202.67578125 174.098632812 215.708984375 142.448242188 c 0
 223.94921875 122.44140625 224.869140625 120.206054688 248.12109375 82.8466796875 c 0
 248.290039062 82.576171875 259.745117188 67.1708984375 268.409179688 58.2431640625 c 0
 293.021484375 32.88671875 325.072265625 18.0888671875 351.348632812 7.125 c 0
 363.630859375 2.0009765625 365.256835938 1.869140625 394.129882812 -0.46484375 c 0
 443.0625 -4.4208984375 536.446289062 40.7333984375 573.001953125 69.4365234375 c 0
 582.287109375 76.7265625 582.850585938 77.169921875 602.243164062 97.166015625 c 0
 603.188476562 98.1416015625 647.4765625 146.262695312 666.958984375 216.600585938 c 0
 667.385742188 218.141601562 689.283203125 300.717773438 689.283203125 374.977539062 c 0
 689.283203125 420.28515625 685.1796875 460.680664062 660.408203125 534.305664062 c 0
 641.758789062 589.737304688 633.178710938 602.581054688 604.252929688 634.166015625 c 0
 603.034179688 635.497070312 592.7578125 644.733398438 586.02734375 649.669921875 c 0
 565.686523438 664.590820312 537.1015625 677.418945312 521.814453125 683.999023438 c 0
 490.852539062 697.325195312 470.888671875 689.544921875 450.831054688 681.728515625 c 1
 428.008789062 677.318359375 428.008789062 677.318359375 425.461914062 676.3671875 c 0
431.65234375 595.829101562 m 2
 449.065429688 587.999023438 469.530273438 596.7265625 476.002929688 614.668945312 c 0
 476.321289062 614.637695312 502.635742188 611.750976562 507.46875 609.116210938 c 0
 525.420898438 599.327148438 517.279296875 607.955078125 528.34765625 599.078125 c 0
 548.435546875 578.302734375 552.8671875 572.354492188 570.938476562 522.376953125 c 0
 586.5625 475.203125 598.875976562 436.983398438 598.875976562 368.056640625 c 0
 598.875976562 340.517578125 596.180664062 277.159179688 574.034179688 224.061523438 c 0
 568.813476562 211.54296875 550.971679688 173.01171875 519.1328125 145.637695312 c 0
 500.966796875 130.017578125 421.955078125 76.4111328125 364.086914062 82.4814453125 c 0
 361.12890625 83.8623046875 355.206054688 86.626953125 347.872070312 87.4404296875 c 0
 338.010742188 94.380859375 337.397460938 95.6884765625 328.969726562 105.047851562 c 0
 322.251953125 112.508789062 322.251953125 112.508789062 315.90234375 121.545898438 c 0
 304.923828125 137.171875 302.736328125 139.65234375 293.158203125 161.014648438 c 0
 268.221679688 216.634765625 265.580078125 256.783203125 263 296 c 0
 264.0390625 327.883789062 264.0390625 327.883789062 264.198242188 329.729492188 c 0
 268.498046875 379.637695312 282.26953125 429.333984375 305.459960938 474.395507812 c 0
 308.965820312 481.209960938 313.397460938 488.504882812 318.27734375 496.4765625 c 0
 328.776367188 513.623046875 366.348632812 570.745117188 415.317382812 596.122070312 c 0
 416.477539062 596.723632812 418.276367188 597.434570312 422.44921875 599.0859375 c 0
 423.095703125 598.92578125 423.951171875 598.76171875 425.376953125 598.650390625 c 2
 431.65234375 595.829101562 l 2
61.1220703125 626.32421875 m 1
 61.1181640625 626.32421875 61.1240234375 626.32421875 61.1220703125 626.32421875 c 1
EndSplineSet
EndChar

StartChar: uni042F
Encoding: 1071 1071 31
Width: 545
Flags: HW
LayerCount: 2
Fore
SplineSet
401.6015625 573.72265625 m 0
 394.388671875 511.884765625 405.7578125 441.329101562 402.706054688 394.48828125 c 0
 401.686523438 378.828125 396.700195312 344.524414062 395.9765625 331.374023438 c 1
 376.416992188 337.676757812 376.416992188 337.676757812 375.84765625 337.829101562 c 0
 317.798828125 353.359375 300.869140625 360.849609375 276.009765625 373.100585938 c 0
 252.788085938 384.544921875 250.303710938 385.861328125 231.138671875 397.461914062 c 0
 229.810546875 398.265625 229.810546875 398.265625 210.7734375 409.66796875 c 0
 170.569335938 433.748046875 167.045898438 439.575195312 156.91015625 457.799804688 c 0
 129.735351562 506.674804688 143.450195312 524.366210938 168.2421875 548.233398438 c 0
 182.70703125 561.514648438 194.563476562 572.401367188 233.448242188 596.249023438 c 0
 246.4453125 600.838867188 249.389648438 601.87890625 289.661132812 606.970703125 c 0
 311.43359375 609.08984375 351.356445312 612.090820312 399.221679688 605.0859375 c 1
 397.91796875 579.580078125 402.693359375 583.078125 401.6015625 573.72265625 c 0
482.59765625 279.370117188 m 0
 482.59765625 368.479492188 499.73046875 375.7734375 494.872070312 456.877929688 c 0
 494.872070312 457.487304688 492.532226562 492.013671875 492.532226562 517.755859375 c 0
 492.532226562 549.432617188 495.841796875 565.596679688 499.779296875 582.961914062 c 0
 500.588867188 584.6171875 512.302147179 604.405263255 514.266601562 607.7890625 c 0
 526 628 513 665 492.579101562 669.637695312 c 0
 492.308341484 669.699186375 479.549804688 677.712890625 466.811523438 679.9296875 c 0
 466.016601562 680.068359375 407.452148438 689.520507812 386.888671875 690.69140625 c 0
 385.485351562 690.771484375 300.78515625 694.823242188 246.655273438 680.3046875 c 0
 234.8359375 677.134765625 223.904296875 672.73828125 213.86328125 667.670898438 c 0
 172.057617188 646.575195312 172.057617188 646.575195312 133.759765625 621.021484375 c 0
 99.5615234375 597.850585938 69.6259765625 563.540039062 61.5185546875 550.805664062 c 0
 58.5556640625 546.150390625 38.9404296875 514.51171875 45.806640625 474.09765625 c 0
 51.0732421875 443.096679688 73.716796875 400.38671875 81.201171875 389.877929688 c 0
 81.375 389.6328125 92.1015625 375.645507812 101.579101562 367.779296875 c 0
 107.768554688 362.642578125 107.768554688 362.642578125 153.671875 332.609375 c 0
 178.202148438 316.3125 191.395507812 307.547851562 219.026367188 295.529296875 c 1
 180.102539062 257.256835938 180.102539062 257.256835938 170.497070312 246.095703125 c 0
 161.6796875 235.8515625 147.723632812 219.634765625 114.057617188 187.091796875 c 0
 110.361328125 183.51953125 104.303710938 176.9453125 93.3564453125 166.303710938 c 0
 85.490234375 158.657226562 82.89453125 156.133789062 75.115234375 147.905273438 c 0
 74.9189453125 147.697265625 55.7841796875 128.325195312 55.0556640625 127.504882812 c 0
 54.6865234375 127.087890625 30.771484375 97.7529296875 22.908203125 81.9853515625 c 0
 10.5966796875 57.294921875 17.4189453125 40.4345703125 26.78125 17.2978515625 c 0
 31.08203125 6.669921875 41.3876953125 -2.455078125 55.337890625 -4.3349609375 c 0
 107.004882812 -11.2958984375 120.064453125 5.4345703125 139.665039062 37.1201171875 c 0
 144.147460938 44.3662109375 152.123046875 56.6484375 154.086914062 60.083984375 c 0
 160.819335938 71.8701171875 157.685546875 69.2265625 167.698242188 84.576171875 c 0
 167.962890625 84.982421875 176.321289062 99.1357421875 194.159179688 125.26171875 c 0
 194.283203125 125.443359375 203.360351562 139.361328125 206.3828125 143.650390625 c 0
 226.043945312 171.54296875 245.952148438 193.153320312 270 216 c 0
 286.23046875 231.420898438 301.352539062 245.611328125 316.768554688 256.387695312 c 0
 318.19921875 257.387695312 319.548828125 258.49609375 320.8046875 259.700195312 c 0
 353.483398438 249.99609375 366.984375 245.987304688 377.84375 241.849609375 c 0
 383.115234375 239.840820312 386.467773438 238.640625 393.931640625 237.08984375 c 0
 393.932617188 236.447265625 394.532226562 188.219726562 394.293945312 172.81640625 c 0
 394.129882812 162.204101562 393.896484375 161.204101562 391.559570312 152.786132812 c 0
 388.181640625 140.615234375 381.521484375 96.5419921875 381.46875 95.9677734375 c 0
 380.302734375 83.2880859375 371.885742188 46.1376953125 371.885742188 37.4677734375 c 0
 371.885742188 5.912109375 405.108398438 -8.1396484375 421.547851562 -5.8232421875 c 0
 435.334960938 -3.87890625 435.334960938 -3.87890625 438.684570312 -2.9970703125 c 0
 441.110351562 -2.8984375 452.137695312 -2.0029296875 461.255859375 6.119140625 c 0
 461.34375 6.1767578125 467.512695312 9.57421875 470.212890625 11.583984375 c 0
 486.630859375 23.80859375 489.33203125 25.8193359375 499.13671875 40.3095703125 c 0
 510.9375 57.7490234375 511.985351562 68.1455078125 502.192382812 103.403320312 c 0
 495.166015625 128.700195312 494.8671875 150.286132812 488.767578125 169.232421875 c 0
 487.119140625 174.353515625 487.016601562 174.671875 486.758789062 182.431640625 c 0
 486.306640625 196.08203125 482.59765625 232.447265625 482.59765625 279.370117188 c 0
EndSplineSet
EndChar

StartChar: uni0490
Encoding: 1168 1168 32
Width: 580
Flags: HW
LayerCount: 2
Fore
SplineSet
550.8515625 622.22265625 m 0
 550.8515625 627.522460938 555.458984375 705.98828125 555.458984375 716.665039062 c 0
 555.458984375 736.112304688 548.360351562 744.481445312 534.08203125 761.315429688 c 0
 530.575195312 765.450195312 515.370117188 779.377929688 494.543945312 770.060546875 c 0
 480.831054688 763.92578125 463.98046875 756.38671875 463.98046875 728.556640625 c 0
 463.98046875 728 466.635742188 699.836914062 464.74609375 672.883789062 c 1
 447.650390625 676.455078125 403.501953125 677.321289062 402.881835938 677.321289062 c 0
 381.09375 677.321289062 363.924804688 671.337890625 350.624023438 671.337890625 c 0
 347.8203125 671.337890625 347.213867188 671.576171875 344.780273438 671.576171875 c 0
 334.768554688 671.576171875 259.630859375 664.434570312 211.561523438 664.434570312 c 0
 210.25390625 664.434570312 90.626953125 665.909179688 80.736328125 665.361328125 c 1
 63.58984375 674.250976562 62.0498046875 675.048828125 54.2744140625 675.048828125 c 0
 51.4453125 675.048828125 19.7216796875 674.184570312 22.7392578125 635.31640625 c 0
 23.048828125 631.318359375 18.466796875 693.07421875 28.966796875 560.640625 c 0
 31.6171875 527.209960938 35.0361328125 512.943359375 39.2978515625 443.033203125 c 0
 43.06640625 381.223632812 43.06640625 381.223632812 44.0498046875 341.4765625 c 0
 44.07421875 340.502929688 47.1376953125 252.418945312 47.76953125 244.133789062 c 0
 49.8974609375 216.212890625 51.4990234375 188.676757812 51.4990234375 161.561523438 c 0
 51.4990234375 161.325195312 51.0419921875 139.646484375 51.0498046875 137.845703125 c 0
 51.142578125 117.725585938 54.2060546875 67.849609375 58.8369140625 53.599609375 c 0
 65.8193359375 32.1201171875 78.439453125 21.064453125 92.650390625 8.615234375 c 0
 96.9306640625 4.8642578125 106.518554688 -1.083984375 124.280273438 -1.083984375 c 0
 146.53515625 -1.083984375 167 15.7998046875 167 42 c 0
 167 61.5966796875 149.91015625 134.534179688 149.689453125 135.458984375 c 0
 135.165039062 196.25390625 135.165039062 259.686523438 135.165039062 356.702148438 c 0
 135.165039062 386.901367188 134.6796875 399.615234375 134.6796875 433.70703125 c 0
 134.6796875 434.28515625 134.889648438 480.514648438 136.282226562 491.432617188 c 0
 137.776367188 503.145507812 138.854492188 526.5859375 138.854492188 561.1015625 c 0
 138.854492188 561.358398438 138.354492188 569.43359375 138.568359375 586.802734375 c 1
 171.9140625 588.184570312 218.6015625 589.848632812 298.659179688 586.76171875 c 0
 318.299804688 586.004882812 346.594726562 584.909179688 407.490234375 581.927734375 c 0
 415.108398438 580.329101562 454.158203125 575.760742188 469.0234375 575.276367188 c 0
 481.743164062 574.86328125 506.186523438 568.91796875 519.969726562 568.91796875 c 0
 536.619140625 568.91796875 552.500976562 581.666015625 552.500976562 605.276367188 c 0
 552.500976562 615.491210938 550.8515625 609.97265625 550.8515625 622.22265625 c 0
EndSplineSet
EndChar

StartChar: period
Encoding: 46 46 33
Width: 220
Flags: HW
LayerCount: 2
Fore
SplineSet
23.94921875 79.0595703125 m 4
 23.94921875 67.7958984375 26.7236328125 41.533203125 50.9169921875 26.6376953125 c 4
 55.9619140625 23.53515625 59.888671875 20.7900390625 63.978515625 17.9248046875 c 4
 72.853515625 11.70703125 89.76171875 0 112 0 c 4
 189.40625 0 209.361328125 89.736328125 176.587890625 126.05078125 c 4
 168.295898438 135.2421875 160.643554688 138.814453125 157.452148438 140.619140625 c 4
 148.532226562 145.663085938 148.532226562 145.663085938 145.815429688 146.561523438 c 4
 138.423828125 149.006835938 137 149.638671875 130.807617188 152.383789062 c 4
 126.708984375 154.84765625 111.865234375 162.338867188 94.8359375 153.703125 c 5
 61.9375 164.767578125 23.94921875 124.397460938 23.94921875 79.0595703125 c 4
EndSplineSet
EndChar

StartChar: exclam
Encoding: 33 33 34
Width: 215
Flags: HW
LayerCount: 2
Fore
SplineSet
22.94921875 79.0595703125 m 0
 22.94921875 67.7958984375 25.7236328125 41.533203125 49.9169921875 26.6376953125 c 0
 54.9619140625 23.53515625 58.888671875 20.7900390625 62.978515625 17.9248046875 c 0
 71.853515625 11.70703125 88.76171875 0 111 0 c 0
 188.40625 0 208.361328125 89.736328125 175.587890625 126.05078125 c 0
 167.295898438 135.2421875 159.643554688 138.814453125 156.452148438 140.619140625 c 0
 147.532226562 145.663085938 147.532226562 145.663085938 144.815429688 146.561523438 c 0
 137.423828125 149.006835938 136 149.638671875 129.807617188 152.383789062 c 0
 125.708984375 154.84765625 110.865234375 162.338867188 93.8359375 153.703125 c 1
 60.9375 164.767578125 22.94921875 124.397460938 22.94921875 79.0595703125 c 0
147.944335938 339.967773438 m 4
 147.944335938 341.060546875 150.198242188 389.78125 150.096679688 449.241210938 c 4
 150.134765625 451.315429688 155.224609375 626.326171875 155.548828125 656.663085938 c 4
 155.55859375 657.5234375 157.595703125 739.916015625 158.288085938 742.673828125 c 4
 159.915039062 749.158203125 163.935546875 765.1875 151.139648438 780 c 4
 148.251953125 783.34375 138.751953125 792.682617188 122.033203125 793.7109375 c 5
 95.2255859375 810.286132812 59.0478515625 790.107421875 62.7470703125 763.274414062 c 5
 57.15625 743.05859375 41.0751953125 736.389648438 45.4892578125 704.223632812 c 4
 47.189453125 691.836914062 50.787109375 587.728515625 50.841796875 586.551757812 c 4
 52.263671875 556.100585938 57.822265625 488.329101562 59.8544921875 423.572265625 c 4
 60.94921875 388.696289062 61.5439453125 381.96875 64.435546875 357.321289062 c 4
 66.1435546875 342.756835938 67.666015625 329.240234375 67.666015625 316.751953125 c 4
 67.666015625 297.266601562 66.13671875 251.4296875 66.13671875 250.76953125 c 4
 66.13671875 221.249023438 109.9765625 207.916015625 131.756835938 230.993164062 c 6
 143.286132812 243.208007812 l 6
 148.392578125 248.618164062 151.451171875 255.498046875 151.451171875 262.984375 c 4
 151.451171875 283.083007812 147.944335938 318.758789062 147.944335938 339.967773438 c 4
EndSplineSet
EndChar

StartChar: question
Encoding: 63 63 35
Width: 486
Flags: HW
LayerCount: 2
Fore
SplineSet
154.94921875 79.0595703125 m 0
 154.94921875 67.7958984375 157.723632812 41.533203125 181.916992188 26.6376953125 c 0
 186.961914062 23.53515625 190.888671875 20.7900390625 194.978515625 17.9248046875 c 0
 203.853515625 11.70703125 220.76171875 0 243 0 c 0
 320.40625 0 340.361328125 89.736328125 307.587890625 126.05078125 c 0
 299.295898438 135.2421875 291.643554688 138.814453125 288.452148438 140.619140625 c 0
 279.532226562 145.663085938 279.532226562 145.663085938 276.815429688 146.561523438 c 0
 269.423828125 149.006835938 268 149.638671875 261.807617188 152.383789062 c 0
 257.708984375 154.84765625 242.865234375 162.338867188 225.8359375 153.703125 c 1
 192.9375 164.767578125 154.94921875 124.397460938 154.94921875 79.0595703125 c 0
373.182617188 608.302734375 m 0
 373.182617188 592.388671875 373.182617188 566.37890625 358.697265625 525.147460938 c 0
 344.213867188 483.91796875 326.873046875 464.216796875 296.553710938 438.025390625 c 0
 296.104492188 437.672851562 268.294921875 415.33984375 254.208984375 399.772460938 c 0
 253.69921875 399.208984375 225.134765625 366.083007812 212.840820312 336.104492188 c 0
 207.887695312 324.026367188 199.00390625 290.306640625 202.837890625 274.370117188 c 0
 206.637695312 258.571289062 214.680664062 253.387695312 218.236328125 246.625 c 0
 224.78515625 234.168945312 230.950195312 219.297851562 260.654296875 231.268554688 c 0
 264.884765625 231.729492188 283.171875 242.536132812 287.4140625 248.8046875 c 0
 295.07421875 260.127929688 293.81640625 270.048828125 293.779296875 270.73046875 c 0
 294.625976562 317.578125 323.69921875 342.361328125 350.768554688 365.436523438 c 0
 364.263671875 376.939453125 377.748046875 388.43359375 383.774414062 394.532226562 c 0
 395.344726562 406.23828125 411.604492188 426.344726562 426.373046875 457.946289062 c 0
 438.2265625 483.310546875 441.73046875 490.80859375 447.55078125 513.673828125 c 0
 456.311523438 548.102539062 458.7578125 576.994140625 458.7578125 609.240234375 c 0
 458.7578125 632.28515625 457.030273438 641.336914062 452.4765625 658.060546875 c 0
 446.669921875 679.390625 437.3203125 700.34765625 422.676757812 719.102539062 c 0
 422.53515625 719.283203125 413.127929688 730.095703125 406.954101562 735.822265625 c 0
 390.063476562 751.491210938 377.202148438 758.5 348.83203125 773.9609375 c 0
 348.592773438 774.090820312 308.884765625 795.69140625 261.01953125 795.69140625 c 0
 244.56640625 796.173828125 202.795898438 797.3984375 156.245117188 774.166992188 c 0
 134.467773438 763.298828125 127.591796875 759.8671875 107.443359375 741.561523438 c 0
 97.9892578125 732.969726562 83.279296875 719.060546875 73.5634765625 705.912109375 c 0
 72.6044921875 704.61328125 19.123046875 626.3046875 22.8310546875 552.658203125 c 0
 24.908203125 511.3984375 48.4638671875 496.03125 89.6962890625 476.573242188 c 0
 115.435546875 461.798828125 146.583007812 477.745117188 146.583007812 504.28125 c 0
 146.583007812 508.325195312 146.583007812 520.755859375 131.6328125 531.494140625 c 0
 129.091796875 535.771484375 127.688476562 535.993164062 126.875 538.462890625 c 0
 124.360351562 551.91015625 122.140625 574.029296875 146.125976562 626.850585938 c 0
 156.611328125 649.940429688 167.37890625 666.041015625 179.317382812 677.987304688 c 0
 188.041015625 686.71484375 203.680664062 698.90234375 216.481445312 704.729492188 c 0
 222.150390625 707.309570312 245.326171875 717.033203125 272.564453125 717.033203125 c 0
 288.276367188 717.033203125 313.465820312 713.251953125 329.140625 705.55078125 c 0
 333.178710938 702.239257812 337.014648438 699.9609375 338.984375 698.383789062 c 0
 366.5546875 673.651367188 373.182617188 634.90625 373.182617188 608.302734375 c 0
EndSplineSet
EndChar

StartChar: comma
Encoding: 44 44 36
Width: 209
Flags: HW
LayerCount: 2
Fore
SplineSet
164.936523438 -12.84375 m 4
 175.875976562 13.3203125 181.1640625 15.7744140625 185.618164062 34.8994140625 c 4
 187.142578125 41.455078125 191.466796875 65.513671875 178.349609375 84.9248046875 c 6
 140.626953125 140.736328125 l 6
 121.241210938 169.415039062 77.9287109375 163.065429688 60.32421875 120.958007812 c 4
 56.6650390625 112.203125 56.6650390625 112.203125 52.576171875 95.177734375 c 4
 52.412109375 94.5859375 36.2119140625 38.724609375 35.7216796875 36.1806640625 c 4
 27.2421875 -7.8115234375 26.2138671875 -19.2294921875 26.1044921875 -19.787109375 c 4
 24.3837890625 -28.546875 10.75 -75.2021484375 9.59765625 -95.662109375 c 4
 2.654296875 -120.745117188 5.193359375 -134.986328125 15.3994140625 -150.69140625 c 4
 32.380859375 -176.833007812 67.4765625 -174.389648438 87 -146 c 4
 102.955078125 -122.796875 98.6806640625 -141.543945312 122.247070312 -94.90234375 c 4
 134.520507812 -70.615234375 130.0859375 -85.9521484375 148.267578125 -51.6826171875 c 4
 153.258789062 -42.275390625 153.258789062 -42.275390625 154.30078125 -39.7822265625 c 4
 155.493164062 -36.9326171875 160.168945312 -24.2509765625 164.936523438 -12.84375 c 4
EndSplineSet
EndChar

StartChar: quotedbl
Encoding: 34 34 37
Width: 321
Flags: HW
LayerCount: 2
Fore
SplineSet
287.005859375 772.034179688 m 0
 287.005859375 790.91796875 290.064453125 793.897460938 287.521484375 806.676757812 c 0
 286.6484375 811.05859375 282.536132812 826.728515625 267.32421875 834.551757812 c 2
 223.564453125 857.05859375 l 2
 200.997070312 868.665039062 171.938476562 852.1171875 171.938476562 821.879882812 c 0
 171.938476562 815.567382812 171.938476562 815.567382812 174.110351562 804.169921875 c 0
 174.169921875 803.767578125 179.58984375 764.36328125 179.706054688 763.90234375 c 0
 187.099609375 733.881835938 189.495117188 727.91796875 189.583984375 727.55078125 c 0
 190.975585938 721.80078125 198.471333885 690.798408831 200.485351562 677.26953125 c 0
 203.028320312 660.1875 217.971679688 603.446289062 230 597 c 0
 250 586.282226562 265.56292645 646.882473361 271.044921875 669.564453125 c 0
 275.532226562 688.130859375 278.083007812 675.620117188 280.998046875 710.440429688 c 0
 282.5078125 728.466796875 283.943359375 718.177734375 286.696289062 743.91015625 c 0
 287.454101562 750.997070312 287.454101562 750.997070312 287.454101562 752.795898438 c 0
 287.454101562 754.848632812 287.005859375 763.810546875 287.005859375 772.034179688 c 0
129.165039062 773.982421875 m 0
 129.165039062 792.83203125 132.223632812 795.845703125 129.690429688 808.559570312 c 0
 128.822265625 812.935546875 124.723632812 828.633789062 109.484375 836.47265625 c 2
 65.7265625 858.98046875 l 2
 43.162109375 870.588867188 14.0986328125 854.043945312 14.0986328125 823.801757812 c 0
 14.0986328125 817.4921875 14.0986328125 817.4921875 16.2685546875 806.094726562 c 0
 16.328125 805.693359375 21.455078125 767.489257812 21.8662109375 765.823242188 c 0
 28.9755859375 736.967773438 31.65234375 729.840820312 31.7421875 729.474609375 c 0
 33.134765625 723.719726562 40.6326599986 692.711579265 42.646484375 679.185546875 c 0
 45.189453125 662.10546875 59.9794921875 606.44140625 72 600 c 0
 92 589.282226562 107.72277285 648.806376375 113.205078125 671.48828125 c 0
 117.693359375 690.057617188 120.23828125 677.551757812 123.157226562 712.361328125 c 0
 124.670898438 730.413085938 126.094726562 720.067382812 128.856445312 745.838867188 c 0
 129.614257812 752.913085938 129.614257812 752.913085938 129.614257812 754.719726562 c 0
 129.614257812 756.776367188 129.165039062 765.759765625 129.165039062 773.982421875 c 0
EndSplineSet
EndChar

StartChar: percent
Encoding: 37 37 38
Width: 648
Flags: HW
LayerCount: 2
Fore
SplineSet
533.041015625 262.544921875 m 0
 528.224609375 265.802734375 519.73828125 271.209960938 501.888671875 267.44921875 c 1
 488.439453125 277.83203125 481.654296875 279.389648438 456.455078125 276.060546875 c 0
 441.951171875 274.143554688 439.627929688 273.836914062 420.921875 265.801757812 c 0
 412.893554688 262.353515625 401.251953125 250.92578125 401.076171875 250.75 c 0
 387.981445312 237.688476562 367.633789062 211.333984375 363.346679688 170.719726562 c 0
 357.7890625 118.076171875 368.997070312 91.5498046875 389.671875 67.7314453125 c 0
 406.168945312 48.7265625 415.63671875 44.0380859375 446 29 c 0
 475.4609375 14.412109375 541.474609375 18.8447265625 576.470703125 49.626953125 c 0
 583.685546875 55.9755859375 586.17578125 59.2509765625 595.305664062 71.2607421875 c 0
 599.119140625 76.27734375 615.943359375 100.470703125 615.943359375 136.939453125 c 0
 615.943359375 201.8046875 592.92578125 227.30078125 569.895507812 244.083984375 c 0
 561.643554688 250.09765625 549.869140625 258.033203125 533.041015625 262.544921875 c 0
508.7265625 193.251953125 m 1
 518.459960938 175.3125 521.724609375 137.142578125 508.087890625 118.784179688 c 0
 507.234375 117.634765625 500.512695312 110.872070312 500.315429688 110.724609375 c 0
 490.573242188 103.479492188 465.49609375 100.102539062 461.112304688 102.969726562 c 0
 457.762695312 106.438476562 458.28515625 105.666992188 455.733398438 110.37109375 c 0
 455.341796875 111.09375 444.814453125 130.868164062 451.516601562 157.798828125 c 0
 454.431640625 169.512695312 462.296875 183.423828125 468.106445312 188.575195312 c 0
 471.3125 190.840820312 476.197265625 194.291992188 490.795898438 194.291992188 c 0
 494.657226562 194.291992188 499.400390625 191.514648438 508.7265625 193.251953125 c 1
173.606445312 588.32421875 m 1
 182.6640625 567.162109375 181.48046875 534.881835938 173.157226562 520.4140625 c 0
 165.077148438 506.375 145.393554688 502.0703125 129.145507812 505.59765625 c 1
 111.265625 527.153320312 117.016601562 555.391601562 124.8828125 568.140625 c 0
 127.747070312 572.262695312 133.153320312 576.637695312 140.55078125 579.989257812 c 0
 146.352539062 579.58203125 147.114257812 580.10546875 151.916992188 580.10546875 c 0
 160.231445312 580.10546875 167.828125 583.2109375 173.606445312 588.32421875 c 1
154.379882812 422.315429688 m 0
 224 419.541992188 277.422851562 461.615234375 271.176757812 555.008789062 c 0
 268.481445312 595.314453125 245.303710938 635.91796875 222.235351562 651.008789062 c 0
 215.459960938 655.440429688 211.31640625 658.481445312 207.8359375 661.03125 c 0
 190.108398438 674.014648438 182.362304688 675.602539062 161.084960938 670.34765625 c 1
 144.01953125 669.353515625 139.888671875 669.11328125 132.033203125 663.250976562 c 1
 125.600585938 664.680664062 109.163085938 666.907226562 91.31640625 658.047851562 c 0
 56.162109375 640.596679688 47.1728515625 622.439453125 38.9423828125 605.81640625 c 0
 38.5322265625 604.98828125 18.8046875 563.55859375 33.0234375 513.610351562 c 0
 38.3525390625 494.891601562 51.4384765625 466.530273438 83.298828125 448.859375 c 0
 125.264648438 425.577148438 132.911132812 423.166992188 154.379882812 422.315429688 c 0
562.942382812 600.44140625 m 0
 585.89453125 625.348632812 567.94140625 646.747070312 559.353515625 652.495117188 c 2
 521.666015625 677.719726562 l 2
 520.463867188 678.524414062 494.59375 695.33203125 473.725585938 666.043945312 c 0
 472.126953125 663.803710938 442.796875 613.365234375 431.974609375 586.518554688 c 0
 423.372070312 565.180664062 411.956054688 544.903320312 396.736328125 519.514648438 c 0
 366.912109375 469.793945312 335.85546875 424.301757812 300.620117188 377.380859375 c 0
 295.428710938 370.467773438 266.671875 330.791992188 266.327148438 330.322265625 c 0
 263.918945312 327.715820312 248.571289062 306.095703125 248.4375 305.887695312 c 0
 216.27734375 255.75390625 180.329101562 209.87109375 179.6640625 208.885742188 c 0
 166.748046875 189.758789062 151.296875 171.333984375 135.024414062 152.028320312 c 0
 116.497070312 130.046875 112.846679688 125.71484375 89.8701171875 94.9404296875 c 0
 69.9091796875 68.203125 65.9208984375 62.861328125 65.9208984375 48.384765625 c 0
 65.9208984375 31.861328125 76.6826171875 21.779296875 82.3759765625 16.4453125 c 0
 90.9736328125 8.390625 90.9736328125 8.390625 102.216796875 4.12109375 c 0
 125.813476562 -4.837890625 140.955078125 -1.708984375 157.446289062 19.736328125 c 0
 166.318359375 30.77734375 179.094726562 62.708984375 211.0390625 105.8125 c 0
 211.452148438 106.37109375 250.627929688 157.162109375 253.147460938 161.020507812 c 0
 294.545898438 224.422851562 305.711914062 239.859375 319.341796875 258.502929688 c 0
 324.291992188 265.272460938 341.481445312 291.654296875 352.67578125 307.69921875 c 0
 358.31640625 315.784179688 408.21484375 390.725585938 408.786132812 391.55859375 c 0
 425.028320312 414.788085938 425.028320312 414.788085938 428.559570312 419.504882812 c 0
 428.999023438 420.092773438 467.674804688 472.954101562 471.276367188 479.266601562 c 0
 502.067382812 521.599609375 502.067382812 521.599609375 520.52734375 543.65625 c 0
 526.381835938 550.65234375 547.096679688 583.794921875 558.674804688 595.907226562 c 0
 559.701171875 596.98046875 561.123046875 598.46875 562.942382812 600.44140625 c 0
EndSplineSet
EndChar

StartChar: quotesingle
Encoding: 39 39 39
Width: 214
Flags: HW
LayerCount: 2
Fore
SplineSet
163.3125 739.706054688 m 0
 163.3125 760.349609375 166.396484375 763.641601562 163.834960938 777.60546875 c 0
 162.956054688 782.391601562 158.809570312 799.55078125 143.451171875 808.1171875 c 2
 99.2919921875 832.74609375 l 2
 76.599609375 845.403320312 47.1904296875 827.471679688 47.1904296875 794.249023438 c 0
 47.1904296875 787.341796875 47.1904296875 787.341796875 49.380859375 774.872070312 c 0
 49.44140625 774.431640625 54.615234375 732.631835938 55.029296875 730.805664062 c 0
 62.19921875 699.248046875 64.9072265625 691.4296875 64.9970703125 691.028320312 c 0
 66.4013671875 684.735351562 70.646484375 649.790039062 76 636 c 0
 78.5625 617.3359375 84.7060546875 608.80078125 96.8359375 601.73828125 c 0
 117.022460938 589.983398438 141.66796875 602.741210938 147.205078125 627.57421875 c 0
 151.728515625 647.866210938 151.205078125 640.57421875 157.249023438 672.299804688 c 0
 160.97265625 691.84375 160.211914062 680.663085938 163 708.926757812 c 0
 163.765625 716.684570312 163.765625 716.684570312 163.765625 718.65234375 c 0
 163.765625 720.900390625 163.3125 730.708007812 163.3125 739.706054688 c 0
EndSplineSet
EndChar

StartChar: parenleft
Encoding: 40 40 40
Width: 290
Flags: HW
LayerCount: 2
Fore
SplineSet
175.098632812 5.65625 m 0
 217.912109375 -9.494140625 231.2265625 26.671875 226.319335938 43.8037109375 c 0
 225.884765625 55.423828125 220.83984375 64.0576171875 217.115234375 70.4326171875 c 0
 184.471679688 126.303710938 175.35546875 142.19140625 163.893554688 167.1328125 c 0
 159.823242188 175.991210938 159.823242188 175.991210938 146.340820312 203.614257812 c 0
 133.541015625 236.524414062 133.541015625 236.524414062 129.034179688 253.322265625 c 0
 121.213867188 282.46484375 114.907226562 322.75390625 118 373 c 0
 119.93359375 404.399414062 122.536132812 446.6875 155.377929688 521.852539062 c 0
 155.735351562 522.5625 178.174804688 567.938476562 190.896484375 593.041015625 c 0
 204.424804688 619.734375 208.784179688 625.071289062 210.453125 628.096679688 c 0
 214.762695312 635.911132812 221.798828125 648.670898438 214.77734375 664.453125 c 0
 207.875 679.96484375 193.90625 683.529296875 184.88671875 685.830078125 c 0
 180.551757812 686.936523438 175.287109375 688.251953125 167.873046875 690.79296875 c 0
 161.44140625 695.314453125 154.153320312 700.288085938 143.153320312 700.288085938 c 0
 142.73828125 700.288085938 116.641601562 699.807617188 111.0625 673.903320312 c 0
 107.521484375 668.946289062 102.96875 660.168945312 104.543945312 649.215820312 c 1
 82.439453125 590.630859375 82.0185546875 589.186523438 72.4951171875 556.482421875 c 0
 55.1865234375 505.489257812 49.7578125 485.715820312 46.4482421875 470.126953125 c 0
 39.2470703125 436.209960938 36.9794921875 407.694335938 35.0302734375 373.256835938 c 0
 34.994140625 372.606445312 34.228515625 329.973632812 36.291015625 308.09765625 c 0
 40.23046875 266.305664062 51.8310546875 227.952148438 63.18359375 191.57421875 c 0
 72.1083984375 162.46484375 72.1083984375 162.46484375 77.7861328125 148.889648438 c 0
 81.1240234375 140.908203125 90.107421875 117.515625 90.236328125 117.200195312 c 0
 90.4775390625 116.606445312 109.512695312 71.59765625 117.153320312 59.0908203125 c 0
 127.749023438 41.7490234375 127.749023438 41.7490234375 138.828125 30.0146484375 c 0
 149.595703125 18.607421875 151.620117188 16.462890625 167.203125 9.2470703125 c 0
 174.504882812 5.8662109375 174.504882812 5.8662109375 175.098632812 5.65625 c 0
EndSplineSet
EndChar

StartChar: parenright
Encoding: 41 41 41
Width: 273
Flags: HW
LayerCount: 2
Fore
SplineSet
52.8955078125 50.658203125 m 0
 46.72265625 25.8056640625 72.0537109375 1.3125 99.576171875 12 c 0
 106.23828125 13.55859375 120.881835938 21.24609375 127.19140625 25.759765625 c 0
 127.578125 26.0361328125 145.903320312 40.482421875 158 62 c 0
 172.817382812 88.3583984375 181.015625 110.619140625 195.71875 150.54296875 c 0
 198.745117188 158.759765625 202.114257812 166.443359375 205.252929688 176.000976562 c 0
 205.456054688 176.619140625 205.456054688 176.619140625 212.657226562 202.1328125 c 0
 238.91015625 293.461914062 238.458984375 312.526367188 236.799804688 382.659179688 c 0
 236.15234375 410.037109375 228.037109375 460.127929688 223.112304688 480.999023438 c 0
 215.081054688 515.028320312 199.466796875 552.494140625 192.625 574.817382812 c 0
 185.62890625 597.643554688 171.815429688 631.895507812 160.990234375 658.73828125 c 0
 161.65625 664.256835938 161.212890625 673.53125 153.915039062 683.272460938 c 1
 148.854492188 704.345703125 125.057617188 716.614257812 103.430664062 703.470703125 c 0
 100.431640625 701.647460938 98.7109375 700.327148438 96.7421875 698.875 c 0
 90.0830078125 696.424804688 72.375 691.270507812 72.1318359375 691.18359375 c 0
 53.744140625 684.591796875 41.076171875 665.27734375 51.494140625 642.80078125 c 0
 52.2294921875 641.213867188 54.861328125 635.840820312 59.9912109375 628.274414062 c 0
 67.0068359375 617.926757812 79.02734375 595.260742188 97.873046875 559.1328125 c 0
 102.856445312 549.579101562 107.8828125 539.942382812 113.041992188 530.26171875 c 0
 128.694335938 496.532226562 141.220703125 462.500976562 147.94140625 427.983398438 c 0
 151.849609375 407.907226562 163.409179688 335.967773438 145.434570312 262.395507812 c 0
 138.09765625 232.36328125 133.006835938 221.091796875 117.255859375 186.21484375 c 0
 117.145507812 185.96875 108.293945312 165.682617188 106.34375 161.5546875 c 0
 89.498046875 125.900390625 59.6015625 76.6689453125 55.376953125 64.5185546875 c 0
 53.1630859375 58.142578125 52.9345703125 53.265625 52.8955078125 50.658203125 c 0
EndSplineSet
EndChar

StartChar: asterisk
Encoding: 42 42 42
Width: 392
Flags: HW
LayerCount: 2
Fore
SplineSet
233.6796875 813.077148438 m 0
 234.487304688 824.684570312 238.805664062 829.60546875 238.805664062 839.248046875 c 0
 238.805664062 851.54296875 231.883789062 862.234375 221.727539062 867.633789062 c 2
 191.754882812 883.569335938 l 2
 170.51171875 894.86328125 144.581054688 879.401367188 144.581054688 855.18359375 c 0
 144.581054688 854.736328125 145.262695312 818.099609375 146.809570312 810.477539062 c 0
 149.33984375 797.997070312 153.8828125 790.540039062 154.895507812 784.349609375 c 1
 154.747070312 784.450195312 141.250976562 793.239257812 139.921875 794.130859375 c 0
 134.135742188 797.969726562 113.962890625 811.143554688 106.58984375 816.197265625 c 0
 95.93359375 823.501953125 80.443359375 834.120117188 66.708984375 834.120117188 c 0
 50.3271484375 834.120117188 36.79296875 821.833007812 34.828125 805.979492188 c 0
 30.4384765625 770.561523438 30.4384765625 770.561523438 30.4384765625 768.5546875 c 0
 30.4384765625 753.19140625 41.24609375 740.33203125 55.66796875 737.171875 c 0
 71.576171875 733.686523438 89.6015625 723.5390625 113.493164062 709.044921875 c 1
 97.705078125 690.012695312 97.705078125 690.012695312 85.1806640625 677.885742188 c 0
 72.2470703125 665.362304688 66.3720703125 659.672851562 66.3720703125 645.947265625 c 0
 66.3720703125 634.264648438 72.6220703125 624.029296875 81.9580078125 618.40625 c 2
 110.045898438 601.490234375 l 2
 124.889648438 592.55078125 144.31640625 597.03125 153.723632812 611.83984375 c 0
 153.931640625 612.16796875 158.940429688 618.111328125 177 643 c 0
 188.090820312 657.762695312 188.090820312 657.762695312 189.122070312 659.224609375 c 1
 203.760742188 639.404296875 203.474609375 644.766601562 224.158203125 614.270507812 c 0
 226.521484375 610.786132812 229.006835938 607.1171875 231.698242188 603.3203125 c 0
 243.7421875 586.333007812 268.504882812 585.08203125 282.177734375 600.813476562 c 2
 303.685546875 625.559570312 l 2
 315.103515625 638.697265625 313.989257812 658.57421875 301.065429688 670.359375 c 0
 300.778320312 670.62109375 295.783203125 676.586914062 274.395507812 698.657226562 c 0
 272.473632812 700.70703125 266.963867188 706.659179688 266.888671875 706.740234375 c 1
 269.953125 708.228515625 278.524414062 712.67578125 283.0546875 714.893554688 c 0
 288.229492188 717.459960938 310.9453125 728.916992188 318.856445312 732.69140625 c 0
 338.180664062 741.912109375 358.721679688 752.201171875 358.721679688 774.35546875 c 0
 358.721679688 784.817382812 353.709960938 794.1171875 345.959960938 799.984375 c 2
 319.094726562 820.322265625 l 2
 305.936523438 830.283203125 287.26171875 828.665039062 276.010742188 816.352539062 c 0
 265.31640625 804.6484375 247.752929688 794.111328125 223.20703125 780.698242188 c 1
 231.083984375 792.911132812 232.7578125 799.828125 233.6796875 813.077148438 c 0
EndSplineSet
EndChar

StartChar: hyphen
Encoding: 45 45 43
Width: 380
Flags: HW
LayerCount: 2
Fore
SplineSet
262.291015625 295.956054688 m 0
 288.247070312 296.747070312 322.734375 296.55859375 323.345703125 296.578125 c 0
 352.967773438 297.553710938 372.366210938 325.5 354.103515625 349.021484375 c 0
 348.618164062 356.087890625 348.618164062 356.087890625 344.614257812 358.92578125 c 0
 322.395507812 374.678710938 322.395507812 374.678710938 319.337890625 376.134765625 c 0
 317.536132812 376.9921875 317.47265625 377.061523438 316.626953125 377.5390625 c 0
 312.440429688 379.905273438 304.692382812 384.28515625 290.997070312 383.833984375 c 0
 285.651367188 383.658203125 121.584960938 370.97265625 69.04296875 369.243164062 c 0
 57.119140625 368.850585938 47.0625 368.834960938 46.8388671875 368.828125 c 0
 12.05078125 367.682617188 -3.572265625 330.334960938 22.9013671875 311.140625 c 2
 52.41015625 289.745117188 l 2
 59.3994140625 284.677734375 68.5634765625 281.748046875 78.5 282.075195312 c 0
 80.3427734375 282.135742188 169.061523438 292.678710938 262.291015625 295.956054688 c 0
EndSplineSet
EndChar

StartChar: asciitilde
Encoding: 126 126 44
Width: 490
Flags: HW
LayerCount: 2
Fore
SplineSet
434.635742188 327.768554688 m 0
 453.514648438 348.71484375 451.86328125 372.087890625 447 386 c 0
 446.729492188 386.774414062 411.668945312 439.661132812 376.752929688 396.22265625 c 0
 368.127929688 385.4921875 333.522460938 369.938476562 315.177734375 366.735351562 c 0
 299.094726562 363.926757812 291.470703125 368.05078125 276.619140625 376.177734375 c 0
 276.071289062 376.477539062 227.333984375 414.673828125 222 417 c 0
 217.599609375 418.918945312 188.61328125 433 167 433 c 0
 151.528320312 433 110.78125 413.094726562 73.4814453125 382.108398438 c 0
 54.81640625 366.602539062 54.81640625 366.602539062 49.1123046875 362.73828125 c 0
 29.8564453125 349.689453125 30.15234375 320.607421875 50.140625 308.841796875 c 2
 70.6630859375 296.76171875 l 2
 73.666015625 294.889648438 98.5146484375 292.806640625 110 301 c 0
 118.275390625 306.903320312 132.235351562 316.967773438 139.798828125 324.020507812 c 0
 163.063476562 345.711914062 166.319335938 357.119140625 194 341 c 0
 204.3125 334.994140625 210.095703125 331.090820312 228 317 c 0
 232.448242188 313.5 241.366210938 307.4765625 245.6796875 304.69921875 c 0
 264.236328125 292.750976562 266.5859375 292.266601562 290 285 c 0
 319 276 359.813476562 278.609375 421.231445312 314.388671875 c 0
 423.928710938 315.959960938 432.852539062 325.790039062 434.635742188 327.768554688 c 0
EndSplineSet
EndChar

StartChar: colon
Encoding: 58 58 45
Width: 260
Flags: HW
LayerCount: 2
Fore
SplineSet
43.5263671875 171.176757812 m 0
 43.5263671875 160.330078125 46.3271484375 135.020507812 70.7822265625 120.693359375 c 0
 75.880859375 117.705078125 79.8505859375 115.0625 83.984375 112.302734375 c 0
 92.955078125 106.315429688 110.047851562 95.04296875 132.52734375 95.04296875 c 0
 210.748046875 95.04296875 230.950195312 181.415039062 197.805664062 216.412109375 c 0
 189.428710938 225.255859375 181.69921875 228.6953125 178.473632812 230.43359375 c 0
 169.459960938 235.290039062 169.459960938 235.290039062 166.70703125 236.158203125 c 0
 159.448242188 238.446289062 157.28515625 239.299804688 151.466796875 241.803710938 c 0
 147.311523438 244.169921875 132.341796875 251.323242188 115.177734375 243.034179688 c 1
 81.9033203125 253.694335938 43.5263671875 214.78125 43.5263671875 171.176757812 c 0
46.16796875 496.28515625 m 0
 46.16796875 485.673828125 48.90625 460.875 72.8662109375 446.838867188 c 0
 77.8603515625 443.911132812 81.748046875 441.322265625 85.796875 438.620117188 c 0
 94.583984375 432.755859375 111.32421875 421.71484375 133.340820312 421.71484375 c 0
 209.956054688 421.71484375 229.745117188 506.313476562 197.28125 540.591796875 c 0
 189.07421875 549.255859375 181.50390625 552.624023438 178.342773438 554.325195312 c 0
 169.51171875 559.083984375 169.51171875 559.083984375 166.818359375 559.932617188 c 0
 159.708984375 562.173828125 157.590820312 563.009765625 151.891601562 565.461914062 c 0
 147.821289062 567.779296875 133.159179688 574.787109375 116.34765625 566.666992188 c 1
 83.7568359375 577.108398438 46.16796875 538.994140625 46.16796875 496.28515625 c 0
EndSplineSet
EndChar

StartChar: uni2661
Encoding: 9825 9825 46
Width: 765
Flags: HW
LayerCount: 2
Fore
SplineSet
25.5673828125 440.594726562 m 0
 26.5107421875 388.817382812 57.107421875 324.000976562 85.0908203125 285.94921875 c 0
 93.724609375 274.20703125 94.5751953125 273.284179688 113.487304688 252.755859375 c 0
 113.8984375 252.30859375 136.4921875 229.224609375 158.504882812 211.961914062 c 0
 158.947265625 211.614257812 178.6484375 196.369140625 204.797851562 179.935546875 c 0
 234.973632812 160.971679688 276.670898438 131.408203125 280.036132812 129.143554688 c 0
 303.513671875 113.342773438 322.9921875 92.544921875 327.723632812 89.0078125 c 0
 338.305664062 81.095703125 338.305664062 81.095703125 363.842773438 65.384765625 c 0
 367.243164062 63.29296875 372.69140625 60.3466796875 380.291015625 60.1416015625 c 0
 383.865234375 58.8046875 393.6171875 56.1572265625 404.8515625 61.5595703125 c 0
 433.24609375 75.2119140625 433.24609375 75.2119140625 435.58984375 76.919921875 c 0
 440.27734375 78.9501953125 455.98046875 87.603515625 465.7890625 96.3994140625 c 0
 475.0625 104.646484375 483.684570312 112.9765625 492 121 c 0
 546.30859375 173.39453125 563.881835938 179.961914062 595.10546875 209.64453125 c 0
 627.71484375 240.646484375 643.350585938 261.053710938 661.063476562 284.173828125 c 0
 705.668945312 342.396484375 716.470703125 375.630859375 723.939453125 407.71875 c 0
 733.333984375 448.086914062 733.401367188 496.252929688 721.1875 532.122070312 c 0
 716.274414062 546.551757812 698.565429688 588.999023438 652.934570312 617.364257812 c 0
 602.874023438 648.485351562 567.19462181 669.080834456 507.850585938 657.958984375 c 0
 497.314453125 655.984375 464.511102183 646.447832186 423 610 c 0
 406.178710938 595.23046875 396.143554688 579.03125 389 571 c 5
 376.935546875 583.771484375 346.714691612 609.356765287 318 628 c 0
 264.784179688 662.55078125 243.090807832 666.835089845 204.989257812 667.396484375 c 0
 143.548828125 668.301757812 112.82421875 631.520507812 86.5947265625 600.120117188 c 0
 86.2333984375 599.6875 68.8994140625 577.506835938 56.6318359375 552.333984375 c 0
 56.1240234375 551.291992188 24.7314453125 486.37890625 25.5673828125 440.594726562 c 0
121.35546875 380.927734375 m 0
 111.028320312 414.98046875 105.325195312 433.786132812 123.794921875 482.989257812 c 0
 127.749023438 493.524414062 151.485565267 553.548001205 187.90234375 578.21484375 c 0
 222.034179688 601.333984375 268.107421875 561.33203125 268.81640625 560.880859375 c 0
 270.490234375 559.815429688 275.52734375 555.612304688 284.307617188 553.4765625 c 0
 288.129882812 550.989257812 291.912109375 548.663085938 295.588867188 546.393554688 c 0
 308.172851562 538.625976562 320.9369184 528.614725226 327.830078125 521.451171875 c 0
 335 514 339.84990387 506.82796876 344.907226562 501.89453125 c 0
 353 494 354 490 359.647460938 483.545898438 c 1
 362.866210938 478.083007812 l 2
 374.950195312 457.568359375 402.763497282 458.271441624 417.287109375 477.168945312 c 0
 421 482 424.085578331 486.132659008 427.694335938 490.717773438 c 0
 435 500 452.212890625 516.559570312 463 528 c 0
 477.895507812 542.11328125 502.147162751 571.505341538 531.823242188 577.669921875 c 0
 540.642578125 579.501953125 564.786132812 584.518554688 590.157226562 573.963867188 c 0
 593.484375 571.501953125 593.484375 571.501953125 602.747070312 566.737304688 c 0
 644.302734375 535.2421875 643.651367188 495.948242188 643.139648438 465.021484375 c 0
 642.559570312 452.390625 641.013671875 418.685546875 615.880859375 374.385742188 c 0
 594.390625 336.505859375 568.0703125 305.771484375 534.232421875 273.829101562 c 0
 508.458007812 251.196289062 490.026367188 228.254882812 466.591796875 209.18359375 c 0
 462.243164062 205.645507812 439.383789062 187.01953125 429.993164062 177.579101562 c 0
 426.642578125 174.2109375 418.822265625 169.134765625 411.978515625 161.6953125 c 0
 403.03515625 156.368164062 385.639648438 136.204101562 385.403320312 135.918945312 c 1
 364.9296875 154.5859375 351.06640625 164.462890625 335.37890625 175.372070312 c 0
 289.333007812 207.391601562 235.28125 242.122070312 234.28515625 242.818359375 c 0
 224.075195312 249.956054688 185.958984375 277.799804688 157.904296875 314.328125 c 0
 142.495117188 334.389648438 130.147460938 356.756835938 121.35546875 380.927734375 c 0
EndSplineSet
EndChar

StartChar: heart
Encoding: 9829 9829 47
Width: 781
Flags: HW
LayerCount: 2
Fore
SplineSet
36.76953125 422.659179688 m 0
 37.712890625 370.881835938 68.3095703125 306.065429688 96.29296875 268.013671875 c 0
 104.926757812 256.271484375 105.77734375 255.348632812 124.689453125 234.8203125 c 0
 125.100585938 234.373046875 147.694335938 211.2890625 169.70703125 194.026367188 c 0
 170.149414062 193.678710938 189.850585938 178.43359375 216 162 c 0
 246.17578125 143.036132812 287.873046875 113.47265625 291.23828125 111.208007812 c 0
 314.715820312 95.4072265625 334.194335938 74.609375 338.92578125 71.072265625 c 0
 339.3359375 70.765625 371.706054688 47.546875 382.35546875 43.90234375 c 0
 384.189453125 43.275390625 386.782226562 42.3876953125 391.4765625 42.2119140625 c 0
 395.056640625 40.87109375 404.8125 38.2177734375 416.053710938 43.6240234375 c 0
 444.454101562 57.279296875 444.454101562 57.279296875 446.802734375 58.9921875 c 0
 451.505859375 61.03125 467.190429688 69.6806640625 476.987304688 78.4638671875 c 0
 486.260742188 86.7109375 494.8828125 95.041015625 503.198242188 103.064453125 c 0
 559.829101562 157.69921875 562.94140625 151.380859375 610.2265625 195.4140625 c 0
 630.719726562 214.498046875 649.981445312 237.159179688 672.26171875 266.240234375 c 0
 716.868164062 324.463867188 727.668945312 357.6953125 735.137695312 389.78515625 c 0
 744.556640625 430.256835938 744.570728906 478.397581733 732.385742188 514.1875 c 0
 727.470703125 528.624023438 709.6328125 579.633789062 664 608 c 0
 613.916992188 639.134765625 578.396531321 651.140374359 519.038085938 640.022460938 c 0
 508.594726562 638.06640625 495.712201557 637.02875139 452 598 c 0
 424 573 410.139648438 539.024414062 403 531 c 1
 390.954101562 543.750976562 380.07142051 567.727685794 334 609 c 0
 286 652 254.402336296 648.897931346 216.19140625 649.4609375 c 0
 154.750976562 650.366210938 124.025390625 613.583007812 97.796875 582.184570312 c 0
 97.435546875 581.751953125 80.1005859375 559.567382812 67.833984375 534.3984375 c 0
 67.326171875 533.356445312 35.93359375 468.443359375 36.76953125 422.659179688 c 0
EndSplineSet
EndChar

StartChar: emdash
Encoding: 8212 8212 48
Width: 534
Flags: HW
LayerCount: 2
Fore
SplineSet
49.2568359375 386.994140625 m 4
 37.6044921875 386.994140625 29.3798828125 387.1953125 29.1796875 387.1953125 c 4
 -0.8662109375 387.1953125 -14.1337890625 348.807617188 9.6943359375 330.287109375 c 6
 36.431640625 309.506835938 l 6
 41.220703125 305.78515625 47.1015625 303.401367188 53.5087890625 302.920898438 c 4
 60.095703125 302.426757812 68.01171875 300.3203125 79.52734375 300.3203125 c 4
 114.614257812 300.3203125 118.657226562 306.59375 219.651367188 306.967773438 c 4
 220.474609375 306.96484375 245.240234375 306 302 306 c 4
 313.149414062 306 321.762695312 305.022460938 360.409179688 304.853515625 c 4
 379.149414062 304.771484375 397.397460938 304.680664062 415.165039062 303.805664062 c 4
 415.955078125 303.737304688 465.265625 299.833984375 494.338867188 299.833984375 c 4
 530.676757812 299.833984375 540.87109375 332.65625 527.856445312 353.211914062 c 4
 524.131835938 359.099609375 515.926757812 372.069335938 503.26953125 376.921875 c 4
 492.162109375 384.081054688 475.104492188 392.15234375 454.682617188 392.15234375 c 4
 454.01171875 392.15234375 426.2109375 391.3828125 387.693359375 388.541992188 c 4
 386.540039062 388.51171875 299.209960938 386.409179688 272.3359375 388.196289062 c 4
 263.14453125 388.807617188 168.225585938 390.2265625 166.428710938 390.2265625 c 4
 123.643554688 390.2265625 99.8291015625 386.994140625 49.2568359375 386.994140625 c 4
EndSplineSet
EndChar

StartChar: uni2010
Encoding: 8208 8208 49
Width: 347
Flags: HW
LayerCount: 2
Fore
SplineSet
234 302 m 0
 255.026367188 301.940429688 282.931640625 300.68359375 283.426757812 300.68359375 c 0
 307.424804688 300.68359375 323.868164062 326.615234375 309.71484375 349.522460938 c 0
 305.463867188 356.403320312 305.463867188 356.403320312 302.298828125 359.224609375 c 0
 284.737304688 374.876953125 284.737304688 374.876953125 282.301757812 376.356445312 c 0
 280.8671875 377.2265625 280.817382812 377.293945312 280.145507812 377.774414062 c 0
 276.8203125 380.15234375 270.666992188 384.552734375 259.571289062 384.552734375 c 0
 255.240234375 384.552734375 122.127929688 377.633789062 79.5595703125 377.633789062 c 0
 69.900390625 377.633789062 61.7607421875 377.93359375 61.580078125 377.93359375 c 0
 33.396484375 377.93359375 19.7578125 342.956054688 40.6708984375 323.901367188 c 2
 63.982421875 302.662109375 l 2
 69.5029296875 297.631835938 76.841796875 294.563476562 84.8916015625 294.563476562 c 0
 86.384765625 294.563476562 158.463867188 301.802734375 234 302 c 0
EndSplineSet
EndChar

StartChar: uni2011
Encoding: 8209 8209 50
Width: 347
Flags: HW
LayerCount: 2
Fore
SplineSet
234 302 m 0
 255.026367188 301.940429688 282.931640625 300.68359375 283.426757812 300.68359375 c 0
 307.424804688 300.68359375 323.868164062 326.615234375 309.71484375 349.522460938 c 0
 305.463867188 356.403320312 305.463867188 356.403320312 302.298828125 359.224609375 c 0
 284.737304688 374.876953125 284.737304688 374.876953125 282.301757812 376.356445312 c 0
 280.8671875 377.2265625 280.817382812 377.293945312 280.145507812 377.774414062 c 0
 276.8203125 380.15234375 270.666992188 384.552734375 259.571289062 384.552734375 c 0
 255.240234375 384.552734375 122.127929688 377.633789062 79.5595703125 377.633789062 c 0
 69.900390625 377.633789062 61.7607421875 377.93359375 61.580078125 377.93359375 c 0
 33.396484375 377.93359375 19.7578125 342.956054688 40.6708984375 323.901367188 c 2
 63.982421875 302.662109375 l 2
 69.5029296875 297.631835938 76.841796875 294.563476562 84.8916015625 294.563476562 c 0
 86.384765625 294.563476562 158.463867188 301.802734375 234 302 c 0
EndSplineSet
EndChar

StartChar: zero
Encoding: 48 48 51
Width: 524
Flags: HW
LayerCount: 2
Fore
SplineSet
246.446289062 619.717773438 m 1
 268.888671875 618.569335938 258.217773438 620.708984375 276.588867188 622.040039062 c 1
 300.552734375 606.118164062 314.5390625 589.633789062 327.361328125 567.274414062 c 0
 354.823242188 513.749023438 374.68359375 461.548828125 389.256835938 407.131835938 c 0
 409.940429688 329.895507812 390.463867188 261.6484375 378 221 c 0
 365.967773438 181.763671875 339.362304688 128.266601562 280.862304688 95.64453125 c 0
 264.778320312 87.4560546875 241.936523438 75.8251953125 213.73046875 77.076171875 c 1
 203.208984375 84.1064453125 185.544921875 98.6396484375 174.967773438 110.010742188 c 0
 158.185546875 128.0546875 128.55859375 171.213867188 118.587890625 232.668945312 c 0
 115.21484375 253.459960938 115.21484375 253.459960938 113.826171875 343.627929688 c 0
 115.172851562 390.233398438 116.094726562 422.14453125 141.92578125 500.333007812 c 0
 152.41796875 532.08203125 157.96484375 548.866210938 175.91796875 573.013671875 c 0
 183.048828125 582.60546875 198.096679688 600.296875 216.990234375 608.110351562 c 0
 219.162109375 608.110351562 223.680664062 608.110351562 228.58203125 610.26171875 c 0
 235.5625 611.39453125 241.78125 614.810546875 246.446289062 619.717773438 c 1
216.10546875 4.2373046875 m 0
 232.455078125 -0.001953125 285.775390625 -0.4443359375 334.189453125 28.5009765625 c 0
 355.98828125 41.5341796875 355.98828125 41.5341796875 369.573242188 53.21875 c 0
 399.767578125 79.1904296875 420.837890625 101.490234375 449.211914062 156.270507812 c 0
 459.435546875 176.262695312 460.384765625 179.890625 474.823242188 235.068359375 c 0
 480.45703125 256.594726562 480.819335938 259.1640625 485.809570312 317.749023438 c 0
 485.924804688 319.1015625 489.674804688 380.508789062 465.038085938 451.854492188 c 0
 464.551757812 453.26171875 426.448242188 562.110351562 411.157226562 590.634765625 c 0
 394.645507812 621.435546875 375.602539062 647.686523438 334.448242188 674.4609375 c 0
 333.704101562 674.9453125 283.537109375 701.71875 249.099609375 698.942382812 c 0
 248.803710938 698.918945312 229.83984375 697.14453125 219.885742188 693.677734375 c 0
 217.805664062 692.954101562 209.1875 689.865234375 202.838867188 681.299804688 c 1
 184.536132812 682.274414062 176.413085938 676.654296875 155.458007812 662.157226562 c 0
 154.661132812 661.606445312 116.978515625 633.37109375 94.833984375 586.473632812 c 0
 93.3056640625 583.236328125 86.38671875 569.033203125 79.609375 555.700195312 c 0
 65.185546875 527.319335938 56.501953125 499.2578125 46.9658203125 464.041992188 c 0
 38.8193359375 433.9609375 34.677734375 397.979492188 32.0048828125 351.46484375 c 0
 30.7021484375 335.646484375 30.890625 327.51171875 31.62890625 295.52734375 c 0
 31.642578125 294.908203125 32.8046875 250.010742188 35.7802734375 233.715820312 c 0
 55.1513671875 127.630859375 90.666015625 83.8046875 116.578125 57.865234375 c 0
 126.657226562 47.7763671875 142.06640625 34.65234375 163.583007812 21.7880859375 c 0
 171.5625 17.017578125 189.041015625 11.251953125 216.10546875 4.2373046875 c 0
EndSplineSet
EndChar

StartChar: one
Encoding: 49 49 52
Width: 390
Flags: HW
LayerCount: 2
Fore
SplineSet
90.486328125 423.268554688 m 0
 115.448242188 423.268554688 203.356445312 472.426757812 229.884765625 489.096679688 c 1
 229.846679688 488.428710938 226.458984375 425.47265625 226.375976562 422.327148438 c 0
 225.403320312 385.518554688 225.022460938 379.51171875 218.021484375 274.213867188 c 0
 217.916992188 272.651367188 210.75 154.821289062 207.9609375 117.931640625 c 0
 205.848632812 89.9853515625 205.791992188 88.5888671875 205.692382812 85.2919921875 c 0
 205.262695312 71.041015625 204.326171875 49.326171875 204.326171875 48.962890625 c 0
 204.326171875 32.0234375 212.4765625 24.7392578125 219.033203125 18.880859375 c 0
 221.03515625 16.8486328125 223.31640625 15.091796875 225.814453125 13.671875 c 0
 232.375 9.9443359375 232.041992188 8.8349609375 238.6796875 6.3515625 c 0
 246.0703125 3.5869140625 239.817382812 4.740234375 249.580078125 1.9677734375 c 0
 250.708007812 1.6474609375 251.493164062 1.4521484375 254.5234375 0.361328125 c 0
 256.987304688 -0.5263671875 259.733398438 -1.515625 268.220703125 -1.515625 c 0
 293.8203125 -1.515625 304.701171875 21.4453125 301.724609375 37.7412109375 c 0
 300.509765625 69.7353515625 300.443359375 71.484375 298.30078125 92.0986328125 c 0
 295.221679688 121.73046875 293.47265625 138.56640625 297 230 c 0
 298.387695312 265.974609375 298.62890625 275.87890625 299.342773438 314.596679688 c 0
 302.75390625 499.514648438 315.997070312 560.170898438 333.015625 616.891601562 c 0
 334.376953125 620.291992188 334.920898438 621.712890625 337.961914062 629.658203125 c 0
 342.1640625 635.75390625 343.725585938 640.4375 344.13671875 646.206054688 c 0
 346.892578125 656.768554688 346.228515625 682.118164062 315.725585938 689.745117188 c 0
 312.407226562 690.575195312 311.911132812 690.6796875 301.611328125 692.553710938 c 0
 294.954101562 695.991210938 291.794921875 697.622070312 284.235351562 697.622070312 c 0
 268.361328125 697.622070312 250.567382812 683.379882812 251.24609375 660.981445312 c 1
 237.046875 607.102539062 211.624023438 569.564453125 117.75390625 521.459960938 c 0
 108.555664062 516.74609375 84.7509765625 504.547851562 60.5810546875 501.484375 c 0
 32.1728515625 497.883789062 23.515625 460.25390625 47.888671875 444.6953125 c 2
 73.8720703125 428.109375 l 2
 78.6728515625 425.044921875 84.3740234375 423.268554688 90.486328125 423.268554688 c 0
EndSplineSet
EndChar

StartChar: two
Encoding: 50 50 53
Width: 568
Flags: HW
LayerCount: 2
Fore
SplineSet
432.12109375 98.806640625 m 0
 431.559570312 98.8251953125 399.763671875 98.0107421875 375.978515625 100.466796875 c 0
 324.640625 105.458007812 324.640625 105.458007812 296.255859375 105.8203125 c 0
 273.49609375 106.3515625 252.858398438 108.650390625 233.53125 114.840820312 c 0
 233.228515625 114.9375 215.572265625 120.090820312 202.732421875 122.739257812 c 1
 204.009765625 124.258789062 301.103515625 233.829101562 332.518554688 272.918945312 c 0
 351.9765625 297.1328125 405.512695312 366.33203125 434.482421875 429.607421875 c 0
 453.291992188 470.689453125 453.291992188 470.689453125 459.951171875 492.760742188 c 0
 469.665039062 524.952148438 474.400390625 547.432617188 460.41796875 602.1015625 c 0
 460.276367188 602.654296875 450.201171875 638.712890625 434.421875 652.90234375 c 0
 427.485351562 659.139648438 394.73046875 683.591796875 374.279296875 691.961914062 c 0
 359.545898438 697.990234375 359.545898438 697.990234375 331.361328125 701.049804688 c 0
 330.819335938 701.108398438 303.958984375 701.991210938 277.366210938 693.46875 c 0
 248.47265625 684.20703125 218.513671875 665.282226562 186.498046875 636.676757812 c 0
 159.544921875 612.595703125 139.1171875 583.920898438 120.440429688 548.069335938 c 0
 111.309570312 530.541015625 109.455078125 525.553710938 106.045898438 512.489257812 c 0
 101.634765625 495.584960938 92.5439453125 460.748046875 103.077148438 431.165039062 c 0
 104.626953125 426.825195312 110.025390625 414.495117188 122.850585938 408.939453125 c 2
 154.295898438 395.3203125 l 2
 175.76953125 386.020507812 200.05078125 401.811523438 200.05078125 425.397460938 c 0
 200.05078125 432.951171875 197.48828125 439.912109375 193.186523438 445.456054688 c 0
 192.90625 446.779296875 182.813476562 503.6875 247.528320312 569.259765625 c 0
 249.194335938 570.948242188 250.946289062 572.72265625 252.762695312 574.603515625 c 0
 274.259765625 593.560546875 296.328125 608.5546875 318.873046875 615.176757812 c 0
 335.577148438 620.081054688 345.478515625 618.928710938 358.353515625 617.4296875 c 1
 361.249023438 613.016601562 364.122070312 609.985351562 367.572265625 606.973632812 c 0
 390.791992188 553.412109375 371.969726562 508.419921875 359.836914062 479.416015625 c 0
 335.155273438 420.41796875 299.060546875 367.596679688 249.719726562 309.756835938 c 0
 230.95703125 287.762695312 223.661132812 279.5703125 183.52734375 241.213867188 c 0
 150.174804688 209.337890625 136.006835938 195.520507812 102.240234375 155.237304688 c 0
 101.888671875 154.817382812 101.546875 154.389648438 101.216796875 153.952148438 c 0
 93.5751953125 143.854492188 84.7373046875 134.806640625 74.5068359375 126.06640625 c 0
 63.6376953125 116.87890625 52.4765625 107.291015625 41.4814453125 96.7900390625 c 0
 25.1357421875 85.5634765625 9.2314453125 74.640625 9.2314453125 53.13671875 c 0
 9.2314453125 39.0302734375 16.3623046875 22.5869140625 44.2763671875 12.2587890625 c 1
 74.8173828125 -17.017578125 99.5947265625 -0.1923828125 108.275390625 11.23046875 c 1
 123.526367188 21.765625 163.481445312 35.673828125 196.569335938 35.673828125 c 0
 210.82421875 35.673828125 227.313476562 31.4560546875 247 26 c 0
 276.629882812 16.9287109375 303.110351562 15.4169921875 335.38671875 15.4169921875 c 0
 371.434570312 15.4169921875 412.172851562 6.8408203125 441.625976562 6.8408203125 c 0
 444.037109375 6.8408203125 444.037109375 6.8408203125 465.470703125 7.486328125 c 0
 476.916015625 7.3720703125 485.231445312 4.904296875 493.745117188 4.904296875 c 0
 512.091796875 4.904296875 530.32421875 17.587890625 530.32421875 40.3955078125 c 0
 530.32421875 59.982421875 517.989257812 70.5546875 507.409179688 79.623046875 c 0
 506.00390625 80.8779296875 476.610351562 103.403320312 452.268554688 103.403320312 c 0
 442.520507812 103.403320312 435.895507812 100.70703125 432.12109375 98.806640625 c 0
EndSplineSet
EndChar

StartChar: three
Encoding: 51 51 54
Width: 560
Flags: HW
LayerCount: 2
Fore
SplineSet
49.60546875 230.202148438 m 0
 25.9287109375 230.978515625 2.19921875 214.942382812 10.6240234375 178.412109375 c 0
 13.962890625 163.932617188 19.9169921875 138.118164062 47.9501953125 100.466796875 c 0
 57.0244140625 88.2783203125 59.7685546875 84.9033203125 91.123046875 60.45703125 c 0
 117.995117188 39.5048828125 120.55078125 37.6455078125 139.579101562 29.4814453125 c 0
 186.630859375 9.29296875 257.477539062 -3.337890625 305 0 c 0
 371.604492188 4.677734375 384.625976562 10.51953125 416.9140625 26.951171875 c 0
 441.03515625 39.2265625 483.959960938 78.4482421875 505.387695312 122.989257812 c 0
 517.810546875 148.8125 517.810546875 148.8125 520.563476562 156.194335938 c 0
 521.384765625 158.397460938 534.538085938 194.416015625 529.759765625 229.892578125 c 0
 527.471679688 246.889648438 527.471679688 246.889648438 527.255859375 247.963867188 c 0
 516.39453125 302.055664062 479.526367188 353.619140625 454.775390625 373.65234375 c 0
 452.640625 375.380859375 450.484375 377.110351562 448.306640625 378.83984375 c 1
 448.723632812 379.158203125 473.15234375 397.87890625 486.159179688 423.928710938 c 0
 503.708984375 459.073242188 511.05859375 478.048828125 505.284179688 530.109375 c 0
 499.247070312 584.534179688 469.741210938 613.85546875 452.010742188 631.181640625 c 0
 451.295898438 631.879882812 451.295898438 631.879882812 438.721679688 641.7421875 c 0
 381.041992188 686.98046875 360.340820312 689.028320312 309.087890625 687.728515625 c 0
 254.311523438 686.338867188 187.756835938 660.744140625 152.298828125 635.903320312 c 0
 151.532226562 635.366210938 103.09375 600.470703125 91.705078125 564.57421875 c 0
 87.69921875 551.948242188 78.6953125 523.565429688 109.709960938 493.75390625 c 0
 125.251953125 478.815429688 149.668945312 465.684570312 163.608398438 465.684570312 c 0
 188.151367188 465.684570312 204.387695312 491.212890625 194.25 513.356445312 c 0
 193.904296875 514.969726562 192.526367188 520.537109375 189.1015625 525.4453125 c 0
 189.232421875 526.000976562 196.622070312 546.478515625 228.44921875 566.799804688 c 0
 235.088867188 571.0390625 275.994140625 595.875976562 329.651367188 600.352539062 c 0
 329.975585938 600.379882812 350.993164062 601.9296875 362.244140625 599.94140625 c 0
 367.616210938 598.991210938 375.737304688 596.149414062 382.159179688 593.006835938 c 0
 382.465820312 592.73828125 398.689453125 578.444335938 406.537109375 560.436523438 c 0
 413.825195312 543.713867188 418.033203125 515.647460938 410.578125 492.919921875 c 0
 408.615234375 486.935546875 408.615234375 486.935546875 401.1015625 472.448242188 c 0
 389.124023438 451.026367188 373.385742188 440.348632812 334.469726562 440.348632812 c 0
 328.592773438 440.647460938 327.815429688 442.094726562 320.524414062 442.094726562 c 0
 290.943359375 442.094726562 275.206054688 406.106445312 296.458984375 384.518554688 c 0
 305.932617188 374.895507812 308.088867188 378.19921875 316.411132812 367.866210938 c 0
 325.163085938 357.000976562 333.100585938 351.416992188 348.94921875 350.119140625 c 0
 349.354492188 350.086914062 364.201171875 348.578125 386.583007812 334.701171875 c 1
 392 329.84375 430.40234375 293.79296875 436.159179688 243.145507812 c 0
 439.671875 212.239257812 428.692382812 189.955078125 419.206054688 170.703125 c 0
 409.13671875 151.509765625 397.419921875 134.8671875 382.403320312 121.689453125 c 0
 372.163085938 112.703125 344.18359375 88.314453125 271.234375 88.314453125 c 0
 239.276367188 88.314453125 218.79296875 92.337890625 195.57421875 97.5029296875 c 0
 177.2265625 101.782226562 160.205078125 106.509765625 145.41015625 112.95703125 c 0
 142.241210938 117.704101562 138.66796875 120.791992188 134.365234375 124.44140625 c 0
 131.916015625 128.154296875 133.108398438 126.25 131.11328125 132.592773438 c 0
 123.071289062 158.16796875 119.155273438 173.76171875 119.016601562 174.171875 c 0
 114.303710938 188.08203125 107.635742188 195.948242188 95.51171875 207.85546875 c 0
 84.0478515625 219.11328125 89.1884765625 218.986328125 77.08203125 226.463867188 c 0
 73.146484375 228.89453125 63.046875 233.821289062 50.248046875 230.202148438 c 0
 50.2412109375 230.202148438 70.2001953125 230.202148438 49.60546875 230.202148438 c 0
EndSplineSet
EndChar

StartChar: four
Encoding: 52 52 55
Width: 520
Flags: HW
LayerCount: 2
Fore
SplineSet
33.4580078125 642.549804688 m 0
 33.4580078125 641.455078125 37.333984375 585.240234375 37.333984375 533.1640625 c 0
 37.333984375 445.228515625 37.333984375 445.228515625 41.3671875 402.251953125 c 0
 44.0673828125 373.46875 45.1005859375 387.526367188 46.2783203125 369.669921875 c 0
 47.0283203125 358.294921875 47.8125 354.184570312 47.8125 354.02734375 c 0
 47.8125 342.154296875 54.501953125 331.83203125 64.3154296875 326.626953125 c 0
 75.8486328125 320.510742188 76.0048828125 320.34765625 79.0029296875 317.234375 c 0
 85.4267578125 310.563476562 100.865234375 298.3203125 119.916015625 309.458984375 c 0
 121.125976562 309.653320312 121.125976562 309.653320312 130.692382812 311.651367188 c 0
 144.22265625 314.372070312 144.22265625 314.372070312 197.828125 316.5390625 c 0
 231.198242188 317.888671875 231.198242188 317.888671875 236.661132812 317.888671875 c 0
 261.990234375 317.888671875 313.430664062 313.962890625 314.206054688 313.927734375 c 0
 314.118164062 268.8671875 313.768554688 257.498046875 311.241210938 199.666992188 c 0
 307.74609375 119.67578125 308.09765625 92.1025390625 310.321289062 42.2509765625 c 0
 310.321289062 33.556640625 312.647460938 19.986328125 325.411132812 10.9560546875 c 0
 330.84765625 7.1083984375 335.08203125 5.5576171875 337.124023438 4.685546875 c 0
 343.041015625 2.158203125 359.469726562 -4.8583984375 371.401367188 -4.8583984375 c 0
 388.698242188 -4.8583984375 403.70703125 8.5439453125 403.70703125 27.521484375 c 0
 403.70703125 42.6708984375 396 42.708984375 396 123 c 0
 396 240.03125 399.037109375 312.151367188 399.061523438 314.0625 c 0
 456.338867188 315.498046875 467.546875 315.833984375 478.694335938 322.328125 c 0
 499.813476562 334.633789062 500.051757812 362.213867188 483.8203125 375.452148438 c 0
 469.663085938 386.995117188 456.50390625 391.302734375 452.696289062 393.936523438 c 0
 445.859375 398.666992188 425.467773438 412.774414062 409.893554688 413.131835938 c 1
 409.9921875 413.8828125 416.290039062 461.53515625 422.9296875 487.771484375 c 0
 427.858398438 507.249023438 437.295898438 553.16796875 442.387695312 572.604492188 c 0
 450.099609375 602.043945312 449.282226562 613.821289062 452.411132812 623.626953125 c 0
 458.380859375 642.334960938 447.693359375 657.454101562 436.068359375 663.206054688 c 0
 420.096679688 671.108398438 404.337890625 676.680664062 389.7265625 681.916015625 c 0
 382.416015625 684.53515625 375.3828125 687.059570312 368.719726562 689.665039062 c 0
 354.756835938 695.125 338.6953125 689.779296875 330.848632812 676.694335938 c 0
 327.811523438 673.110351562 319.532226562 661.33984375 325.559570312 645.268554688 c 0
 325.5859375 644.338867188 326.458984375 607.65234375 322.358398438 552.341796875 c 0
 322.295898438 551.504882812 317.66015625 474.131835938 317.236328125 468.518554688 c 0
 314.004882812 425.705078125 313.94921875 421.755859375 313.94921875 417.802734375 c 0
 313.94921875 409.373046875 315.002929688 399.927734375 315.276367188 394.504882812 c 1
 294.75390625 394.095703125 260.213867188 395.204101562 256.762695312 395.204101562 c 0
 219.161132812 395.204101562 207.318359375 392.57421875 160.916992188 391.879882812 c 0
 153.125976562 391.763671875 145.114257812 391.655273438 136.905273438 391.369140625 c 1
 136.89453125 392.2890625 137.626953125 454.967773438 136.94921875 483.404296875 c 0
 136.541992188 581.305664062 138.921875 603.626953125 141.115234375 621.416015625 c 0
 142.149414062 629.8046875 142.5234375 650.469726562 123.16796875 659.291015625 c 0
 119.115234375 661.138671875 114.658203125 663.409179688 109.794921875 665.900390625 c 0
 96.4990234375 672.711914062 77.828125 682.276367188 65.8212890625 682.276367188 c 0
 57.1728515625 682.276367188 33.630859375 676.231445312 33.630859375 646.8203125 c 0
 33.4951171875 645.206054688 33.4580078125 643.778320312 33.4580078125 642.549804688 c 0
33.6259765625 646.516601562 m 1
 33.6259765625 646.516601562 l 1
EndSplineSet
EndChar

StartChar: five
Encoding: 53 53 56
Width: 546
Flags: HW
LayerCount: 2
Fore
SplineSet
403.743164062 567.135742188 m 0
 556.19921875 567.135742188 435.477539062 567.069335938 435.797851562 567.069335938 c 0
 445.969726562 567.069335938 445.969726562 567.069335938 469.4296875 569.803710938 c 0
 495.765625 572.872070312 497.483398438 573.284179688 506.473632812 581.735351562 c 0
 528.721679688 602.650390625 520.8828125 628.221679688 499.427734375 639.30859375 c 0
 487.946289062 645.2421875 496.032226562 643.611328125 484.032226562 652.438476562 c 0
 477.913085938 656.939453125 472.01171875 657.161132812 457.639648438 667.64453125 c 0
 447.130859375 675.30859375 444.327148438 675.583007812 427.21875 677.2578125 c 0
 422.369140625 677.731445312 419.50390625 677.149414062 414.904296875 676.212890625 c 0
 406.907226562 674.5859375 403.786132812 674.01171875 397.036132812 672.883789062 c 0
 381.90234375 670.356445312 375.736328125 668.438476562 367.232421875 665.26953125 c 0
 354.409179688 660.490234375 354.881835938 662.478515625 342.705078125 656.328125 c 0
 323.323242188 646.538085938 302.173828125 644.638671875 258.895507812 640.75 c 0
 203.345703125 636.83984375 202.875976562 636.658203125 195.29296875 633.724609375 c 0
 181.975585938 633.626953125 158.8671875 622.779296875 161.19921875 594.83984375 c 1
 157.143554688 565.762695312 148.071289062 482.374023438 147.935546875 481.23828125 c 0
 145.854492188 463.8359375 136.028320312 406.686523438 135.977539062 405.92578125 c 0
 135.166015625 393.921875 138.374023438 378.66796875 156.6953125 370.293945312 c 0
 164.01953125 366.9453125 160.059570312 365.118164062 177.333007812 359.135742188 c 0
 181.657226562 357.638671875 179.913085938 357.744140625 184.940429688 355.50390625 c 0
 189.712890625 353.377929688 202.963867188 348.966796875 216.419921875 357.844726562 c 1
 219.708984375 357.616210938 237.734375 356.049804688 255.065429688 348.442382812 c 0
 260.831054688 342.303710938 266.16015625 339.200195312 268.805664062 336.90234375 c 0
 314.03125 293.029296875 331.064453125 198.095703125 319.456054688 154.461914062 c 0
 317.600585938 147.4921875 317.600585938 147.4921875 310.549804688 132.934570312 c 0
 287.63671875 93.37890625 243.853515625 84.470703125 229.053710938 84.470703125 c 0
 207.520507812 84.470703125 188.081054688 90.791015625 164.520507812 98.4501953125 c 0
 157.22265625 100.822265625 152.626953125 107.811523438 141.40625 124.875 c 0
 135.256835938 135.782226562 135.256835938 135.782226562 134.383789062 137.844726562 c 0
 130.014648438 148.161132812 127.288085938 152.736328125 114.069335938 165.823242188 c 0
 113.94921875 165.942382812 155.712890625 124.658203125 102.03125 177.78515625 c 1
 96.4169921875 201.3671875 66.1806640625 211.688476562 47.68359375 194.657226562 c 0
 39.8154296875 192.018554688 14.4833984375 183.520507812 14.4833984375 157.102539062 c 0
 14.4833984375 136.526367188 42.9326171875 95.7900390625 57.7734375 80.81640625 c 0
 78.970703125 59.4287109375 100.833007812 48.0224609375 122.025390625 36.77734375 c 0
 147.219726562 23.4091796875 147.219726562 23.4091796875 173.8359375 14.9853515625 c 0
 174.672851562 14.720703125 222.67578125 0.7880859375 260.93359375 3.9931640625 c 0
 295.647460938 6.8984375 341.157226562 26.3759765625 370 58 c 0
 384.377929688 73.7646484375 399.817382812 100.470703125 405.611328125 126.603515625 c 0
 412.6171875 158.2109375 408.534179688 189.419921875 404.873046875 214.499023438 c 0
 404.720703125 215.541992188 395.05859375 275.654296875 376.263671875 315.891601562 c 0
 375.962890625 316.53515625 360.260742188 349.479492188 335.432617188 374.01953125 c 0
 320.178710938 389.095703125 311.2421875 394.350585938 280.735351562 412.291992188 c 0
 266.577148438 420.6171875 250.874023438 427.254882812 233.7890625 430.862304688 c 1
 235.040039062 450.141601562 242.490234375 527.159179688 249.751953125 557.223632812 c 0
 250.389648438 557.313476562 303.354492188 562.625976562 313.768554688 563.901367188 c 0
 336.821289062 566.724609375 352.602539062 568.546875 372.51953125 568.546875 c 0
 381.479492188 568.546875 403.430664062 567.135742188 403.743164062 567.135742188 c 0
EndSplineSet
EndChar

